<?xml version="1.0" standalone="no"?>
<!DOCTYPE svg PUBLIC "-//W3C//DTD SVG 1.1//EN" "http://www.w3.org/Graphics/SVG/1.1/DTD/svg11.dtd" >
<svg xmlns="http://www.w3.org/2000/svg">
<metadata></metadata>
<defs>
<font id="mic_32_new_rounded_rgregular" horiz-adv-x="1077" >
<font-face units-per-em="2048" ascent="1556" descent="-492" />
<missing-glyph horiz-adv-x="491" />
<glyph unicode="&#xfb01;" horiz-adv-x="1171" d="M51 963v47q0 20 11.5 32.5t31.5 12.5h96v155q0 147 98.5 231.5t233.5 84.5q61 0 111 -13q49 -11 39 -61l-15 -61q-9 -47 -59 -37q-48 6 -70 6q-64 0 -106.5 -40t-42.5 -110v-155h213q23 0 32 -14.5t3 -36.5l-15 -43q-7 -25 -19.5 -34t-35.5 -9h-178v-867q0 -23 -14 -37 t-37 -14h-86q-23 0 -37.5 14t-14.5 37v867h-96q-20 0 -31.5 12.5t-11.5 32.5zM799 1352q0 47 35 80.5t84 33.5q48 0 83 -33.5t35 -80.5t-35.5 -82t-82.5 -35q-50 0 -84.5 34t-34.5 83zM823 51v953q0 23 14 37t37 14h87q23 0 37 -14t14 -37v-953q0 -23 -14 -37t-37 -14h-87 q-23 0 -37 14t-14 37z" />
<glyph unicode="&#xfb02;" horiz-adv-x="1171" d="M51 963v47q0 20 11.5 32.5t31.5 12.5h96v155q0 147 98.5 231.5t233.5 84.5q61 0 111 -13q49 -11 39 -61l-15 -61q-9 -47 -59 -37q-48 6 -70 6q-64 0 -106.5 -40t-42.5 -110v-155h213q23 0 32 -14.5t3 -36.5l-15 -43q-7 -25 -19.5 -34t-35.5 -9h-178v-867q0 -23 -14 -37 t-37 -14h-86q-23 0 -37.5 14t-14.5 37v867h-96q-20 0 -31.5 12.5t-11.5 32.5zM823 51v1381q0 51 47 63l84 18q25 6 41.5 -6t16.5 -37v-1419q0 -23 -14 -37t-37 -14h-87q-23 0 -37 14t-14 37z" />
<glyph unicode="&#xfb03;" horiz-adv-x="1835" d="M51 963v47q0 20 11.5 32.5t31.5 12.5h96v155q0 147 98.5 231.5t233.5 84.5q61 0 111 -13q49 -11 39 -61l-15 -61q-9 -47 -59 -37q-48 6 -70 6q-64 0 -106.5 -40t-42.5 -110v-155h475v155q0 147 98.5 231.5t233.5 84.5q60 0 110 -13q49 -11 39 -61l-14 -61q-9 -47 -59 -37 q-48 6 -70 6q-64 0 -107 -40t-43 -110v-155h213q23 0 32 -14.5t3 -36.5l-14 -43q-7 -25 -19.5 -34t-35.5 -9h-179v-867q0 -23 -14 -37t-37 -14h-86q-23 0 -37 14t-14 37v867h-475v-867q0 -23 -14 -37t-37 -14h-86q-23 0 -37.5 14t-14.5 37v867h-96q-20 0 -31.5 12.5 t-11.5 32.5zM1462 1352q0 47 35 80.5t84 33.5q48 0 83.5 -33.5t35.5 -80.5t-36 -82t-83 -35q-50 0 -84.5 34t-34.5 83zM1487 51v953q0 23 14 37t37 14h86q23 0 37 -14t14 -37v-953q0 -23 -14 -37t-37 -14h-86q-23 0 -37 14t-14 37z" />
<glyph unicode="&#xfb04;" horiz-adv-x="1835" d="M51 963v47q0 20 11.5 32.5t31.5 12.5h96v155q0 147 98.5 231.5t233.5 84.5q61 0 111 -13q49 -11 39 -61l-15 -61q-9 -47 -59 -37q-48 6 -70 6q-64 0 -106.5 -40t-42.5 -110v-155h475v155q0 147 98.5 231.5t233.5 84.5q60 0 110 -13q49 -11 39 -61l-14 -61q-9 -47 -59 -37 q-48 6 -70 6q-64 0 -107 -40t-43 -110v-155h213q23 0 32 -14.5t3 -36.5l-14 -43q-7 -25 -19.5 -34t-35.5 -9h-179v-867q0 -23 -14 -37t-37 -14h-86q-23 0 -37 14t-14 37v867h-475v-867q0 -23 -14 -37t-37 -14h-86q-23 0 -37.5 14t-14.5 37v867h-96q-20 0 -31.5 12.5 t-11.5 32.5zM1487 49v1383q0 52 47 61l84 20q25 5 41 -7.5t16 -37.5v-1419q0 -23 -14 -37t-37 -14h-86q-23 0 -37 14t-14 37z" />
<glyph horiz-adv-x="0" />
<glyph unicode="&#xd;" horiz-adv-x="2048" />
<glyph unicode=" "  horiz-adv-x="491" />
<glyph unicode="&#x09;" horiz-adv-x="491" />
<glyph unicode="&#xa0;" horiz-adv-x="491" />
<glyph unicode="!" horiz-adv-x="518" d="M139 94q0 50 35.5 83.5t85.5 33.5q48 0 83.5 -33.5t35.5 -83.5q0 -49 -35.5 -85t-83.5 -36q-50 0 -85.5 35t-35.5 86zM160 1311q0 53 49 61l104 23q49 9 49 -43l-14 -860q0 -23 -15 -37.5t-38 -14.5h-70q-23 0 -37 14.5t-14 37.5z" />
<glyph unicode="&#x22;" horiz-adv-x="755" d="M150 1448q-1 23 12.5 37t36.5 14h67q23 0 36 -14t11 -37l-14 -367q0 -23 -15 -37t-38 -14h-29q-23 0 -38 14t-15 37zM442 1448q-1 23 12.5 37t37.5 14h67q23 0 36.5 -14t12.5 -37l-16 -367q0 -23 -14 -37t-37 -14h-31q-23 0 -37 14t-16 37z" />
<glyph unicode="#" horiz-adv-x="1144" d="M82 453v65q0 23 14 37t37 14h111l30 314h-92q-23 0 -37 14t-14 37v65q0 23 14 37.5t37 14.5h109l37 352q1 23 16 36t39 13h66q23 0 36 -14t11 -37l-37 -350h291l36 350q1 23 17 37t39 14h65q23 0 36 -14t11 -37l-36 -350h92q23 0 37 -14.5t14 -37.5v-65q0 -23 -14 -37 t-37 -14h-109l-31 -314h93q23 0 37 -14t14 -37v-65q0 -23 -14 -37.5t-37 -14.5h-109l-35 -350q-7 -51 -55 -51h-66q-24 0 -37 14t-10 37l35 350h-291l-35 -350q-7 -51 -55 -51h-65q-24 0 -37 14t-10 37l34 350h-94q-23 0 -37 14.5t-14 37.5zM412 569h290l31 314h-291z" />
<glyph unicode="$" horiz-adv-x="1034" d="M90 96l14 68q4 24 23 33.5t43 1.5q169 -54 317 -54q105 0 175.5 57.5t70.5 159.5q0 67 -34.5 116t-89.5 78.5t-121.5 55t-133 55.5t-121.5 70t-89.5 109t-34.5 162q0 142 93.5 237t248.5 119v182q0 23 14 37t37 14h53q23 0 37 -14t14 -37v-180q109 -7 244 -51 q46 -16 33 -66l-21 -65q-6 -23 -24 -31t-43 0q-133 45 -252 45q-116 0 -177 -48t-61 -138q0 -50 21.5 -88t57.5 -63.5t83 -46.5t99 -41t103.5 -41.5t98.5 -53.5t83 -72.5t57.5 -102t21.5 -138.5q0 -159 -95.5 -258t-248.5 -125v-185q0 -23 -14 -37t-37 -14h-52q-23 0 -37 14 t-14 37v178q-147 7 -303 56q-50 18 -39 65z" />
<glyph unicode="%" horiz-adv-x="1798" d="M131 950v142q0 145 87.5 232t223.5 87t225 -87t89 -232v-142q0 -145 -88.5 -231t-225.5 -86q-136 0 -223.5 86t-87.5 231zM281 954q0 -95 43.5 -141.5t117.5 -46.5q76 0 120 46.5t44 141.5v133q0 94 -44 140.5t-120 46.5q-74 0 -117.5 -46.5t-43.5 -140.5v-133zM506.5 16 q-8.5 16 3.5 41l610 1282q19 45 66 45h59q24 0 32.5 -15.5t-1.5 -37.5l-612 -1288q-17 -43 -66 -43h-59q-24 0 -32.5 16zM1040 295v137q0 147 88 234.5t226 87.5q136 0 224.5 -88t88.5 -234v-137q0 -146 -88.5 -234t-224.5 -88q-138 0 -226 87.5t-88 234.5zM1190 299 q0 -96 44 -142t120 -46q74 0 118 46t44 142v129q0 97 -43.5 143.5t-118.5 46.5q-76 0 -120 -46.5t-44 -143.5v-129z" />
<glyph unicode="&#x26;" horiz-adv-x="1177" d="M119 379q0 107 49 198t139 144q-82 49 -126 130t-44 179q0 166 118 273.5t314 107.5q111 0 246 -41q23 -7 32 -25t1 -40l-23 -62q-15 -47 -65 -31q-100 31 -187 31q-116 0 -179.5 -59.5t-63.5 -153.5q0 -101 59.5 -163t173.5 -62h53q23 0 35.5 -13.5t12.5 -37.5v-62 q0 -24 -12.5 -37.5t-35.5 -13.5h-61q-113 0 -177.5 -75.5t-64.5 -186.5q0 -106 66.5 -171t181.5 -65t182.5 65t67.5 171v375q0 23 14 37t37 14h197q23 0 37 -14t14 -37v-62q0 -23 -14 -37t-37 -14h-66v-262q0 -174 -117 -290t-317 -116t-320 116t-120 290z" />
<glyph unicode="'" horiz-adv-x="462" d="M150 1448q-1 23 12.5 37t36.5 14h67q23 0 36 -14t11 -37l-14 -367q0 -23 -15 -37t-38 -14h-29q-23 0 -38 14t-15 37z" />
<glyph unicode="(" horiz-adv-x="657" d="M172 -37v1243q0 201 112 304.5t302 109.5q22 0 29.5 -12.5t7.5 -38.5v-64q0 -25 -8.5 -38.5t-30.5 -14.5q-110 -8 -170 -63t-60 -187v-1235q0 -131 61 -187t169 -63q22 -1 30.5 -14.5t8.5 -38.5v-61q0 -55 -39 -52q-191 8 -301.5 110t-110.5 302z" />
<glyph unicode=")" horiz-adv-x="657" d="M37 -336q0 26 7.5 39t29.5 14q108 7 168.5 63t60.5 187v1235q0 69 -16.5 117.5t-49.5 75.5t-71.5 40t-91.5 17q-22 1 -29.5 14t-7.5 39v64q0 27 7 39t30 12q189 -6 300 -109.5t111 -304.5v-1243q0 -200 -110 -302t-301 -110q-22 -1 -29.5 12.5t-7.5 39.5v61z" />
<glyph unicode="*" horiz-adv-x="1003" d="M159 1000q5 19 25 28l185 96l-185 97q-44 23 -18 67l27 45q27 45 69 17l172 -109l-8 207q-1 23 12.5 37t36.5 14h55q23 0 36 -14t12 -37l-9 -207l172 109q20 13 39.5 8t30.5 -25l27 -45q12 -20 6.5 -38t-25.5 -29l-184 -97l184 -96q20 -9 25.5 -28t-6.5 -39l-27 -46 q-10 -20 -30 -25t-40 7l-172 111l9 -207q1 -23 -12 -37t-36 -14h-55q-23 0 -36.5 14t-12.5 37l8 207l-172 -111q-43 -26 -69 18l-27 46q-12 20 -7 39z" />
<glyph unicode="+" horiz-adv-x="1157" d="M139 539v61q0 23 14 37t37 14h308v305q0 23 14 37.5t37 14.5h59q23 0 37 -14.5t14 -37.5v-305h308q23 0 37 -14t14 -37v-61q0 -23 -14 -37.5t-37 -14.5h-308v-305q0 -23 -14 -37t-37 -14h-59q-23 0 -37 14t-14 37v305h-308q-23 0 -37 14.5t-14 37.5z" />
<glyph unicode="," horiz-adv-x="524" d="M115 -229l71 385q9 49 60 49h78q27 0 38.5 -16.5t4.5 -45.5l-113 -393q-6 -25 -23.5 -36.5t-40.5 -6.5l-40 6q-44 10 -35 58z" />
<glyph unicode="-" horiz-adv-x="1003" d="M170 535v61q0 23 14 37t37 14h559q23 0 37 -14t14 -37v-61q0 -23 -14 -37.5t-37 -14.5h-559q-23 0 -37 14.5t-14 37.5z" />
<glyph unicode="." horiz-adv-x="518" d="M139 94q0 50 35.5 83.5t83.5 33.5q50 0 85.5 -33.5t35.5 -83.5t-35.5 -85.5t-85.5 -35.5q-48 0 -83.5 36t-35.5 85z" />
<glyph unicode="/" horiz-adv-x="770" d="M121 -78l358 1524q14 53 64 53h67q23 0 33 -15.5t4 -39.5l-358 -1522q-10 -51 -64 -51h-65q-23 0 -33.5 14t-5.5 37z" />
<glyph unicode="0" horiz-adv-x="1198" d="M123 530v326q0 141 37 249.5t103 174t151 98.5t186 33t185.5 -33t150 -98.5t102.5 -174t37 -249.5v-326q0 -141 -37.5 -250t-103.5 -175t-150.5 -99t-183.5 -33q-100 0 -184.5 33t-151 99t-104 174.5t-37.5 250.5zM309 530q0 -202 78.5 -296.5t212.5 -94.5t211.5 94.5 t77.5 296.5v326q0 202 -77.5 295.5t-211.5 93.5q-135 0 -213 -93.5t-78 -295.5v-326z" />
<glyph unicode="1" horiz-adv-x="786" d="M96 1204v66q0 50 51 59l406 70q24 3 39.5 -8.5t15.5 -34.5v-1305q0 -23 -14 -37t-37 -14h-86q-23 0 -37 14t-14 37v1159l-264 -49q-27 -4 -43.5 7.5t-16.5 35.5z" />
<glyph unicode="2" d="M109 51v78q0 109 35.5 201.5t92 156t124.5 118t136.5 100.5t125 90.5t92 99.5t35.5 117q0 99 -63.5 166t-180.5 67q-126 0 -262 -59q-50 -22 -70 20l-24 58q-21 50 26 73q155 74 336 74q190 0 309 -107.5t119 -287.5q0 -81 -35 -152.5t-91.5 -125.5t-124 -104.5 t-135.5 -100.5t-124.5 -102t-91.5 -121t-35 -146h584q23 0 37 -14t14 -37v-62q0 -23 -14 -37t-37 -14h-727q-23 0 -37 14t-14 37z" />
<glyph unicode="3" horiz-adv-x="1030" d="M84 84l20 61q6 22 24 31t42 2q123 -39 244 -39q137 0 226 75t89 204q0 111 -70.5 180.5t-218.5 69.5h-100q-50 0 -59 45l-13 65q-8 45 25 80l340 363h-479q-50 0 -56 45l-10 67q-3 23 9.5 37t35.5 14h653q24 0 39.5 -13.5t18.5 -37.5l10 -61q6 -47 -29 -82l-348 -367 q124 -1 223.5 -47.5t160.5 -139.5t61 -218q0 -101 -41 -185.5t-110 -141t-161 -87.5t-194 -31q-150 0 -297 47q-23 6 -32 24t-3 40z" />
<glyph unicode="4" horiz-adv-x="1128" d="M106 420q-8 42 5 88l254 827q15 49 63 49h74q24 0 36 -16.5t3 -44.5l-252 -850h370v397q0 54 48 60l84 14q51 6 51 -47v-424h145q23 0 37 -14t14 -37v-62q0 -23 -14 -37t-37 -14h-145v-256q0 -24 -13 -39t-36 -16l-86 -12q-48 -3 -48 47v276h-485q-23 0 -38.5 15.5 t-20.5 40.5z" />
<glyph unicode="5" horiz-adv-x="1044" d="M80 84l14 63q4 22 23 30.5t43 2.5q144 -41 280 -41q54 0 106 17.5t97.5 52.5t73.5 95t28 136q0 126 -74 192t-245 66h-229q-23 0 -36.5 14.5t-13.5 37.5l21 583q0 23 15 37t38 14h623q48 0 39 -51l-21 -71q-9 -43 -53 -43h-467l-14 -359h123q231 0 358 -105t127 -311 q0 -114 -43.5 -206.5t-115 -148.5t-157.5 -86t-178 -30q-173 0 -323 47q-50 16 -39 64z" />
<glyph unicode="6" horiz-adv-x="1134" d="M123 430v471q0 143 52.5 256.5t162.5 183.5t262 70q117 0 258 -37q52 -13 39 -69l-14 -58q-6 -23 -25 -32t-43 -3q-118 33 -215 33q-137 0 -213 -94t-76 -238v-71q132 82 281 82q192 0 316 -126t124 -349q0 -113 -36 -205t-98.5 -150.5t-144.5 -89.5t-175 -31 q-126 0 -228 52t-164.5 157.5t-62.5 247.5zM309 428q0 -122 70 -205.5t196 -83.5q127 0 197 88t70 222q0 142 -70 230.5t-197 88.5q-138 0 -266 -82v-258z" />
<glyph unicode="7" horiz-adv-x="1001" d="M51 1335q-5 49 45 49h797q23 0 37 -14t14 -37v-59q0 -48 -35 -92q-68 -88 -115.5 -162.5t-95.5 -177.5t-77.5 -212.5t-48.5 -257.5t-21 -323q0 -22 -14 -35.5t-37 -13.5h-92q-24 0 -37.5 14.5t-12.5 40.5q4 375 101.5 655.5t277.5 510.5h-626q-51 0 -56 47z" />
<glyph unicode="8" horiz-adv-x="1159" d="M113 354q0 68 21.5 125.5t62.5 100.5t86 74.5t106 62.5q-71 39 -119.5 81t-82 108.5t-33.5 148.5q0 149 116 252.5t310 103.5q180 0 305 -100t125 -256q0 -112 -63.5 -187t-176.5 -135q62 -31 107 -62.5t86.5 -76.5t63.5 -105.5t22 -134.5q0 -115 -68 -204t-173.5 -133 t-227.5 -44q-88 0 -171 25.5t-149.5 72.5t-106.5 121t-40 162zM303 354q0 -95 79.5 -155t197.5 -60q115 0 195.5 59t80.5 156q0 35 -10 65.5t-33 56.5t-46 46t-62 41.5t-67.5 35t-76.5 34.5q-60 -29 -100 -53t-79.5 -57.5t-59 -75.5t-19.5 -93zM346 1057q0 -46 18.5 -83 t57.5 -66.5t76.5 -50t97.5 -46.5q107 49 164 105t57 141q0 87 -65.5 137.5t-171.5 50.5q-105 0 -169.5 -50.5t-64.5 -137.5z" />
<glyph unicode="9" horiz-adv-x="1120" d="M88 936q0 114 36 205t99 149.5t145 89.5t177 31q92 0 173.5 -30.5t144 -87.5t98.5 -144.5t36 -194.5v-471q0 -142 -52.5 -256t-162 -184t-260.5 -70q-130 0 -262 37q-49 16 -37 64l15 67q6 23 23.5 31t39.5 0q129 -33 221 -33q136 0 211.5 94t75.5 238v72 q-132 -82 -281 -82q-193 0 -316.5 126t-123.5 349zM279 936q0 -143 70 -231.5t198 -88.5q133 0 264 82v258q0 122 -69.5 205.5t-194.5 83.5q-127 0 -197.5 -87.5t-70.5 -221.5z" />
<glyph unicode=":" horiz-adv-x="518" d="M139 94q0 50 35.5 83.5t83.5 33.5q50 0 85.5 -33.5t35.5 -83.5t-35.5 -85.5t-85.5 -35.5q-49 0 -84 35.5t-35 85.5zM139 776q0 50 35.5 84.5t83.5 34.5q50 0 85.5 -34.5t35.5 -84.5q0 -48 -36 -83.5t-85 -35.5t-84 35.5t-35 83.5z" />
<glyph unicode=";" horiz-adv-x="538" d="M115 -229l71 385q9 49 60 49h78q27 0 38.5 -16.5t4.5 -45.5l-113 -393q-6 -25 -23.5 -36.5t-40.5 -6.5l-40 6q-44 10 -35 58zM156 776q0 51 35 85t85 34q48 0 83.5 -34.5t35.5 -84.5q0 -48 -35 -83.5t-84 -35.5t-84.5 35.5t-35.5 83.5z" />
<glyph unicode="&#x3c;" horiz-adv-x="1052" d="M166 572.5q0 22.5 20 37.5l584 486q17 15 38 13.5t36 -19.5l39 -48q15 -19 11.5 -38t-22.5 -33l-475 -398l477 -397q40 -32 11 -70l-43 -53q-13 -17 -33 -18.5t-37 12.5l-586 488q-20 15 -20 37.5z" />
<glyph unicode="=" horiz-adv-x="1155" d="M139 328v61q0 23 14 37t37 14h775q23 0 37 -14t14 -37v-61q0 -23 -14 -37.5t-37 -14.5h-775q-23 0 -37 14.5t-14 37.5zM139 756v61q0 23 14 37t37 14h775q23 0 37 -14t14 -37v-61q0 -23 -14 -37t-37 -14h-775q-23 0 -37 14t-14 37z" />
<glyph unicode="&#x3e;" horiz-adv-x="1052" d="M159 1003.5q-3 18.5 13 38.5l39 48q13 18 35 19.5t39 -13.5l583 -486q20 -15 20 -37.5t-20 -37.5l-585 -488q-42 -30 -70 6l-43 53q-29 38 8 70l479 397l-477 398q-18 14 -21 32.5z" />
<glyph unicode="?" horiz-adv-x="913" d="M124.5 1297q6.5 20 27.5 32q138 82 274 82q98 0 180 -36.5t135.5 -115.5t53.5 -188q0 -54 -19.5 -107t-48.5 -93t-63.5 -83.5t-63.5 -79.5t-48.5 -80.5t-19.5 -86.5v-115q0 -23 -16 -35t-39 -6l-80 18q-45 12 -45 62v76q0 62 26.5 123.5t64.5 111t76 96.5t64.5 99 t26.5 100q0 80 -49 127t-137 47q-92 0 -191 -57q-48 -28 -73 12l-31 55q-11 22 -4.5 42zM322 94q0 50 35 83.5t85 33.5q47 0 83 -33.5t36 -83.5q0 -49 -35.5 -85t-83.5 -36q-51 0 -85.5 35t-34.5 86z" />
<glyph unicode="@" horiz-adv-x="1806" d="M135 379q0 148 38 285t112 252t176 200.5t238 133.5t290 48q205 0 362 -97t240.5 -265t83.5 -379q0 -62 -10 -117h-436l-19 -149q-14 -124 -117 -207.5t-247 -83.5q-131 0 -216 74.5t-85 187.5q0 145 101 224t263 79h174l7 49q11 79 -27 135t-123 56q-84 0 -190 -27 q-52 -11 -58 35l-4 35q-8 52 39 63q122 35 231 35q151 0 231.5 -91.5t61.5 -240.5l-6 -49h281q0 123 -39.5 232t-110 190t-175 128.5t-228.5 47.5q-127 0 -239 -42.5t-194 -116.5t-141.5 -172t-89.5 -211t-30 -232q0 -171 67 -306t197.5 -214.5t304.5 -79.5q108 0 213.5 35 t189.5 90q46 24 66 -12l22 -43q19 -42 -22 -66q-101 -65 -214.5 -102t-266.5 -37q-162 0 -295.5 56.5t-221.5 155t-136 230.5t-48 283zM709 279q0 -59 41.5 -98.5t111.5 -39.5q74 0 127.5 44.5t61.5 105.5l18 149h-176q-82 0 -133 -40.5t-51 -120.5z" />
<glyph unicode="A" horiz-adv-x="1226" d="M80 57l405 1278q8 22 26.5 35.5t41.5 13.5h121q23 0 41 -13.5t24 -35.5l408 -1278q3 -9 3 -17q0 -13 -8 -23q-12 -17 -34 -17h-92q-49 0 -64 47l-100 326h-479l-101 -324q-13 -49 -61 -49h-94q-23 0 -34 17q-6 10 -6 22q0 8 3 18zM422 537h381l-131 428q-20 65 -60 219 q-7 -36 -57 -219z" />
<glyph unicode="B" horiz-adv-x="1165" d="M170 51v1282q0 23 14 37t37 14h373q200 0 317 -102t117 -262q0 -95 -47 -171t-133 -120q117 -45 174 -133.5t57 -196.5q0 -74 -30 -143t-88 -127.5t-154.5 -93.5t-218.5 -35h-367q-23 0 -37 14t-14 37zM365 172h221q144 0 220.5 61.5t76.5 165.5q0 106 -69.5 168 t-211.5 62h-237v-457zM365 793h208q120 0 189 57.5t69 153.5q0 99 -62 153.5t-181 54.5h-223v-419z" />
<glyph unicode="C" horiz-adv-x="1153" d="M131 528v328q0 137 40.5 244t113 174.5t169.5 102t214 34.5q171 0 342 -49q24 -6 35 -24q8 -12 8 -27q0 -6 -2 -13l-17 -69q-4 -21 -21.5 -30t-41.5 -3q-168 43 -301 43q-161 0 -252.5 -97.5t-91.5 -297.5v-303q0 -204 91 -300t253 -96q140 0 295 41q28 7 46 -1.5 t23 -30.5l15 -64q2 -9 2 -17q0 -41 -50 -55q-168 -45 -333 -45q-117 0 -214 34.5t-169.5 102t-113 174.5t-40.5 244z" />
<glyph unicode="D" horiz-adv-x="1282" d="M170 51v1198q0 24 15.5 44t39.5 28q255 90 437 90q134 0 243 -57.5t176.5 -174.5t67.5 -276v-409q0 -242 -126.5 -368t-360.5 -126h-441q-23 0 -37 14t-14 37zM365 172h297q152 0 223 78.5t71 255.5v385q0 168 -80.5 258t-216.5 90q-135 0 -294 -55v-1012z" />
<glyph unicode="E" d="M170 51v1282q0 23 14 37t37 14h656q23 0 37 -14t14 -37v-69q0 -23 -14 -37.5t-37 -14.5h-512v-432h428q47 0 47 -44v-5l-4 -67q-1 -23 -16.5 -36.5t-39.5 -13.5h-415v-442h530q23 0 37 -14t14 -37v-70q0 -23 -14 -37t-37 -14h-674q-23 0 -37 14t-14 37z" />
<glyph unicode="F" horiz-adv-x="1042" d="M170 51v1282q0 23 14 37t37 14h653q23 0 37.5 -14t14.5 -37v-69q0 -23 -14.5 -37.5t-37.5 -14.5h-509v-432h411q24 0 37 -14t10 -37l-4 -61q-3 -24 -18.5 -39t-38.5 -15h-397v-563q0 -23 -14.5 -37t-37.5 -14h-92q-23 0 -37 14t-14 37z" />
<glyph unicode="G" horiz-adv-x="1243" d="M131 528v328q0 137 40.5 244t113 174.5t169.5 102t214 34.5q156 0 348 -53q44 -14 44 -47q0 -9 -3 -19l-15 -61q-6 -22 -24 -33.5t-41 -5.5q-176 47 -307 47q-160 0 -252 -97.5t-92 -295.5v-303q0 -202 91.5 -300t252.5 -98q98 0 250 35v410h-103q-22 0 -35.5 14 t-13.5 37v51q0 23 13.5 36t35.5 13h234q23 0 37 -14t14 -37v-588q0 -23 -14 -41t-37 -26q-197 -62 -383 -62q-117 0 -214 34.5t-169.5 102t-113 174.5t-40.5 244z" />
<glyph unicode="H" horiz-adv-x="1300" d="M170 51v1282q0 23 14 37t37 14h92q23 0 37.5 -14t14.5 -37v-542h571v542q0 23 14 37t37 14h90q23 0 37 -14t14 -37v-1282q0 -23 -14 -37t-37 -14h-90q-23 0 -37 14t-14 37v570h-571v-570q0 -23 -14.5 -37t-37.5 -14h-92q-23 0 -37 14t-14 37z" />
<glyph unicode="I" horiz-adv-x="534" d="M170 51v1282q0 23 14 37t37 14h92q23 0 37.5 -14t14.5 -37v-1282q0 -23 -14.5 -37t-37.5 -14h-92q-23 0 -37 14t-14 37z" />
<glyph unicode="J" horiz-adv-x="974" d="M72 88l16 62q11 36 42 36q11 0 24 -4q124 -37 231 -37q126 0 186 83.5t60 224.5v884q0 23 14 36q12 11 31 11h6l96 -6q47 -3 47 -55v-877q0 -220 -115 -346.5t-317 -126.5q-140 0 -287 47q-37 13 -37 47q0 10 3 21z" />
<glyph unicode="K" horiz-adv-x="1206" d="M170 51v1282q0 23 14 37t37 14h92q23 0 37.5 -14t14.5 -37v-637l466 647q27 41 78 41h95q28 0 36.5 -21t-8.5 -44l-397 -553l469 -698q10 -14 10 -28q0 -8 -4 -17q-10 -23 -39 -23h-100q-50 0 -78 45l-375 559l-153 -215v-338q0 -23 -14.5 -37t-37.5 -14h-92 q-23 0 -37 14t-14 37z" />
<glyph unicode="L" horiz-adv-x="1036" d="M170 51v1282q0 23 14 37t37 14h92q23 0 37.5 -14t14.5 -37v-1161h542q23 0 35.5 -13t11.5 -36l-6 -72q-1 -23 -16.5 -37t-38.5 -14h-672q-23 0 -37 14t-14 37z" />
<glyph unicode="M" horiz-adv-x="1669" d="M104 53l152 1276q3 25 18.5 40t38.5 15h131q46 0 66 -51l270 -710q31 -90 54 -179q42 142 57 179l270 710q16 51 66 51h129q23 0 38.5 -14.5t18.5 -38.5l152 -1278q1 -4 1 -9q0 -17 -10 -29q-12 -15 -36 -15h-88q-52 0 -58 53l-102 881q-8 68 -15 203q-31 -116 -63 -203 l-233 -621q-19 -51 -68 -51h-117q-48 0 -67 51l-234 621q-37 98 -65 199q-9 -165 -13 -199l-102 -881q-1 -26 -16 -39.5t-39 -13.5h-90q-24 0 -36 14q-11 12 -10 33v6z" />
<glyph unicode="N" horiz-adv-x="1286" d="M170 51v1282q0 23 14 37t37 14h60q44 0 71 -47l574 -962q-4 74 -4 200v758q0 23 14 37t37 14h90q23 0 37 -14t14 -37v-1282q0 -23 -14 -37t-37 -14h-66q-45 0 -71 47l-570 948q9 -111 9 -202v-742q0 -23 -14.5 -37t-37.5 -14h-92q-23 0 -37 14t-14 37z" />
<glyph unicode="O" horiz-adv-x="1290" d="M131 530v322q0 136 40.5 244t111 176t162.5 103.5t200 35.5t200 -35.5t162.5 -103.5t111 -176t40.5 -244v-322q0 -137 -40 -244.5t-111 -175t-163 -102.5t-200 -35t-200 35t-163 102.5t-111 175t-40 244.5zM326 541q0 -199 86.5 -297.5t232.5 -98.5q147 0 234.5 98.5 t87.5 297.5v299q0 201 -87.5 300t-234.5 99t-233 -99t-86 -300v-299z" />
<glyph unicode="P" horiz-adv-x="1128" d="M170 51v1282q0 23 14 37t37 14h410q186 0 302 -122t116 -297q0 -174 -116.5 -297t-301.5 -123h-266v-494q0 -23 -14.5 -37t-37.5 -14h-92q-23 0 -37 14t-14 37zM365 715h264q104 0 163.5 69.5t59.5 180.5t-59.5 179t-163.5 68h-264v-497z" />
<glyph unicode="Q" horiz-adv-x="1292" d="M131 530v322q0 136 40.5 244t111 176t162.5 103.5t200 35.5t200.5 -35.5t163.5 -103.5t111.5 -176t40.5 -244v-322q0 -201 -82.5 -332t-224.5 -186l82 -213q6 -17 6 -31q0 -31 -29 -47l-57 -40q-14 -8 -28 -8l-16 3q-22 7 -32 31l-100 268q-6 0 -17.5 -1t-17.5 -1 q-108 0 -200 35t-163 102.5t-111 175t-40 244.5zM326 541q0 -199 86.5 -297.5t232.5 -98.5q147 0 234.5 98.5t87.5 297.5v299q0 201 -87.5 300t-234.5 99t-233 -99t-86 -300v-299z" />
<glyph unicode="R" horiz-adv-x="1142" d="M170 51v1282q0 23 14 37t37 14h412q186 0 301 -122t115 -297q0 -136 -73 -241t-198 -144l242 -514q12 -28 0.5 -47t-39.5 -19h-98q-49 0 -70 49l-229 506h-219v-504q0 -23 -14.5 -37t-37.5 -14h-92q-23 0 -37 14t-14 37zM365 715h264q104 0 164.5 69.5t60.5 180.5 t-60.5 179t-164.5 68h-264v-497z" />
<glyph unicode="S" horiz-adv-x="1034" d="M102 98l15 68q7 37 41 37q12 0 26 -4q164 -54 314 -54q105 0 175 57.5t70 159.5q0 53 -21.5 96t-57.5 73t-82.5 55.5t-98 48.5t-103 48t-98 58.5t-82.5 74t-57.5 100.5t-21.5 133q0 162 121 262t309 100q155 0 311 -55q37 -12 37 -43q0 -10 -4 -23l-18 -65 q-11 -35 -42 -35q-11 0 -24 4q-145 45 -260 45q-110 0 -171 -49t-61 -137q0 -50 21.5 -89.5t57.5 -67.5t82.5 -52t98 -47t103.5 -48.5t98.5 -60t82.5 -77.5t57.5 -106t21.5 -140q0 -94 -35.5 -169.5t-97 -123.5t-141.5 -73.5t-170 -25.5q-166 0 -359 60q-38 13 -38 50 q0 7 1 15z" />
<glyph unicode="T" horiz-adv-x="1064" d="M66 1264v69q0 23 14 37t37 14h833q23 0 37 -14t14 -37v-69q0 -23 -14 -37.5t-37 -14.5h-321v-1161q0 -23 -14 -37t-37 -14h-91q-23 0 -37 14t-14 37v1161h-319q-23 0 -37 14.5t-14 37.5z" />
<glyph unicode="U" horiz-adv-x="1292" d="M160 444v889q0 23 14 37t37 14h92q23 0 37 -14t14 -37v-876q0 -138 82.5 -225t212.5 -87q129 0 210 87t81 225v876q0 23 14 37t37 14h90q23 0 37.5 -14t14.5 -37v-889q0 -205 -141 -338t-343 -133q-134 0 -245.5 59t-177.5 167.5t-66 244.5z" />
<glyph unicode="V" horiz-adv-x="1226" d="M80 1325q-4 11 -4 20q0 11 6 21q10 18 33 18h98q45 0 61 -53l281 -911q32 -109 57 -230q25 112 60 230l280 911q13 53 62 53h94q26 0 36 -17q6 -10 6 -22q0 -9 -3 -20l-408 -1276q-6 -22 -23 -35.5t-40 -13.5h-125q-23 0 -40.5 13.5t-25.5 35.5z" />
<glyph unicode="W" horiz-adv-x="1689" d="M94 1329q-1 7 -1 13q1 18 9 28q12 14 35 14h94q49 0 58 -57l143 -874q13 -102 23 -230q33 151 59 230l205 669q16 45 65 45h119q51 0 66 -47l207 -667q35 -120 57 -228q11 147 24 228l144 874q9 57 57 57h94q24 0 36 -14q9 -11 8 -28q0 -6 -1 -13l-227 -1278 q-3 -23 -19.5 -37t-39.5 -14h-121q-23 0 -40.5 14t-25.5 37l-231 744q-31 108 -47 184q-11 -59 -45 -184l-232 -744q-16 -51 -65 -51h-121q-23 0 -39.5 14t-19.5 37z" />
<glyph unicode="X" horiz-adv-x="1193" d="M89 18q-4 8 -4 16q0 12 7 25l391 668l-344 598q-12 23 -3 41t32 18h104q50 0 74 -47l252 -436l256 436q27 47 72 47h94q26 0 35 -17t-4 -42l-344 -590l395 -674q7 -13 7 -25q0 -9 -4 -17q-9 -19 -32 -19h-108q-48 0 -76 49l-293 510l-301 -510q-25 -49 -76 -49h-98 q-23 0 -32 18z" />
<glyph unicode="Y" horiz-adv-x="1148" d="M78 1367q9 17 33 17h98q49 0 70 -51l294 -606l297 608q22 49 70 49h98q25 0 34 -16q4 -7 4 -15q0 -12 -7 -26l-397 -797v-479q0 -23 -14 -37t-37 -14h-93q-23 0 -37 14t-14 37v479l-397 797q-7 13 -7 24q0 8 5 16z" />
<glyph unicode="Z" horiz-adv-x="1124" d="M100 51v51q0 43 25 82l627 1028h-590q-23 0 -37 14.5t-14 37.5v69q0 23 14 37t37 14h778q23 0 37 -14t14 -37v-49q0 -42 -24 -80l-631 -1032h647q23 0 35 -14q10 -12 10 -32v-7l-10 -66q-1 -23 -17.5 -38t-39.5 -15h-809q-23 0 -37.5 14t-14.5 37z" />
<glyph unicode="[" horiz-adv-x="571" d="M172 -397v1966q0 23 14 37t37 14h258q23 0 37 -14t14 -37v-60q0 -23 -14 -37t-37 -14h-127v-1745h127q23 0 37 -14t14 -37v-59q0 -23 -14 -37.5t-37 -14.5h-258q-23 0 -37 14.5t-14 37.5z" />
<glyph unicode="\" horiz-adv-x="770" d="M121 1444q-5 24 5.5 39.5t33.5 15.5h69q23 0 39 -14t21 -37l360 -1522q5 -24 -6.5 -39.5t-34.5 -15.5h-67q-50 0 -60 53z" />
<glyph unicode="]" horiz-adv-x="571" d="M39 -338q0 23 14 37t37 14h127v1745h-127q-23 0 -37 14t-14 37v60q0 23 14 37t37 14h258q23 0 37 -14t14 -37v-1966q0 -23 -14 -37.5t-37 -14.5h-258q-23 0 -37 14.5t-14 37.5v59z" />
<glyph unicode="^" horiz-adv-x="1222" d="M195 938l303 518q24 43 73 43h84q50 0 74 -43l301 -518q25 -46 -18 -68l-64 -28q-22 -9 -41 -3.5t-28 25.5l-267 479l-266 -479q-19 -43 -65 -22l-66 28q-45 22 -20 68z" />
<glyph unicode="_" horiz-adv-x="1024" d="M0 -240q0 23 14 37.5t37 14.5h922q23 0 37 -14.5t14 -37.5v-59q0 -23 -14 -37t-37 -14h-922q-23 0 -37 14t-14 37v59z" />
<glyph unicode="`" horiz-adv-x="798" d="M184 1391l27 63q17 42 63 23l314 -136q43 -21 28 -59l-16 -47q-18 -40 -63 -23l-324 119q-47 17 -29 60z" />
<glyph unicode="a" horiz-adv-x="993" d="M94 315q0 152 104.5 236t278.5 84h207v57q0 108 -52 165.5t-151 57.5q-110 0 -231 -34q-8 -2 -15 -2q-34 0 -47 43l-12 49q-2 10 -2 19q0 38 41 50q144 41 266 41q178 0 283.5 -104.5t105.5 -284.5v-377q0 -144 -113 -243t-272 -99q-167 0 -279 98.5t-112 243.5zM287 317 q0 -73 54 -125.5t144 -52.5q87 0 143 51.5t56 124.5v172h-207q-96 0 -143 -47t-47 -123z" />
<glyph unicode="b" d="M121 414v1020q0 52 49 61l80 18q9 2 16 2q16 -1 27 -9q16 -12 16 -36v-462q119 73 242 73q65 0 124 -16.5t110 -52t88.5 -86.5t59 -124.5t21.5 -162.5v-225q0 -104 -33.5 -188.5t-90.5 -139t-132 -84t-159 -29.5t-159.5 29.5t-133 84t-91.5 139t-34 188.5zM309 424 q0 -140 64 -212.5t166 -72.5q100 0 164.5 73t64.5 212v205q0 150 -64 218t-167 68q-106 0 -228 -71v-420z" />
<glyph unicode="c" horiz-adv-x="964" d="M121 436v185q0 117 32 206t91.5 144t139 82.5t177.5 27.5q114 0 250 -34q39 -10 39 -46q0 -9 -2 -20l-12 -57q-4 -24 -21.5 -33.5t-40.5 -3.5q-122 28 -205 28q-131 0 -195.5 -73t-64.5 -232v-166q0 -158 64.5 -231.5t195.5 -73.5q77 0 201 27q13 3 23 3q36 0 43 -36 l14 -61q2 -9 2 -16q0 -38 -43 -48q-132 -35 -248 -35q-202 0 -321 116t-119 347z" />
<glyph unicode="d" horiz-adv-x="1075" d="M121 414v225q0 89 21.5 162.5t59 124.5t88.5 86.5t110 52t124 16.5q127 0 242 -73v440q0 23 14 37t37 14h84q23 0 37 -14t14 -37v-1034q0 -138 -57.5 -240t-150 -151.5t-205.5 -49.5q-84 0 -159.5 29.5t-133 84t-91.5 139t-34 188.5zM309 424q0 -140 64 -212.5t166 -72.5 t164.5 72.5t62.5 212.5v420q-122 71 -225 71q-104 0 -168 -68t-64 -218v-205z" />
<glyph unicode="e" horiz-adv-x="1044" d="M121 412v239q0 203 115 316.5t290 113.5q172 0 290 -110t118 -281v-166q0 -23 -14 -37t-37 -14h-574v-61q0 -138 64 -205.5t182 -67.5q97 0 231 33q25 8 42.5 0t21.5 -31l14 -63q2 -10 2 -18q0 -37 -43 -50q-133 -37 -268 -37q-196 0 -315 114.5t-119 324.5zM309 621h436 v69q0 100 -60.5 162.5t-158.5 62.5t-157.5 -64.5t-59.5 -184.5v-45z" />
<glyph unicode="f" horiz-adv-x="663" d="M51 963v47q0 20 11.5 32.5t31.5 12.5h96v155q0 147 98.5 231.5t233.5 84.5q61 0 111 -13q41 -9 41 -45q0 -8 -2 -16l-15 -61q-7 -39 -43 -39q-7 0 -16 2q-48 6 -70 6q-64 0 -106.5 -40t-42.5 -110v-155h213q23 0 32 -14.5t3 -36.5l-15 -43q-7 -25 -19.5 -34t-35.5 -9 h-178v-867q0 -23 -14 -37t-37 -14h-86q-23 0 -37.5 14t-14.5 37v867h-96q-20 0 -31.5 12.5t-11.5 32.5z" />
<glyph unicode="g" horiz-adv-x="980" d="M78 -315l20 55q11 36 42 36q11 0 26 -5q166 -66 305 -66q122 0 186 38.5t64 98.5q0 35 -28.5 59t-74.5 37.5t-101.5 24t-111 24.5t-101.5 34t-74.5 58t-28.5 91q0 70 63 123q-77 47 -120.5 125.5t-43.5 179.5v119q0 161 106.5 262.5t270.5 101.5q75 0 148 -26l258 18 q6 1 11 1q36 0 36 -37v-5l-4 -49q-3 -22 -13.5 -32t-33.5 -11l-99 -6q70 -89 70 -217v-119q0 -162 -104.5 -262t-268.5 -100q-42 0 -82 6q-26 -23 -26 -45q0 -20 30 -34.5t77.5 -25t105.5 -21.5t116 -30.5t105.5 -46.5t77.5 -74.5t30 -109.5q0 -138 -115 -226t-323 -88 q-181 0 -364 76q-35 13 -35 45q0 10 4 23zM285 598q0 -91 47.5 -145t144.5 -54q96 0 142.5 54t46.5 145v119q0 91 -46.5 144.5t-142.5 53.5q-97 0 -144.5 -54t-47.5 -144v-119z" />
<glyph unicode="h" horiz-adv-x="1124" d="M160 51v1397q0 23 14 37t37 14h86q23 0 37 -14t14 -37v-440q115 73 242 73q83 0 150.5 -23.5t121 -72t83.5 -131t30 -192.5v-611q0 -23 -14 -37t-37 -14h-86q-23 0 -37.5 14t-14.5 37v598q0 146 -54.5 206t-156.5 60q-105 0 -227 -71v-793q0 -23 -14 -37t-37 -14h-86 q-23 0 -37 14t-14 37z" />
<glyph unicode="i" horiz-adv-x="507" d="M135 1352q0 47 35 80.5t84 33.5q48 0 83.5 -33.5t35.5 -80.5t-36 -82t-83 -35q-50 0 -84.5 34t-34.5 83zM160 51v953q0 23 14 37t37 14h86q23 0 37 -14t14 -37v-953q0 -23 -14 -37t-37 -14h-86q-23 0 -37 14t-14 37z" />
<glyph unicode="j" horiz-adv-x="507" d="M133 1352q0 47 35.5 80.5t85.5 33.5q47 0 83 -34t36 -80q0 -47 -36 -82t-83 -35q-51 0 -86 34t-35 83zM160 -403v1407q0 23 14 37t37 14h86q23 0 37 -14t14 -37v-1369q0 -49 -43 -57l-96 -22q-7 -2 -13 -2q-13 0 -22 8q-14 12 -14 35z" />
<glyph unicode="k" horiz-adv-x="985" d="M160 51v1397q0 23 14 37t37 14h86q23 0 37 -14t14 -37v-846l187 68q43 15 66.5 44t37.5 83l55 211q11 47 62 47h80q25 0 35.5 -16.5t2.5 -41.5l-61 -233q-25 -91 -58 -144t-98 -81l244 -471q9 -16 9 -30q0 -10 -4 -18q-10 -20 -40 -20h-84q-48 0 -73 51l-215 426 l-146 -53v-373q0 -23 -14 -37t-37 -14h-86q-23 0 -37 14t-14 37z" />
<glyph unicode="l" horiz-adv-x="507" d="M160 51v1381q0 51 47 63l84 18q8 2 16 2q15 0 25 -8q16 -12 16 -37v-1419q0 -23 -14 -37t-37 -14h-86q-23 0 -37 14t-14 37z" />
<glyph unicode="m" horiz-adv-x="1658" d="M150 51v613q0 200 110.5 308.5t276.5 108.5q100 0 175 -52.5t117 -147.5q43 95 119 147.5t174 52.5q170 0 278.5 -108t108.5 -309v-613q0 -23 -14 -37t-37 -14h-86q-23 0 -37 14t-14 37v592q0 134 -53 203t-146 69t-145.5 -79t-52.5 -228v-557q0 -23 -14.5 -37t-37.5 -14 h-86q-23 0 -37 14t-14 37v557q0 150 -52 228.5t-146 78.5q-93 0 -146 -69t-53 -203v-592q0 -23 -14 -37t-37 -14h-86q-23 0 -37 14t-14 37z" />
<glyph unicode="n" horiz-adv-x="1112" d="M150 51v602q0 201 116.5 314.5t290.5 113.5q176 0 291 -113t115 -315v-602q0 -23 -14.5 -37t-37.5 -14h-86q-23 0 -37 14t-14 37v592q0 132 -59 202t-158 70q-100 0 -159.5 -69.5t-59.5 -202.5v-592q0 -23 -14 -37t-37 -14h-86q-23 0 -37 14t-14 37z" />
<glyph unicode="o" horiz-adv-x="1097" d="M121 436v182q0 225 118 344t310 119t310 -119.5t118 -343.5v-182q0 -224 -118 -343.5t-310 -119.5t-310 119.5t-118 343.5zM309 446q0 -307 240 -307q239 0 239 307v162q0 307 -239 307q-240 0 -240 -307v-162z" />
<glyph unicode="p" d="M121 -381v1022q0 138 58.5 239.5t152 151t207.5 49.5q176 0 295.5 -117.5t119.5 -322.5v-225q0 -89 -21.5 -162.5t-59 -124.5t-88.5 -87t-110 -52.5t-124 -16.5q-121 0 -242 74v-428q0 -23 -14 -37t-37 -14h-86q-23 0 -37 14t-14 37zM309 211q124 -72 228 -72 q103 0 167 68.5t64 218.5v205q0 139 -64.5 211.5t-164.5 72.5q-102 0 -166 -72t-64 -212v-420z" />
<glyph unicode="q" d="M121 416v225q0 138 58.5 239.5t152 151t207.5 49.5q176 0 295.5 -117.5t119.5 -322.5v-1006q0 -53 -45 -63l-90 -21q-5 -1 -9 -1q-17 0 -28 10q-14 12 -14 37v450q-121 -74 -244 -74q-65 0 -124 16.5t-110 52.5t-88.5 87t-59 124.5t-21.5 162.5zM309 426 q0 -150 64.5 -218.5t167.5 -68.5q100 0 227 72v420q0 140 -63.5 212t-165.5 72q-101 0 -165.5 -72t-64.5 -212v-205z" />
<glyph unicode="r" horiz-adv-x="727" d="M150 51v637q0 175 115 284t286 109q11 0 86 -6q53 -9 53 -53q0 -8 -2 -16l-12 -56q-8 -40 -52 -40q-8 0 -18 1q-28 4 -53 4q-97 0 -156 -63t-59 -164v-637q0 -23 -14 -37t-37 -14h-86q-23 0 -37 14t-14 37z" />
<glyph unicode="s" horiz-adv-x="862" d="M96 76l15 63q7 36 42 36q10 0 23 -3q125 -33 217 -33q85 0 138 40t53 102q0 47 -26 81.5t-68 56.5t-92.5 42.5t-100.5 46t-92 59t-68 89.5t-26 130q0 130 95.5 212.5t256.5 82.5q99 0 221 -30q22 -6 33.5 -24t5.5 -42l-18 -63q-9 -36 -43 -36q-10 0 -21 3q-97 26 -178 26 t-121.5 -35t-40.5 -94q0 -43 26 -75t68 -53t92.5 -41t100.5 -46t92 -60t68 -92t26 -134q0 -59 -23.5 -114t-69 -99.5t-120 -71.5t-168.5 -27q-130 0 -258 39q-21 6 -32 24q-8 13 -8 28q0 6 1 12z" />
<glyph unicode="t" horiz-adv-x="632" d="M39 1008q-2 9 -2 17q1 11 5 17q8 12 28 13h133v250q0 49 49 61l74 16q10 2 18 2q16 0 28 -8q16 -12 17 -37v-284h162q20 0 32.5 -12.5t12.5 -32.5v-47q0 -20 -12.5 -32.5t-32.5 -12.5h-162v-867q0 -23 -14 -37t-37 -14h-84q-23 0 -37 14t-14 37v867h-92q-24 0 -36 8.5 t-18 29.5z" />
<glyph unicode="u" horiz-adv-x="1112" d="M150 401v603q0 23 14 37t37 14h86q23 0 37 -14t14 -37v-592q0 -133 59 -203t158 -70q100 0 159.5 70t59.5 203v592q0 23 14 37t37 14h86q23 0 37.5 -14t14.5 -37v-603q0 -201 -116.5 -314.5t-291.5 -113.5q-176 0 -290.5 113t-114.5 315z" />
<glyph unicode="v" horiz-adv-x="1007" d="M68 993q-4 12 -4 22q0 13 6 23q12 18 36 17h87q49 0 63 -47l186 -578q22 -70 62 -237q30 138 61 237l187 578q16 47 63 47h86q43 0 43 -36q0 -11 -4 -26l-311 -938q-8 -25 -26.5 -40t-41.5 -15h-115q-23 0 -41.5 14t-25.5 39z" />
<glyph unicode="w" horiz-adv-x="1597" d="M106 1004q-1 4 -1 8q-1 17 11 29q14 14 38 14h86q23 0 37 -14t16 -37l43 -637q6 -103 54.5 -164.5t131.5 -61.5q82 0 132.5 63.5t50.5 164.5v559q0 23 14 37t37 14h82q23 0 37 -14t14 -37v-559q0 -101 50.5 -164.5t133.5 -63.5t132 62t55 164l45 639q1 23 15.5 36 t37.5 13h86q23 0 36 -14q11 -12 11 -31v-6l-47 -652q-13 -177 -112.5 -278t-258.5 -101q-87 0 -158.5 39.5t-117.5 110.5q-44 -71 -117 -110.5t-160 -39.5q-156 0 -255 103t-113 278z" />
<glyph unicode="x" horiz-adv-x="1001" d="M81 18q-4 7 -4 16q0 13 9 29l307 480l-282 450q-14 25 -5.5 43.5t33.5 18.5h101q40 0 69 -43l193 -312l196 312q28 43 72 43h88q25 0 35 -19.5t-4 -44.5l-281 -442l307 -486q9 -14 9 -27q0 -8 -4 -16q-10 -20 -35 -20h-97q-46 0 -71 45l-217 346l-221 -346 q-25 -45 -72 -45h-92q-25 0 -34 18z" />
<glyph unicode="y" horiz-adv-x="1001" d="M70 1001q-1 5 -1 10q0 17 9 29q12 15 35 15h88q49 0 55 -49l88 -619q14 -107 59 -163t132 -56h104l104 831q3 26 19 41t39 15h86q44 0 44 -43q0 -5 -1 -11l-178 -1382q-6 -51 -56 -51h-86q-44 0 -44 40q0 5 1 11l49 381h-86q-321 0 -372 369z" />
<glyph unicode="z" horiz-adv-x="968" d="M115 51v58q0 42 26 79l473 705h-436q-23 0 -37 14t-14 37v60q0 23 14 37t37 14h604q23 0 37.5 -14t14.5 -37v-62q0 -30 -27 -76l-469 -704h467q46 0 46 -42q0 -5 -1 -11l-8 -58q-6 -51 -58 -51h-618q-23 0 -37 14t-14 37z" />
<glyph unicode="{" horiz-adv-x="829" d="M100 575v23q0 23 13.5 36.5t35.5 21t48 15t52 22.5t48 38.5t35.5 69t13.5 108.5v312q0 100 31.5 177t88.5 123.5t129.5 71t160.5 27.5q41 0 41 -51v-64q0 -47 -43 -53q-52 -3 -89.5 -14.5t-70.5 -36.5t-49.5 -71t-16.5 -113v-308q0 -226 -163 -323q163 -101 163 -324 v-305q0 -67 17.5 -113.5t50.5 -72t71 -37.5t89 -15q41 -3 41 -51v-63q0 -51 -41 -51q-89 4 -161 28t-129 70t-88.5 122t-31.5 177v311q0 73 -18 122.5t-45.5 71t-59.5 36.5t-59.5 20.5t-45.5 21t-18 41.5z" />
<glyph unicode="|" horiz-adv-x="518" d="M168 -358v1806q0 23 14 37t37 14h80q23 0 37 -14t14 -37v-1806q0 -23 -14 -37.5t-37 -14.5h-80q-23 0 -37 14.5t-14 37.5z" />
<glyph unicode="}" horiz-adv-x="829" d="M33 -332q0 48 41 51q51 3 89 15t71 37.5t50 72t17 113.5v305q0 222 164 324q-164 98 -164 323v308q0 67 -16.5 113t-49 71t-70.5 36.5t-91 14.5q-41 5 -41 53v64q0 51 41 51q88 -3 160 -27.5t129 -71t88.5 -123.5t31.5 -177v-312q0 -73 18 -122.5t45 -70.5t59 -35.5 t59 -20.5t45 -21t18 -41v-23q0 -26 -18 -41.5t-45 -21t-59 -20.5t-59 -36.5t-45 -71t-18 -122.5v-311q0 -81 -20.5 -146t-57.5 -110t-89 -76t-112.5 -46.5t-131.5 -18.5q-39 0 -39 51v63z" />
<glyph unicode="~" horiz-adv-x="1163" d="M180 618q105 130 230 130q53 0 106 -25t88 -55t77 -55t75 -25q34 0 57.5 14t48.5 41q35 38 72 6l43 -37q38 -33 4 -73q-22 -25 -38.5 -41t-46.5 -39.5t-65.5 -36t-74.5 -12.5q-45 0 -88 16.5t-76 40t-63.5 47.5t-61.5 40.5t-59 16.5q-63 0 -109 -57q-14 -16 -33 -18 t-39 14l-39 35q-37 32 -8 73z" />
<glyph unicode="&#xa1;" horiz-adv-x="518" d="M139 1090q0 49 35.5 83.5t83.5 34.5q50 0 85.5 -34.5t35.5 -83.5q0 -52 -35.5 -85.5t-85.5 -33.5q-48 0 -83.5 34.5t-35.5 84.5zM156 -170l14 860q0 23 15 37t38 14h70q23 0 37 -14t14 -37l14 -819q0 -50 -49 -61l-104 -21q-24 -6 -36.5 5.5t-12.5 35.5z" />
<glyph unicode="&#xa2;" horiz-adv-x="987" d="M123 436v185q0 208 96.5 321.5t267.5 134.5v180q0 23 14.5 37.5t37.5 14.5h51q23 0 37 -14.5t14 -37.5v-180q78 -7 170 -30q51 -12 39 -66l-12 -57q-5 -22 -22 -32.5t-40 -4.5q-118 28 -207 28q-130 0 -194 -73t-64 -232v-166q0 -158 64.5 -231.5t193.5 -73.5 q101 0 207 29q50 11 62 -37l12 -57q6 -24 -3.5 -42t-33.5 -24q-100 -24 -172 -31v-180q0 -23 -14 -37t-37 -14h-51q-23 0 -37.5 14t-14.5 37v180q-171 21 -267.5 135t-96.5 324z" />
<glyph unicode="&#xa3;" horiz-adv-x="1001" d="M123 606v45q0 20 12.5 31.5t32.5 11.5h80q-6 23 -20.5 77.5t-21.5 83.5t-13.5 73.5t-6.5 83.5q0 191 114.5 295t295.5 104q128 0 258 -45q24 -9 33 -28.5t0 -43.5l-19 -55q-15 -46 -71 -29q-100 31 -189 31q-114 0 -169.5 -64t-55.5 -180q0 -32 3 -62.5t10 -65 t11.5 -55.5t15.5 -63t15 -57h320q20 0 32.5 -11.5t12.5 -31.5v-45q0 -20 -12.5 -32.5t-32.5 -12.5h-297q4 -46 4 -67q0 -98 -38.5 -185.5t-88.5 -146.5h510q23 0 37 -14t14 -37v-60q0 -23 -14 -37t-37 -14h-664q-23 0 -37 14t-14 37v99q141 179 141 344q0 21 -4 67h-102 q-20 0 -32.5 12.5t-12.5 32.5z" />
<glyph unicode="&#xa4;" horiz-adv-x="1163" d="M188 233q-37 37 0 74l84 84q-49 81 -49 180q0 101 51 183l-86 86q-36 36 0 73l54 54q36 37 73 0l86 -86q84 51 183 51q94 0 178 -51l88 86q37 37 74 0l51 -54q37 -37 0 -73l-84 -86q51 -82 51 -183q0 -100 -51 -182l84 -82q37 -37 0 -74l-51 -53q-37 -37 -74 0l-86 84 q-82 -51 -180 -51q-103 0 -185 51l-84 -84q-37 -36 -73 0zM387 571q0 -82 57.5 -139t139.5 -57q80 0 138 57.5t58 138.5t-58 139t-138 58q-82 0 -139.5 -57.5t-57.5 -139.5z" />
<glyph unicode="&#xa5;" horiz-adv-x="1058" d="M41 1325q-10 25 0 42t35 17h98q44 0 66 -45l290 -626l287 622q22 49 68 49h98q25 0 35 -17t-2 -42l-336 -688h174q43 0 43 -43v-45q0 -20 -11.5 -32.5t-31.5 -12.5h-227v-146h227q43 0 43 -43v-45q0 -43 -43 -43h-227v-176q0 -23 -14.5 -37t-37.5 -14h-90q-23 0 -37 14 t-14 37v176h-225q-20 0 -32.5 11.5t-12.5 31.5v45q0 20 12.5 31.5t32.5 11.5h225v146h-225q-20 0 -32.5 12.5t-12.5 32.5v45q0 20 12.5 31.5t32.5 11.5h172z" />
<glyph unicode="&#xa6;" horiz-adv-x="518" d="M168 240q0 23 14 37t37 14h80q23 0 37 -14t14 -37v-598q0 -23 -14 -37.5t-37 -14.5h-80q-23 0 -37 14.5t-14 37.5v598zM168 840v608q0 23 14 37t37 14h80q23 0 37 -14t14 -37v-608q0 -23 -14 -37.5t-37 -14.5h-80q-23 0 -37 14.5t-14 37.5z" />
<glyph unicode="&#xa7;" horiz-adv-x="1134" d="M147 -147l13 69q4 22 22 30.5t41 2.5q143 -47 271 -47q97 0 157 44t60 132q0 62 -30 107t-78 73t-105.5 52.5t-115.5 53.5t-106 66.5t-78 101.5t-30 150q0 152 111 242q-29 66 -29 147q0 151 108 242.5t279 91.5q143 0 283 -51q42 -16 30 -62l-18 -69q-6 -21 -24 -29 t-38 0q-128 39 -223 39q-97 0 -147.5 -40.5t-50.5 -117.5q0 -54 30 -95t78 -68t106 -52t116 -56t106 -71.5t78 -108t30 -155.5q0 -152 -110 -244q28 -64 28 -145q0 -109 -59 -190t-151 -119.5t-201 -38.5q-159 0 -316 53q-20 6 -31 24t-6 38zM367 690q0 -51 25.5 -89.5 t70.5 -64.5t92.5 -47t107 -50.5t99.5 -61.5q31 39 31 98q0 48 -18.5 86t-48 61.5t-71.5 46t-82 38t-88 39t-82 47.5q-36 -36 -36 -103z" />
<glyph unicode="&#xa8;" horiz-adv-x="921" d="M164 1346q0 44 31.5 76t74.5 32q44 0 76.5 -32t32.5 -76q0 -43 -32.5 -74t-76.5 -31q-43 0 -74.5 31t-31.5 74zM543 1346q0 44 31.5 76t74.5 32q44 0 76.5 -32t32.5 -76q0 -43 -32.5 -74t-76.5 -31q-42 0 -74 31.5t-32 73.5z" />
<glyph unicode="&#xa9;" horiz-adv-x="1550" d="M131 662q0 192 75 346.5t223 247t345 92.5q198 0 346 -92.5t222.5 -247t74.5 -346.5q0 -193 -74.5 -348t-222.5 -248t-346 -93q-197 0 -345 93t-223 248t-75 348zM266 662q0 -159 58 -285t174.5 -201.5t275.5 -75.5t276 75.5t175.5 201.5t58.5 285q0 158 -58.5 283.5 t-175.5 200.5t-276 75t-275.5 -75t-174.5 -200.5t-58 -283.5zM485 569v181q0 129 80.5 204.5t202.5 75.5q82 0 168 -22q40 -9 31 -50l-6 -30q-9 -37 -54 -27q-74 17 -139 17q-74 0 -115 -49.5t-41 -133.5v-155q0 -83 41 -130t115 -47q66 0 145 17q38 12 48 -25l6 -33 q9 -39 -31 -51q-86 -20 -168 -20q-122 0 -202.5 75t-80.5 203z" />
<glyph unicode="&#xaa;" horiz-adv-x="747" d="M96 850q0 110 74.5 168.5t200.5 58.5h129v37q0 137 -127 137q-67 0 -158 -22q-42 -11 -51 28l-12 48q-9 39 30 51q114 28 191 28q127 0 203.5 -74.5t76.5 -199.5v-260q0 -103 -81 -173.5t-195 -70.5q-120 0 -200.5 70.5t-80.5 173.5zM250 852q0 -50 35.5 -82.5 t91.5 -32.5q54 0 88.5 33.5t34.5 79.5v113h-125q-125 0 -125 -111z" />
<glyph unicode="&#xab;" horiz-adv-x="1032" d="M168 535q-26 37 0 75l233 293q30 34 66 6l59 -45q15 -12 16.5 -30t-10.5 -35l-182 -226l182 -227q28 -40 -6 -63l-59 -45q-17 -14 -35.5 -11.5t-30.5 19.5zM524 535q-29 37 0 75l234 293q12 15 30 17t33 -11l60 -45q15 -12 17 -29.5t-11 -35.5l-182 -226l182 -227 q29 -37 -4 -63l-62 -45q-15 -14 -33.5 -11.5t-31.5 19.5z" />
<glyph unicode="&#xac;" horiz-adv-x="1155" d="M139 535v61q0 23 14 37t37 14h775q23 0 37 -14t14 -37v-424q0 -23 -14 -37t-37 -14h-62q-23 0 -37 14t-14 37v311h-662q-23 0 -37 14.5t-14 37.5z" />
<glyph unicode="&#xad;" horiz-adv-x="661" />
<glyph unicode="&#xae;" horiz-adv-x="1550" d="M131 662q0 192 75 346.5t223 247t345 92.5q198 0 346 -92.5t222.5 -247t74.5 -346.5q0 -193 -74.5 -348t-222.5 -248t-346 -93q-197 0 -345 93t-223 248t-75 348zM266 662q0 -159 58 -285t174.5 -201.5t275.5 -75.5t276 75.5t175.5 201.5t58.5 285q0 158 -58.5 283.5 t-175.5 200.5t-276 75t-275.5 -75t-174.5 -200.5t-58 -283.5zM547 344v631q0 20 12.5 32.5t32.5 12.5h196q105 0 167.5 -64.5t62.5 -158.5q0 -64 -30.5 -120t-96.5 -83l121 -246q8 -17 0 -31t-29 -14h-45q-41 0 -55 35l-111 235h-98v-229q0 -41 -43 -41h-39q-45 0 -45 41z M674 684h110q51 0 80 32t29 81q0 48 -28 79t-83 31h-108v-223z" />
<glyph unicode="&#xaf;" horiz-adv-x="870" d="M176 1323v57q0 20 12.5 32.5t32.5 12.5h430q20 0 31.5 -12.5t11.5 -32.5v-57q0 -43 -43 -43h-430q-20 0 -32.5 11.5t-12.5 31.5z" />
<glyph unicode="&#xb0;" horiz-adv-x="788" d="M139 1270q0 102 75.5 176t180.5 74q103 0 178.5 -75.5t75.5 -178.5q0 -106 -75 -181t-179 -75q-106 0 -181 76t-75 184zM279 1266q0 -50 33.5 -83.5t82.5 -33.5t83 33.5t34 83.5t-34 83t-85 33q-48 0 -81 -33.5t-33 -82.5z" />
<glyph unicode="&#xb1;" horiz-adv-x="1116" d="M139 -35q0 23 14 37t37 14h736q23 0 37 -14t14 -37v-57q0 -23 -14 -37t-37 -14h-736q-23 0 -37 14t-14 37v57zM139 532v62q0 23 14 37t37 14h287v275q0 23 14 37t37 14h60q23 0 37 -14t14 -37v-275h287q23 0 37 -14t14 -37v-62q0 -23 -14 -37t-37 -14h-287v-272 q0 -23 -14 -37t-37 -14h-60q-23 0 -37 14t-14 37v272h-287q-23 0 -37 14t-14 37z" />
<glyph unicode="&#xb4;" horiz-adv-x="798" d="M182 1282q-16 40 31 59l307 134q52 24 70 -25l24 -57q17 -46 -32 -64l-318 -117q-47 -16 -63 23z" />
<glyph unicode="&#xb5;" horiz-adv-x="1122" d="M160 -381v1385q0 23 14 37t37 14h86q23 0 37 -14t14 -37v-611q0 -123 60.5 -188.5t156.5 -65.5q100 0 159.5 70t59.5 203v592q0 23 14.5 37t37.5 14h86q23 0 37 -14t14 -37v-603q0 -201 -116.5 -314.5t-291.5 -113.5q-125 0 -217 64v-418q0 -23 -14 -37t-37 -14h-86 q-23 0 -37 14t-14 37z" />
<glyph unicode="&#xb6;" horiz-adv-x="1241" d="M119 989q0 163 107 278t268 115h559q23 0 37 -14t14 -37v-1526q0 -23 -14 -37t-37 -14h-78q-23 0 -37 14t-14 37v1405h-187v-1405q0 -23 -14 -37t-37 -14h-78q-23 0 -37 14t-14 37v791h-72q-154 0 -260 116t-106 277z" />
<glyph unicode="&#xb7;" horiz-adv-x="571" d="M174 571q0 47 34 81t77 34q49 0 81.5 -33.5t32.5 -81.5q0 -46 -33.5 -77t-80.5 -31q-44 0 -77.5 31.5t-33.5 76.5z" />
<glyph unicode="&#xb8;" horiz-adv-x="610" d="M86 -371l8 58q3 39 51 32q24 -4 58 -4q53 0 76.5 25t23.5 76v184h158v-203q0 -62 -21 -108.5t-57.5 -71.5t-78.5 -37t-89 -12q-63 0 -94 8q-19 3 -28.5 18t-6.5 35z" />
<glyph unicode="&#xba;" horiz-adv-x="802" d="M96 932v127q0 155 84.5 240t220.5 85q137 0 221.5 -85t84.5 -240v-127q0 -155 -85 -240.5t-221 -85.5t-220.5 85.5t-84.5 240.5zM248 940q0 -203 153 -203q154 0 154 203v111q0 200 -154 200q-153 0 -153 -200v-111z" />
<glyph unicode="&#xbb;" horiz-adv-x="1032" d="M135 313q-2 18 10 33l183 229l-183 226q-27 39 7 63l59 45q35 27 65 -6l234 -291q26 -38 0 -75l-234 -291q-12 -17 -30 -19.5t-35 11.5l-59 45q-15 12 -17 30zM490.5 313q-2.5 18 9.5 33l182 229l-180 226q-31 39 4 63l59 45q17 13 35.5 11t30.5 -17l233 -291 q29 -37 0 -75l-231 -291q-13 -17 -32 -19.5t-36 11.5l-57 45q-15 12 -17.5 30z" />
<glyph unicode="&#xbf;" horiz-adv-x="913" d="M104 113q0 63 27 124t65.5 109.5t77.5 95t66 99t27 102.5v113q0 23 16 35.5t39 7.5l80 -21q45 -9 45 -61v-74q0 -63 -26.5 -124.5t-64.5 -111t-76 -97t-64.5 -98.5t-26.5 -99q0 -80 49 -127t137 -47q95 0 191 55q49 29 73 -12l31 -56q11 -22 5 -41.5t-27 -31.5 q-138 -82 -275 -82q-98 0 -180 37t-135.5 116.5t-53.5 188.5zM338 1090q0 49 35.5 83.5t83.5 34.5q51 0 86 -34t35 -84q0 -52 -35.5 -85.5t-85.5 -33.5q-47 0 -83 34.5t-36 84.5z" />
<glyph unicode="&#xc0;" horiz-adv-x="1226" d="M80 57l405 1278q8 22 26.5 35.5t41.5 13.5h121q23 0 41 -13.5t24 -35.5l408 -1278q7 -23 -4.5 -40t-34.5 -17h-92q-49 0 -64 47l-100 326h-479l-101 -324q-13 -49 -61 -49h-94q-23 0 -34 17t-3 40zM397 1690l27 63q17 42 63 23l314 -136q43 -21 28 -59l-16 -47 q-18 -40 -63 -23l-324 119q-47 17 -29 60zM422 537h381l-131 428q-20 65 -60 219q-7 -36 -57 -219z" />
<glyph unicode="&#xc1;" horiz-adv-x="1226" d="M80 57l405 1278q8 22 26.5 35.5t41.5 13.5h121q23 0 41 -13.5t24 -35.5l408 -1278q7 -23 -4.5 -40t-34.5 -17h-92q-49 0 -64 47l-100 326h-479l-101 -324q-13 -49 -61 -49h-94q-23 0 -34 17t-3 40zM395 1581q-16 40 31 59l307 134q52 24 70 -25l24 -57q17 -46 -32 -64 l-318 -117q-47 -16 -63 23zM422 537h381l-131 428q-20 65 -60 219q-7 -36 -57 -219z" />
<glyph unicode="&#xc2;" horiz-adv-x="1226" d="M80 57l405 1278q8 22 26.5 35.5t41.5 13.5h121q23 0 41 -13.5t24 -35.5l408 -1278q7 -23 -4.5 -40t-34.5 -17h-92q-49 0 -64 47l-100 326h-479l-101 -324q-13 -49 -61 -49h-94q-23 0 -34 17t-3 40zM358 1587q-24 39 13 60l204 122q41 21 76 0l205 -120q40 -22 14 -62 l-30 -51q-11 -17 -28 -20.5t-34 8.5l-164 110l-163 -110q-40 -24 -62 12zM422 537h381l-131 428q-20 65 -60 219q-7 -36 -57 -219z" />
<glyph unicode="&#xc3;" horiz-adv-x="1226" d="M80 57l405 1278q8 22 26.5 35.5t41.5 13.5h121q23 0 41 -13.5t24 -35.5l408 -1278q7 -23 -4.5 -40t-34.5 -17h-92q-49 0 -64 47l-100 326h-479l-101 -324q-13 -49 -61 -49h-94q-23 0 -34 17t-3 40zM338 1681q11 18 27.5 34.5t52 34t76.5 17.5q44 0 88 -24t82 -48t67 -24 q32 0 64 27q37 29 61 -2l25 -27q27 -27 2 -65q-11 -15 -26 -30.5t-50.5 -32.5t-75.5 -17q-44 0 -88 24t-82 48t-67 24q-34 0 -70 -31q-28 -28 -55 4l-23 27q-28 28 -8 61zM422 537h381l-131 428q-20 65 -60 219q-7 -36 -57 -219z" />
<glyph unicode="&#xc4;" horiz-adv-x="1226" d="M80 57l405 1278q8 22 26.5 35.5t41.5 13.5h121q23 0 41 -13.5t24 -35.5l408 -1278q7 -23 -4.5 -40t-34.5 -17h-92q-49 0 -64 47l-100 326h-479l-101 -324q-13 -49 -61 -49h-94q-23 0 -34 17t-3 40zM315 1645q0 44 32 76t75 32q44 0 76 -32t32 -76q0 -43 -32 -74t-76 -31 q-43 0 -75 31t-32 74zM422 537h381l-131 428q-20 65 -60 219q-7 -36 -57 -219zM694 1645q0 44 32 76t75 32q44 0 76 -32t32 -76q0 -43 -32 -74t-76 -31q-42 0 -74.5 31.5t-32.5 73.5z" />
<glyph unicode="&#xc5;" horiz-adv-x="1226" d="M80 57l405 1278q8 22 26.5 35.5t41.5 13.5h121q23 0 41 -13.5t24 -35.5l408 -1278q7 -23 -4.5 -40t-34.5 -17h-92q-49 0 -64 47l-100 326h-479l-101 -324q-13 -49 -61 -49h-94q-23 0 -34 17t-3 40zM422 537h381l-131 428q-20 65 -60 219q-7 -36 -57 -219zM424 1683 q0 75 56 130t134 55q75 0 130 -55t55 -130q0 -76 -55 -132t-130 -56q-78 0 -134 55.5t-56 132.5zM545 1683q0 -29 20 -50t49 -21q28 0 48 21t20 50t-20 49.5t-48 20.5q-29 0 -49 -20.5t-20 -49.5z" />
<glyph unicode="&#xc6;" horiz-adv-x="1847" d="M91.5 19q-10.5 19 4.5 44l756 1272q12 23 33 36t45 13h674q52 0 55 -53l4 -65q1 -26 -12 -40t-37 -14h-494l33 -432h438q52 0 43 -53l-12 -63q-9 -50 -59 -50h-400l33 -442h510q50 0 53 -49l6 -74q3 -49 -49 -49h-645q-23 0 -38.5 14t-16.5 37l-25 322h-499l-191 -328 q-26 -45 -74 -45h-98q-27 0 -37.5 19zM584 537h395l-41 608z" />
<glyph unicode="&#xc7;" horiz-adv-x="1153" d="M131 528v328q0 137 40.5 244t113 174.5t169.5 102t214 34.5q171 0 342 -49q24 -7 35 -24.5t6 -39.5l-17 -69q-4 -21 -21.5 -30t-41.5 -3q-168 43 -301 43q-161 0 -252.5 -97.5t-91.5 -297.5v-303q0 -204 91 -300t253 -96q140 0 295 41q28 7 46 -1.5t23 -30.5l15 -64 q12 -55 -48 -72q-124 -34 -235 -41v-180q0 -62 -21 -108.5t-57.5 -71.5t-78.5 -37t-89 -12q-63 0 -94 8q-19 3 -28.5 18t-6.5 35l8 58q1 18 15.5 26.5t36.5 5.5q24 -4 57 -4q53 0 76.5 25t23.5 76v159q-216 18 -346.5 159t-130.5 394z" />
<glyph unicode="&#xc8;" d="M170 51v1282q0 23 14 37t37 14h656q23 0 37 -14t14 -37v-69q0 -23 -14 -37.5t-37 -14.5h-512v-432h428q50 0 47 -49l-4 -67q-1 -23 -16.5 -36.5t-39.5 -13.5h-415v-442h530q23 0 37 -14t14 -37v-70q0 -23 -14 -37t-37 -14h-674q-23 0 -37 14t-14 37zM340 1690l27 63 q17 42 63 23l313 -136q44 -21 29 -59l-16 -47q-18 -40 -64 -23l-323 119q-47 17 -29 60z" />
<glyph unicode="&#xc9;" d="M170 51v1282q0 23 14 37t37 14h656q23 0 37 -14t14 -37v-69q0 -23 -14 -37.5t-37 -14.5h-512v-432h428q50 0 47 -49l-4 -67q-1 -23 -16.5 -36.5t-39.5 -13.5h-415v-442h530q23 0 37 -14t14 -37v-70q0 -23 -14 -37t-37 -14h-674q-23 0 -37 14t-14 37zM319 1581 q-16 40 31 59l307 134q52 24 70 -25l25 -57q17 -46 -33 -64l-318 -117q-47 -16 -63 23z" />
<glyph unicode="&#xca;" d="M170 51v1282q0 23 14 37t37 14h656q23 0 37 -14t14 -37v-69q0 -23 -14 -37.5t-37 -14.5h-512v-432h428q50 0 47 -49l-4 -67q-1 -23 -16.5 -36.5t-39.5 -13.5h-415v-442h530q23 0 37 -14t14 -37v-70q0 -23 -14 -37t-37 -14h-674q-23 0 -37 14t-14 37zM289 1587 q-24 40 12 60l205 122q41 21 76 0l204 -120q40 -23 15 -62l-31 -51q-23 -38 -61 -12l-164 110l-164 -110q-40 -24 -62 12z" />
<glyph unicode="&#xcb;" d="M170 51v1282q0 23 14 37t37 14h656q23 0 37 -14t14 -37v-69q0 -23 -14 -37.5t-37 -14.5h-512v-432h428q50 0 47 -49l-4 -67q-1 -23 -16.5 -36.5t-39.5 -13.5h-415v-442h530q23 0 37 -14t14 -37v-70q0 -23 -14 -37t-37 -14h-674q-23 0 -37 14t-14 37zM258 1645q0 44 32 76 t75 32q44 0 76 -32t32 -76q0 -43 -32 -74t-76 -31q-43 0 -75 31t-32 74zM637 1645q0 44 31.5 76t74.5 32q44 0 76.5 -32t32.5 -76q0 -43 -32.5 -74t-76.5 -31q-42 0 -74 31.5t-32 73.5z" />
<glyph unicode="&#xcc;" horiz-adv-x="534" d="M51 1690l27 63q17 42 63 23l314 -136q43 -21 28 -59l-16 -47q-18 -40 -64 -23l-323 119q-47 17 -29 60zM170 51v1282q0 23 14 37t37 14h92q23 0 37.5 -14t14.5 -37v-1282q0 -23 -14.5 -37t-37.5 -14h-92q-23 0 -37 14t-14 37z" />
<glyph unicode="&#xcd;" horiz-adv-x="534" d="M49 1581q-16 40 31 59l307 134q52 24 70 -25l24 -57q17 -46 -32 -64l-318 -117q-47 -16 -63 23zM170 51v1282q0 23 14 37t37 14h92q23 0 37.5 -14t14.5 -37v-1282q0 -23 -14.5 -37t-37.5 -14h-92q-23 0 -37 14t-14 37z" />
<glyph unicode="&#xce;" horiz-adv-x="534" d="M10 1587q-24 39 13 60l204 122q41 21 76 0l205 -120q40 -22 14 -62l-30 -51q-11 -17 -28 -20.5t-34 8.5l-164 110l-164 -110q-39 -24 -61 12zM170 51v1282q0 23 14 37t37 14h92q23 0 37.5 -14t14.5 -37v-1282q0 -23 -14.5 -37t-37.5 -14h-92q-23 0 -37 14t-14 37z" />
<glyph unicode="&#xcf;" horiz-adv-x="534" d="M-29 1645q0 44 32 76t75 32q44 0 76 -32t32 -76q0 -43 -32 -74t-76 -31q-43 0 -75 31t-32 74zM170 51v1282q0 23 14 37t37 14h92q23 0 37.5 -14t14.5 -37v-1282q0 -23 -14.5 -37t-37.5 -14h-92q-23 0 -37 14t-14 37zM350 1645q0 44 32 76t75 32q44 0 76 -32t32 -76 q0 -43 -32 -74t-76 -31q-42 0 -74.5 31.5t-32.5 73.5z" />
<glyph unicode="&#xd0;" horiz-adv-x="1282" d="M41 674v47q0 20 12.5 32.5t32.5 12.5h84v483q0 24 15.5 44t39.5 28q255 90 437 90q134 0 243 -57.5t176.5 -174.5t67.5 -276v-409q0 -242 -126.5 -368t-360.5 -126h-441q-23 0 -37 14t-14 37v580h-84q-20 0 -32.5 11.5t-12.5 31.5zM365 172h297q152 0 223 78.5t71 255.5 v385q0 168 -80.5 258t-216.5 90q-135 0 -294 -55v-418h249q20 0 31.5 -12.5t11.5 -32.5v-47q0 -43 -43 -43h-249v-459z" />
<glyph unicode="&#xd1;" horiz-adv-x="1286" d="M170 51v1282q0 23 14 37t37 14h60q44 0 71 -47l574 -962q-4 74 -4 200v758q0 23 14 37t37 14h90q23 0 37 -14t14 -37v-1282q0 -23 -14 -37t-37 -14h-66q-45 0 -71 47l-570 948q9 -111 9 -202v-742q0 -23 -14.5 -37t-37.5 -14h-92q-23 0 -37 14t-14 37zM367 1681 q11 18 27 34.5t51.5 34t76.5 17.5q44 0 88.5 -24t82.5 -48t67 -24q31 0 63 27q37 30 62 -2l24 -27q27 -27 2 -65q-56 -80 -151 -80q-44 0 -88.5 24t-82.5 48t-67 24q-33 0 -69 -31q-28 -28 -56 4l-22 27q-28 28 -8 61z" />
<glyph unicode="&#xd2;" horiz-adv-x="1290" d="M131 530v322q0 136 40.5 244t111 176t162.5 103.5t200 35.5t200 -35.5t162.5 -103.5t111 -176t40.5 -244v-322q0 -137 -40 -244.5t-111 -175t-163 -102.5t-200 -35t-200 35t-163 102.5t-111 175t-40 244.5zM326 541q0 -199 86.5 -297.5t232.5 -98.5q147 0 234.5 98.5 t87.5 297.5v299q0 201 -87.5 300t-234.5 99t-233 -99t-86 -300v-299zM428 1690l27 63q17 42 63 23l313 -136q44 -21 29 -59l-16 -47q-18 -40 -64 -23l-323 119q-47 17 -29 60z" />
<glyph unicode="&#xd3;" horiz-adv-x="1290" d="M131 530v322q0 136 40.5 244t111 176t162.5 103.5t200 35.5t200 -35.5t162.5 -103.5t111 -176t40.5 -244v-322q0 -137 -40 -244.5t-111 -175t-163 -102.5t-200 -35t-200 35t-163 102.5t-111 175t-40 244.5zM326 541q0 -199 86.5 -297.5t232.5 -98.5q147 0 234.5 98.5 t87.5 297.5v299q0 201 -87.5 300t-234.5 99t-233 -99t-86 -300v-299zM424 1581q-16 40 31 59l307 134q51 23 69 -25l25 -57q17 -46 -33 -64l-317 -117q-48 -16 -64 23z" />
<glyph unicode="&#xd4;" horiz-adv-x="1290" d="M131 530v322q0 136 40.5 244t111 176t162.5 103.5t200 35.5t200 -35.5t162.5 -103.5t111 -176t40.5 -244v-322q0 -137 -40 -244.5t-111 -175t-163 -102.5t-200 -35t-200 35t-163 102.5t-111 175t-40 244.5zM326 541q0 -199 86.5 -297.5t232.5 -98.5q147 0 234.5 98.5 t87.5 297.5v299q0 201 -87.5 300t-234.5 99t-233 -99t-86 -300v-299zM389 1587q-24 40 12 60l205 122q41 21 76 0l205 -120q40 -22 14 -62l-31 -51q-23 -38 -61 -12l-164 110l-164 -110q-39 -24 -61 12z" />
<glyph unicode="&#xd5;" horiz-adv-x="1290" d="M131 530v322q0 136 40.5 244t111 176t162.5 103.5t200 35.5t200 -35.5t162.5 -103.5t111 -176t40.5 -244v-322q0 -137 -40 -244.5t-111 -175t-163 -102.5t-200 -35t-200 35t-163 102.5t-111 175t-40 244.5zM326 541q0 -199 86.5 -297.5t232.5 -98.5q147 0 234.5 98.5 t87.5 297.5v299q0 201 -87.5 300t-234.5 99t-233 -99t-86 -300v-299zM371 1681q11 18 27 34.5t51.5 34t76.5 17.5q44 0 88.5 -24t82.5 -48t67 -24q31 0 63 27q37 30 62 -2l24 -27q27 -27 2 -65q-56 -80 -151 -80q-44 0 -88.5 24t-82.5 48t-67 24q-33 0 -69 -31 q-28 -28 -56 4l-22 27q-28 28 -8 61z" />
<glyph unicode="&#xd6;" horiz-adv-x="1290" d="M131 530v322q0 136 40.5 244t111 176t162.5 103.5t200 35.5t200 -35.5t162.5 -103.5t111 -176t40.5 -244v-322q0 -137 -40 -244.5t-111 -175t-163 -102.5t-200 -35t-200 35t-163 102.5t-111 175t-40 244.5zM326 541q0 -199 86.5 -297.5t232.5 -98.5q147 0 234.5 98.5 t87.5 297.5v299q0 201 -87.5 300t-234.5 99t-233 -99t-86 -300v-299zM350 1645q0 44 32 76t75 32q44 0 76 -32t32 -76q0 -43 -32 -74t-76 -31q-43 0 -75 31t-32 74zM729 1645q0 44 32 76t75 32q44 0 76 -32t32 -76q0 -43 -32 -74t-76 -31q-42 0 -74.5 31.5t-32.5 73.5z" />
<glyph unicode="&#xd7;" horiz-adv-x="1015" d="M176 276q-37 37 0 74l217 215l-215 217q-37 37 0 74l41 41q37 37 74 0l215 -217l215 217q37 37 74 0l41 -41q37 -37 0 -74l-215 -217l215 -215q37 -37 0 -74l-41 -40q-37 -37 -74 0l-215 215l-215 -218q-37 -37 -74 0z" />
<glyph unicode="&#xd8;" horiz-adv-x="1290" d="M131 530v322q0 136 40.5 244t111 176t162.5 103.5t200 35.5q129 0 238 -53l53 108q19 40 61 23l52 -27q39 -14 18 -57l-63 -129q155 -152 155 -424v-322q0 -137 -40 -244.5t-111 -175t-163 -102.5t-200 -35q-136 0 -248 56l-55 -113q-20 -38 -59 -20l-54 24 q-38 18 -18 62l65 135q-145 148 -145 413zM326 541q0 -142 45 -234l434 893q-70 39 -160 39q-147 0 -233 -99t-86 -300v-299zM475 188q65 -43 170 -43q147 0 234.5 98.5t87.5 297.5v299q0 147 -54 250z" />
<glyph unicode="&#xd9;" horiz-adv-x="1292" d="M160 444v889q0 23 14 37t37 14h92q23 0 37 -14t14 -37v-876q0 -138 82.5 -225t212.5 -87q129 0 210 87t81 225v876q0 23 14 37t37 14h90q23 0 37.5 -14t14.5 -37v-889q0 -205 -141 -338t-343 -133q-134 0 -245.5 59t-177.5 167.5t-66 244.5zM428 1690l27 63q17 42 63 23 l313 -136q44 -21 29 -59l-16 -47q-18 -40 -64 -23l-323 119q-47 17 -29 60z" />
<glyph unicode="&#xda;" horiz-adv-x="1292" d="M160 444v889q0 23 14 37t37 14h92q23 0 37 -14t14 -37v-876q0 -138 82.5 -225t212.5 -87q129 0 210 87t81 225v876q0 23 14 37t37 14h90q23 0 37.5 -14t14.5 -37v-889q0 -205 -141 -338t-343 -133q-134 0 -245.5 59t-177.5 167.5t-66 244.5zM428 1581q-16 40 31 59 l307 134q52 24 70 -25l24 -57q17 -46 -33 -64l-317 -117q-48 -16 -64 23z" />
<glyph unicode="&#xdb;" horiz-adv-x="1292" d="M160 444v889q0 23 14 37t37 14h92q23 0 37 -14t14 -37v-876q0 -138 82.5 -225t212.5 -87q129 0 210 87t81 225v876q0 23 14 37t37 14h90q23 0 37.5 -14t14.5 -37v-889q0 -205 -141 -338t-343 -133q-134 0 -245.5 59t-177.5 167.5t-66 244.5zM389 1587q-24 40 12 60 l205 122q41 21 76 0l205 -120q40 -22 14 -62l-31 -51q-23 -38 -61 -12l-164 110l-164 -110q-39 -24 -61 12z" />
<glyph unicode="&#xdc;" horiz-adv-x="1292" d="M160 444v889q0 23 14 37t37 14h92q23 0 37 -14t14 -37v-876q0 -138 82.5 -225t212.5 -87q129 0 210 87t81 225v876q0 23 14 37t37 14h90q23 0 37.5 -14t14.5 -37v-889q0 -205 -141 -338t-343 -133q-134 0 -245.5 59t-177.5 167.5t-66 244.5zM350 1645q0 44 32 76t75 32 q44 0 76 -32t32 -76q0 -43 -32 -74t-76 -31q-43 0 -75 31t-32 74zM729 1645q0 44 32 76t75 32q44 0 76 -32t32 -76q0 -43 -32 -74t-76 -31q-42 0 -74.5 31.5t-32.5 73.5z" />
<glyph unicode="&#xdd;" horiz-adv-x="1148" d="M77.5 1367q9.5 17 33.5 17h98q49 0 70 -51l294 -606l297 608q22 49 70 49h98q25 0 34 -16t-3 -41l-397 -797v-479q0 -23 -14 -37t-37 -14h-93q-23 0 -37 14t-14 37v479l-397 797q-12 23 -2.5 40zM356 1581q-16 40 31 59l307 134q52 24 70 -25l24 -57q17 -46 -32 -64 l-318 -117q-47 -16 -63 23z" />
<glyph unicode="&#xde;" horiz-adv-x="1128" d="M170 51v1282q0 23 14 37t37 14h92q23 0 37.5 -14t14.5 -37v-221h266q186 0 302 -122.5t116 -297.5q0 -84 -30 -160t-83.5 -133.5t-132.5 -91t-172 -33.5h-266v-223q0 -23 -14.5 -37t-37.5 -14h-92q-23 0 -37 14t-14 37zM365 442h264q104 0 163.5 69.5t59.5 180.5 t-59.5 180.5t-163.5 69.5h-264v-500z" />
<glyph unicode="&#xdf;" horiz-adv-x="1232" d="M51 963v47q0 20 11.5 32.5t31.5 12.5h96v127q0 165 101 254.5t248 89.5q71 0 134 -20.5t113.5 -60t80.5 -104.5t30 -147q0 -58 -23 -110t-55.5 -89.5t-64.5 -71.5t-55 -71t-23 -74q0 -43 26 -74.5t67 -52t91 -39.5t99.5 -44t90.5 -58.5t67 -91t26 -133.5q0 -59 -23 -114 t-67 -99.5t-116.5 -71.5t-164.5 -27q-133 0 -256 39q-47 15 -37 66l13 61q12 46 65 33q120 -33 215 -33q81 0 132.5 40t51.5 102q0 47 -25.5 81t-65.5 55.5t-89 41t-98 44t-89 57t-65.5 88.5t-25.5 130q0 62 22.5 114t54 88t63.5 68t54.5 67.5t22.5 72.5q0 85 -50.5 128.5 t-121.5 43.5q-68 0 -117 -45.5t-49 -140.5v-1123q0 -23 -14 -37t-37 -14h-84q-23 0 -37.5 14t-14.5 37v869h-96q-43 0 -43 43z" />
<glyph unicode="&#xe0;" horiz-adv-x="993" d="M94 315q0 152 104.5 236t278.5 84h207v57q0 108 -52 165.5t-151 57.5q-110 0 -231 -34q-47 -11 -62 41l-12 49q-12 54 39 69q144 41 266 41q178 0 283.5 -104.5t105.5 -284.5v-377q0 -144 -113 -243t-272 -99q-167 0 -279 98.5t-112 243.5zM264 1391l27 63q17 42 63 23 l314 -136q43 -21 28 -59l-16 -47q-18 -40 -64 -23l-323 119q-47 17 -29 60zM287 317q0 -73 54 -125.5t144 -52.5q87 0 143 51.5t56 124.5v172h-207q-96 0 -143 -47t-47 -123z" />
<glyph unicode="&#xe1;" horiz-adv-x="993" d="M94 315q0 152 104.5 236t278.5 84h207v57q0 108 -52 165.5t-151 57.5q-110 0 -231 -34q-47 -11 -62 41l-12 49q-12 54 39 69q144 41 266 41q178 0 283.5 -104.5t105.5 -284.5v-377q0 -144 -113 -243t-272 -99q-167 0 -279 98.5t-112 243.5zM246 1282q-16 40 30 59 l308 134q51 23 69 -25l25 -57q17 -46 -33 -64l-317 -117q-48 -16 -64 23zM287 317q0 -73 54 -125.5t144 -52.5q87 0 143 51.5t56 124.5v172h-207q-96 0 -143 -47t-47 -123z" />
<glyph unicode="&#xe2;" horiz-adv-x="993" d="M94 315q0 152 104.5 236t278.5 84h207v57q0 108 -52 165.5t-151 57.5q-110 0 -231 -34q-47 -11 -62 41l-12 49q-12 54 39 69q144 41 266 41q178 0 283.5 -104.5t105.5 -284.5v-377q0 -144 -113 -243t-272 -99q-167 0 -279 98.5t-112 243.5zM221 1288q-24 40 12 60 l205 122q41 21 76 0l205 -120q40 -22 14 -62l-31 -51q-23 -38 -61 -12l-164 110l-164 -110q-39 -24 -61 12zM287 317q0 -73 54 -125.5t144 -52.5q87 0 143 51.5t56 124.5v172h-207q-96 0 -143 -47t-47 -123z" />
<glyph unicode="&#xe3;" horiz-adv-x="993" d="M94 315q0 152 104.5 236t278.5 84h207v57q0 108 -52 165.5t-151 57.5q-110 0 -231 -34q-47 -11 -62 41l-12 49q-12 54 39 69q144 41 266 41q178 0 283.5 -104.5t105.5 -284.5v-377q0 -144 -113 -243t-272 -99q-167 0 -279 98.5t-112 243.5zM203 1382q11 18 27 34.5 t51.5 34t76.5 17.5q44 0 88.5 -24t82.5 -48t67 -24q31 0 63 27q37 30 62 -2l24 -27q27 -27 3 -65q-11 -15 -26 -30.5t-50.5 -32.5t-75.5 -17q-44 0 -88.5 24t-82.5 48t-67 24q-33 0 -69 -31q-28 -28 -56 4l-22 27q-28 28 -8 61zM287 317q0 -73 54 -125.5t144 -52.5 q87 0 143 51.5t56 124.5v172h-207q-96 0 -143 -47t-47 -123z" />
<glyph unicode="&#xe4;" horiz-adv-x="993" d="M94 315q0 152 104.5 236t278.5 84h207v57q0 108 -52 165.5t-151 57.5q-110 0 -231 -34q-47 -11 -62 41l-12 49q-12 54 39 69q144 41 266 41q178 0 283.5 -104.5t105.5 -284.5v-377q0 -144 -113 -243t-272 -99q-167 0 -279 98.5t-112 243.5zM176 1346q0 44 32 76t75 32 q44 0 76 -32t32 -76q0 -43 -32 -74t-76 -31q-43 0 -75 31t-32 74zM287 317q0 -73 54 -125.5t144 -52.5q87 0 143 51.5t56 124.5v172h-207q-96 0 -143 -47t-47 -123zM555 1346q0 44 32 76t75 32q44 0 76 -32t32 -76q0 -43 -32 -74t-76 -31q-42 0 -74.5 31.5t-32.5 73.5z" />
<glyph unicode="&#xe5;" horiz-adv-x="993" d="M94 315q0 152 104.5 236t278.5 84h207v57q0 108 -52 165.5t-151 57.5q-110 0 -231 -34q-47 -11 -62 41l-12 49q-12 54 39 69q144 41 266 41q178 0 283.5 -104.5t105.5 -284.5v-377q0 -144 -113 -243t-272 -99q-167 0 -279 98.5t-112 243.5zM287 317q0 -73 54 -125.5 t144 -52.5q87 0 143 51.5t56 124.5v172h-207q-96 0 -143 -47t-47 -123zM295 1384q0 75 56 130t134 55q75 0 130 -55t55 -130q0 -76 -55 -132t-130 -56q-78 0 -134 55.5t-56 132.5zM416 1384q0 -29 20 -50t49 -21q28 0 48 21t20 50t-20 49.5t-48 20.5q-29 0 -49 -20.5 t-20 -49.5z" />
<glyph unicode="&#xe6;" horiz-adv-x="1601" d="M94 315q0 152 104.5 236t278.5 84h207v57q0 108 -52 165.5t-151 57.5q-102 0 -231 -34q-22 -5 -38 5t-22 32l-14 55q-6 23 5.5 41t33.5 26q136 41 266 41q197 0 301 -135q110 135 301 135q172 0 290 -110t118 -281v-166q0 -23 -14 -37t-37 -14h-574v-61q0 -138 64 -205.5 t182 -67.5q107 0 236 35q22 6 38.5 -3.5t20.5 -31.5l14 -61q6 -23 -5.5 -41.5t-33.5 -26.5q-133 -37 -270 -37q-213 0 -324 129q-115 -129 -303 -129q-167 0 -279 98.5t-112 243.5zM287 317q0 -73 54 -125.5t144 -52.5q80 0 131.5 27.5t90.5 79.5q-23 80 -23 166v75h-207 q-96 0 -143 -47t-47 -123zM866 621h437v69q0 100 -61 162.5t-159 62.5t-157.5 -64.5t-59.5 -184.5v-45z" />
<glyph unicode="&#xe7;" horiz-adv-x="964" d="M121 436v185q0 117 32 206t91.5 144t139 82.5t177.5 27.5q114 0 250 -34q49 -12 37 -66l-12 -57q-4 -24 -21.5 -33.5t-40.5 -3.5q-122 28 -205 28q-131 0 -195.5 -73t-64.5 -232v-166q0 -158 64.5 -231.5t195.5 -73.5q77 0 201 27q57 13 66 -33l14 -61q10 -52 -41 -64 q-100 -25 -168 -31v-180q0 -62 -21 -108.5t-57.5 -71.5t-78.5 -37t-89 -12q-63 0 -94 8q-19 3 -28.5 18t-6.5 35l8 58q1 18 15.5 26.5t36.5 5.5q24 -4 57 -4q53 0 76.5 25t23.5 76v164q-169 19 -265.5 133.5t-96.5 322.5z" />
<glyph unicode="&#xe8;" horiz-adv-x="1044" d="M121 412v239q0 203 115 316.5t290 113.5q172 0 290 -110t118 -281v-166q0 -23 -14 -37t-37 -14h-574v-61q0 -138 64 -205.5t182 -67.5q97 0 231 33q25 8 42.5 -0.5t21.5 -30.5l14 -63q12 -52 -41 -68q-133 -37 -268 -37q-196 0 -315 114.5t-119 324.5zM305 1391l27 63 q17 42 63 23l314 -136q43 -21 28 -59l-16 -47q-18 -40 -64 -23l-323 119q-47 17 -29 60zM309 621h436v69q0 100 -60.5 162.5t-158.5 62.5t-157.5 -64.5t-59.5 -184.5v-45z" />
<glyph unicode="&#xe9;" horiz-adv-x="1044" d="M121 412v239q0 203 115 316.5t290 113.5q172 0 290 -110t118 -281v-166q0 -23 -14 -37t-37 -14h-574v-61q0 -138 64 -205.5t182 -67.5q97 0 231 33q25 8 42.5 -0.5t21.5 -30.5l14 -63q12 -52 -41 -68q-133 -37 -268 -37q-196 0 -315 114.5t-119 324.5zM297 1282 q-16 40 31 59l307 134q52 24 70 -25l24 -57q17 -46 -33 -64l-317 -117q-48 -16 -64 23zM309 621h436v69q0 100 -60.5 162.5t-158.5 62.5t-157.5 -64.5t-59.5 -184.5v-45z" />
<glyph unicode="&#xea;" horiz-adv-x="1044" d="M121 412v239q0 203 115 316.5t290 113.5q172 0 290 -110t118 -281v-166q0 -23 -14 -37t-37 -14h-574v-61q0 -138 64 -205.5t182 -67.5q97 0 231 33q25 8 42.5 -0.5t21.5 -30.5l14 -63q12 -52 -41 -68q-133 -37 -268 -37q-196 0 -315 114.5t-119 324.5zM266 1288 q-24 39 13 60l204 122q41 21 76 0l205 -120q40 -22 14 -62l-30 -51q-11 -17 -28 -20.5t-34 8.5l-164 110l-164 -110q-39 -24 -61 12zM309 621h436v69q0 100 -60.5 162.5t-158.5 62.5t-157.5 -64.5t-59.5 -184.5v-45z" />
<glyph unicode="&#xeb;" horiz-adv-x="1044" d="M121 412v239q0 203 115 316.5t290 113.5q172 0 290 -110t118 -281v-166q0 -23 -14 -37t-37 -14h-574v-61q0 -138 64 -205.5t182 -67.5q97 0 231 33q25 8 42.5 -0.5t21.5 -30.5l14 -63q12 -52 -41 -68q-133 -37 -268 -37q-196 0 -315 114.5t-119 324.5zM225 1346 q0 44 32 76t75 32q44 0 76 -32t32 -76q0 -43 -32 -74t-76 -31q-43 0 -75 31t-32 74zM309 621h436v69q0 100 -60.5 162.5t-158.5 62.5t-157.5 -64.5t-59.5 -184.5v-45zM604 1346q0 44 32 76t75 32q44 0 76 -32t32 -76q0 -43 -32 -74t-76 -31q-42 0 -74.5 31.5t-32.5 73.5z " />
<glyph unicode="&#xec;" horiz-adv-x="507" d="M39 1391l27 63q17 42 63 23l313 -136q44 -21 29 -59l-16 -47q-18 -40 -64 -23l-323 119q-47 17 -29 60zM160 51v953q0 23 14 37t37 14h86q23 0 37 -14t14 -37v-953q0 -23 -14 -37t-37 -14h-86q-23 0 -37 14t-14 37z" />
<glyph unicode="&#xed;" horiz-adv-x="507" d="M41 1282q-16 40 31 59l307 134q52 24 70 -25l24 -57q17 -46 -33 -64l-317 -117q-48 -16 -64 23zM160 51v953q0 23 14 37t37 14h86q23 0 37 -14t14 -37v-953q0 -23 -14 -37t-37 -14h-86q-23 0 -37 14t-14 37z" />
<glyph unicode="&#xee;" horiz-adv-x="507" d="M0 1288q-24 40 12 60l205 122q41 21 76 0l205 -120q40 -22 14 -62l-31 -51q-23 -38 -61 -12l-164 110l-164 -110q-39 -24 -61 12zM160 51v953q0 23 14 37t37 14h86q23 0 37 -14t14 -37v-953q0 -23 -14 -37t-37 -14h-86q-23 0 -37 14t-14 37z" />
<glyph unicode="&#xef;" horiz-adv-x="507" d="M-43 1346q0 44 31.5 76t74.5 32q44 0 76.5 -32t32.5 -76q0 -43 -32.5 -74t-76.5 -31q-43 0 -74.5 31t-31.5 74zM160 51v953q0 23 14 37t37 14h86q23 0 37 -14t14 -37v-953q0 -23 -14 -37t-37 -14h-86q-23 0 -37 14t-14 37zM336 1346q0 44 31.5 76t74.5 32q44 0 76.5 -32 t32.5 -76q0 -43 -32.5 -74t-76.5 -31q-42 0 -74 31.5t-32 73.5z" />
<glyph unicode="&#xf0;" horiz-adv-x="1097" d="M121 430v133q0 114 33 203t91.5 143.5t133 82.5t162.5 28q145 0 258 -76v113q0 263 -187 293l-57 -160q-15 -42 -55 -27l-45 15q-40 16 -25 59l41 117q-84 -7 -160 -29q-51 -13 -63 37l-10 47q-4 23 7 40.5t34 25.5q147 39 247 41l49 135q13 43 58 30l45 -16 q37 -12 24 -57l-36 -105q146 -31 228.5 -140.5t82.5 -299.5v-633q0 -220 -120.5 -338.5t-307.5 -118.5t-307.5 118.5t-120.5 338.5zM309 440q0 -157 65.5 -229t174.5 -72q108 0 173.5 72.5t65.5 228.5v336q-48 34 -112.5 56t-126.5 22q-109 0 -174.5 -71t-65.5 -232v-111z " />
<glyph unicode="&#xf1;" horiz-adv-x="1112" d="M150 51v602q0 201 116.5 314.5t290.5 113.5q176 0 291 -113t115 -315v-602q0 -23 -14.5 -37t-37.5 -14h-86q-23 0 -37 14t-14 37v592q0 132 -59 202t-158 70q-100 0 -159.5 -69.5t-59.5 -202.5v-592q0 -23 -14 -37t-37 -14h-86q-23 0 -37 14t-14 37zM281 1382 q11 18 27 34.5t51.5 34t76.5 17.5q44 0 88.5 -24t82.5 -48t67 -24q31 0 63 27q37 30 62 -2l24 -27q27 -27 2 -65q-56 -80 -151 -80q-44 0 -88.5 24t-82.5 48t-67 24q-33 0 -69 -31q-28 -28 -56 4l-22 27q-28 28 -8 61z" />
<glyph unicode="&#xf2;" horiz-adv-x="1097" d="M121 436v182q0 225 118 344t310 119t310 -119.5t118 -343.5v-182q0 -224 -118 -343.5t-310 -119.5t-310 119.5t-118 343.5zM309 446q0 -307 240 -307q239 0 239 307v162q0 307 -239 307q-240 0 -240 -307v-162zM332 1391l26 63q17 42 64 23l313 -136q44 -21 29 -59 l-16 -47q-18 -40 -64 -23l-324 119q-46 17 -28 60z" />
<glyph unicode="&#xf3;" horiz-adv-x="1097" d="M121 436v182q0 225 118 344t310 119t310 -119.5t118 -343.5v-182q0 -224 -118 -343.5t-310 -119.5t-310 119.5t-118 343.5zM309 446q0 -307 240 -307q239 0 239 307v162q0 307 -239 307q-240 0 -240 -307v-162zM332 1282q-16 40 30 59l308 134q51 23 69 -25l25 -57 q17 -46 -33 -64l-317 -117q-48 -16 -64 23z" />
<glyph unicode="&#xf4;" horiz-adv-x="1097" d="M121 436v182q0 225 118 344t310 119t310 -119.5t118 -343.5v-182q0 -224 -118 -343.5t-310 -119.5t-310 119.5t-118 343.5zM293 1288q-24 40 12 60l205 122q41 21 76 0l205 -120q40 -22 14 -62l-31 -51q-23 -38 -61 -12l-164 110l-164 -110q-39 -24 -61 12zM309 446 q0 -307 240 -307q239 0 239 307v162q0 307 -239 307q-240 0 -240 -307v-162z" />
<glyph unicode="&#xf5;" horiz-adv-x="1097" d="M121 436v182q0 225 118 344t310 119t310 -119.5t118 -343.5v-182q0 -224 -118 -343.5t-310 -119.5t-310 119.5t-118 343.5zM274 1382q11 18 27.5 34.5t52 34t76.5 17.5q44 0 88.5 -24t82.5 -48t67 -24q31 0 63 27q37 30 62 -2l24 -27q27 -27 2 -65q-56 -80 -151 -80 q-44 0 -88.5 24t-82.5 48t-67 24q-34 0 -70 -31q-28 -28 -55 4l-22 27q-29 29 -9 61zM309 446q0 -307 240 -307q239 0 239 307v162q0 307 -239 307q-240 0 -240 -307v-162z" />
<glyph unicode="&#xf6;" horiz-adv-x="1097" d="M121 436v182q0 225 118 344t310 119t310 -119.5t118 -343.5v-182q0 -224 -118 -343.5t-310 -119.5t-310 119.5t-118 343.5zM252 1346q0 44 31.5 76t74.5 32q44 0 76.5 -32t32.5 -76q0 -43 -32.5 -74t-76.5 -31q-43 0 -74.5 31t-31.5 74zM309 446q0 -307 240 -307 q239 0 239 307v162q0 307 -239 307q-240 0 -240 -307v-162zM631 1346q0 44 31.5 76t74.5 32q44 0 76.5 -32t32.5 -76q0 -43 -32.5 -74t-76.5 -31q-42 0 -74 31.5t-32 73.5z" />
<glyph unicode="&#xf8;" horiz-adv-x="1099" d="M121 436v182q0 225 118 344t310 119q104 0 178 -32l51 104q7 18 24 23.5t36 -2.5l47 -23q33 -17 14 -59l-55 -115q133 -127 133 -359v-182q0 -224 -118 -343.5t-310 -119.5q-98 0 -180 31l-47 -98q-20 -41 -58 -23l-47 23q-36 14 -18 59l55 113q-133 120 -133 358z M309 446q0 -108 33 -186l311 637q-47 18 -104 18q-240 0 -240 -307v-162zM444 158q49 -19 105 -19q239 0 239 307v162q0 118 -34 187z" />
<glyph unicode="&#xf9;" horiz-adv-x="1112" d="M150 401v603q0 23 14 37t37 14h86q23 0 37 -14t14 -37v-592q0 -133 59 -203t158 -70q100 0 159.5 70t59.5 203v592q0 23 14 37t37 14h86q23 0 37.5 -14t14.5 -37v-603q0 -201 -116.5 -314.5t-291.5 -113.5q-176 0 -290.5 113t-114.5 315zM340 1391l27 63q17 42 63 23 l313 -136q44 -21 29 -59l-16 -47q-18 -40 -64 -23l-323 119q-47 17 -29 60z" />
<glyph unicode="&#xfa;" horiz-adv-x="1112" d="M150 401v603q0 23 14 37t37 14h86q23 0 37 -14t14 -37v-592q0 -133 59 -203t158 -70q100 0 159.5 70t59.5 203v592q0 23 14 37t37 14h86q23 0 37.5 -14t14.5 -37v-603q0 -201 -116.5 -314.5t-291.5 -113.5q-176 0 -290.5 113t-114.5 315zM330 1282q-16 40 30 59l308 134 q51 23 69 -25l25 -57q17 -46 -33 -64l-317 -117q-48 -16 -64 23z" />
<glyph unicode="&#xfb;" horiz-adv-x="1112" d="M150 401v603q0 23 14 37t37 14h86q23 0 37 -14t14 -37v-592q0 -133 59 -203t158 -70q100 0 159.5 70t59.5 203v592q0 23 14 37t37 14h86q23 0 37.5 -14t14.5 -37v-603q0 -201 -116.5 -314.5t-291.5 -113.5q-176 0 -290.5 113t-114.5 315zM301 1288q-24 40 12 60l205 122 q41 21 76 0l205 -120q40 -22 14 -62l-31 -51q-23 -38 -61 -12l-164 110l-164 -110q-39 -24 -61 12z" />
<glyph unicode="&#xfc;" horiz-adv-x="1112" d="M150 401v603q0 23 14 37t37 14h86q23 0 37 -14t14 -37v-592q0 -133 59 -203t158 -70q100 0 159.5 70t59.5 203v592q0 23 14 37t37 14h86q23 0 37.5 -14t14.5 -37v-603q0 -201 -116.5 -314.5t-291.5 -113.5q-176 0 -290.5 113t-114.5 315zM258 1346q0 44 32 76t75 32 q44 0 76 -32t32 -76q0 -43 -32 -74t-76 -31q-43 0 -75 31t-32 74zM637 1346q0 44 31.5 76t74.5 32q44 0 76.5 -32t32.5 -76q0 -43 -32.5 -74t-76.5 -31q-42 0 -74 31.5t-32 73.5z" />
<glyph unicode="&#xfd;" horiz-adv-x="1001" d="M70 1001q-3 24 8.5 39t34.5 15h88q49 0 55 -49l88 -619q14 -107 59 -163t132 -56h104l104 831q3 26 19 41t39 15h86q49 0 43 -54l-178 -1382q-6 -51 -56 -51h-86q-49 0 -43 51l49 381h-86q-321 0 -372 369zM281 1282q-16 40 30 59l307 134q52 24 70 -25l25 -57 q17 -46 -33 -64l-318 -117q-47 -16 -63 23z" />
<glyph unicode="&#xfe;" horiz-adv-x="1116" d="M160 -379v1827q0 23 14 37t37 14h86q23 0 37 -14t14 -37v-438q95 71 230 71q176 0 295.5 -117.5t119.5 -322.5v-225q0 -89 -21.5 -162.5t-59 -124.5t-88.5 -87t-110 -52.5t-124 -16.5q-121 0 -242 74v-426q0 -23 -14 -37t-37 -14h-86q-23 0 -37 14t-14 37zM348 211 q124 -72 227 -72t167.5 68.5t64.5 218.5v205q0 139 -64.5 211.5t-164.5 72.5t-165 -68.5t-65 -197.5v-438z" />
<glyph unicode="&#xff;" horiz-adv-x="1001" d="M70 1001q-3 24 8.5 39t34.5 15h88q49 0 55 -49l88 -619q14 -107 59 -163t132 -56h104l104 831q3 26 19 41t39 15h86q49 0 43 -54l-178 -1382q-6 -51 -56 -51h-86q-49 0 -43 51l49 381h-86q-321 0 -372 369zM207 1346q0 44 31.5 76t74.5 32q44 0 76.5 -32t32.5 -76 q0 -43 -32.5 -74t-76.5 -31q-43 0 -74.5 31t-31.5 74zM586 1346q0 44 31.5 76t74.5 32q44 0 76.5 -32t32.5 -76q0 -43 -32.5 -74t-76.5 -31q-42 0 -74 31.5t-32 73.5z" />
<glyph unicode="&#x152;" horiz-adv-x="1830" d="M131 530v322q0 136 40.5 244t111 176t162.5 103.5t200 35.5q85 0 174 -27h811q23 0 37 -14t14 -37v-69q0 -23 -14 -37.5t-37 -14.5h-577q106 -141 106 -360v-72h387q50 0 47 -49l-4 -67q-1 -23 -16.5 -36.5t-38.5 -13.5h-375v-84q0 -216 -104 -358h594q23 0 37 -14 t14 -37v-70q0 -23 -14 -37t-37 -14h-828q-93 -27 -176 -27q-108 0 -200 35t-163 102.5t-111 175t-40 244.5zM326 541q0 -199 86.5 -297.5t232.5 -98.5q147 0 234.5 98.5t87.5 297.5v299q0 201 -87.5 300t-234.5 99t-233 -99t-86 -300v-299z" />
<glyph unicode="&#x153;" horiz-adv-x="1712" d="M121 436v182q0 225 118 344t310 119q217 0 330 -149q53 73 135 111t180 38q172 0 290 -110t118 -281v-166q0 -23 -14.5 -37t-37.5 -14h-573v-61q0 -138 64 -205.5t182 -67.5q97 0 231 33q25 8 42.5 -0.5t21.5 -30.5l14 -63q12 -52 -41 -68q-133 -37 -268 -37 q-228 0 -344 152q-108 -152 -330 -152q-192 0 -310 119.5t-118 343.5zM309 446q0 -307 240 -307q239 0 239 307v181q-6 288 -239 288q-240 0 -240 -307v-162zM977 621h436v69q0 100 -60.5 162.5t-158.5 62.5t-157.5 -64.5t-59.5 -184.5v-45z" />
<glyph unicode="&#x178;" horiz-adv-x="1148" d="M77.5 1367q9.5 17 33.5 17h98q49 0 70 -51l294 -606l297 608q22 49 70 49h98q25 0 34 -16t-3 -41l-397 -797v-479q0 -23 -14 -37t-37 -14h-93q-23 0 -37 14t-14 37v479l-397 797q-12 23 -2.5 40zM276 1645q0 44 32 76t75 32q44 0 76.5 -32t32.5 -76q0 -43 -32.5 -74 t-76.5 -31q-43 0 -75 31t-32 74zM655 1645q0 44 32 76t75 32q44 0 76 -32t32 -76q0 -43 -32 -74t-76 -31q-42 0 -74.5 31.5t-32.5 73.5z" />
<glyph unicode="&#x2c6;" horiz-adv-x="956" d="M223 1288q-24 39 13 60l204 122q41 21 76 0l205 -120q40 -22 14 -62l-30 -51q-11 -17 -28 -20.5t-34 8.5l-164 110l-164 -110q-39 -24 -61 12z" />
<glyph unicode="&#x2dc;" horiz-adv-x="919" d="M186 1382q11 18 27.5 34.5t52 34t76.5 17.5q44 0 88.5 -24t82.5 -48t67 -24q31 0 63 27q37 30 62 -2l24 -27q27 -27 2 -65q-56 -80 -151 -80q-44 0 -88.5 24t-82.5 48t-67 24q-34 0 -70 -31q-28 -28 -55 4l-22 27q-29 29 -9 61z" />
<glyph unicode="&#x2000;" horiz-adv-x="934" />
<glyph unicode="&#x2001;" horiz-adv-x="1868" />
<glyph unicode="&#x2002;" horiz-adv-x="934" />
<glyph unicode="&#x2003;" horiz-adv-x="1868" />
<glyph unicode="&#x2004;" horiz-adv-x="622" />
<glyph unicode="&#x2005;" horiz-adv-x="467" />
<glyph unicode="&#x2006;" horiz-adv-x="311" />
<glyph unicode="&#x2007;" horiz-adv-x="311" />
<glyph unicode="&#x2008;" horiz-adv-x="233" />
<glyph unicode="&#x2009;" horiz-adv-x="373" />
<glyph unicode="&#x200a;" horiz-adv-x="103" />
<glyph unicode="&#x2010;" horiz-adv-x="1003" d="M170 535v61q0 23 14 37t37 14h559q23 0 37 -14t14 -37v-61q0 -23 -14 -37.5t-37 -14.5h-559q-23 0 -37 14.5t-14 37.5z" />
<glyph unicode="&#x2011;" horiz-adv-x="1003" d="M170 535v61q0 23 14 37t37 14h559q23 0 37 -14t14 -37v-61q0 -23 -14 -37.5t-37 -14.5h-559q-23 0 -37 14.5t-14 37.5z" />
<glyph unicode="&#x2012;" horiz-adv-x="1003" d="M170 535v61q0 23 14 37t37 14h559q23 0 37 -14t14 -37v-61q0 -23 -14 -37.5t-37 -14.5h-559q-23 0 -37 14.5t-14 37.5z" />
<glyph unicode="&#x2013;" horiz-adv-x="1024" d="M0 535v61q0 23 14 37t37 14h922q23 0 37 -14t14 -37v-61q0 -23 -14 -37.5t-37 -14.5h-922q-23 0 -37 14.5t-14 37.5z" />
<glyph unicode="&#x2014;" horiz-adv-x="2048" d="M0 535v61q0 23 14 37t37 14h1946q23 0 37 -14t14 -37v-61q0 -23 -14 -37.5t-37 -14.5h-1946q-23 0 -37 14.5t-14 37.5z" />
<glyph unicode="&#x2018;" horiz-adv-x="495" d="M152 1094l106 370q14 41 55 35l45 -6q42 -7 33 -53l-63 -353q-9 -47 -54 -47h-88q-21 0 -30.5 15t-3.5 39z" />
<glyph unicode="&#x2019;" horiz-adv-x="497" d="M150 1102l63 350q9 47 53 47h86q22 0 32 -14t3 -37l-106 -371q-5 -19 -20 -29.5t-36 -7.5l-43 9q-41 6 -32 53z" />
<glyph unicode="&#x201a;" horiz-adv-x="524" d="M127 -193l63 353q9 45 54 45h88q22 0 31.5 -14t3.5 -37l-107 -371q-14 -43 -55 -37l-45 8q-41 7 -33 53z" />
<glyph unicode="&#x201c;" horiz-adv-x="800" d="M152 1094l106 370q5 18 19 28t34 7l45 -6q42 -6 33 -53l-63 -353q-9 -47 -54 -47h-86q-23 0 -32.5 15t-1.5 39zM453 1094l106 370q14 41 55 35l45 -6q42 -7 33 -53l-63 -353q-9 -47 -54 -47h-88q-21 0 -30.5 15t-3.5 39z" />
<glyph unicode="&#x201d;" horiz-adv-x="800" d="M143 1102l64 350q9 47 53 47h86q23 0 32.5 -14t2.5 -37l-107 -371q-5 -19 -19 -29.5t-34 -7.5l-45 9q-42 6 -33 53zM444 1102l66 350q6 47 51 47h88q22 0 31.5 -14t3.5 -37l-106 -371q-5 -19 -20 -29.5t-34 -7.5l-47 9q-39 6 -33 53z" />
<glyph unicode="&#x201e;" horiz-adv-x="819" d="M127 -193l63 353q9 45 54 45h88q22 0 31.5 -14t3.5 -37l-107 -371q-14 -43 -55 -37l-45 8q-41 7 -33 53zM424 -193l63 353q9 45 54 45h86q23 0 32.5 -14t2.5 -37l-107 -371q-5 -19 -19 -29.5t-34 -7.5l-45 8q-42 6 -33 53z" />
<glyph unicode="&#x2022;" horiz-adv-x="989" d="M272 501.5q-29 92.5 15 178.5t135.5 115.5t177.5 -13.5q86 -44 116 -136.5t-14 -178.5q-43 -86 -136 -115.5t-179 13.5q-86 44 -115 136.5z" />
<glyph unicode="&#x2026;" horiz-adv-x="1652" d="M139 94q0 50 35.5 83.5t85.5 33.5q49 0 85 -33.5t36 -83.5q0 -49 -36.5 -85t-84.5 -36q-50 0 -85.5 35.5t-35.5 85.5zM705 94q0 50 36 83.5t84 33.5q50 0 85.5 -33.5t35.5 -83.5t-36 -85.5t-85 -35.5q-48 0 -84 36t-36 85zM1274 94q0 50 35.5 83.5t85.5 33.5 q48 0 83 -33.5t35 -83.5q0 -49 -35.5 -85t-82.5 -36q-51 0 -86 35.5t-35 85.5z" />
<glyph unicode="&#x202f;" horiz-adv-x="373" />
<glyph unicode="&#x2039;" horiz-adv-x="675" d="M154 535q-26 37 0 75l233 293q30 34 66 6l59 -45q15 -12 16.5 -30t-10.5 -35l-182 -226l182 -227q28 -40 -6 -63l-59 -45q-17 -14 -35.5 -11.5t-30.5 19.5z" />
<glyph unicode="&#x203a;" horiz-adv-x="679" d="M147 834.5q2 17.5 17 29.5l59 45q15 13 33.5 11t30.5 -17l233 -293q29 -38 0 -75l-231 -289q-13 -17 -32 -19.5t-34 11.5l-61 45q-33 26 -4 63l182 227l-182 226q-13 18 -11 35.5z" />
<glyph unicode="&#x205f;" horiz-adv-x="467" />
<glyph unicode="&#x20ac;" horiz-adv-x="1083" d="M76 508v55q0 39 43 39h119v180h-119q-43 0 -43 41v54q0 41 43 41h119q3 229 138 361t349 132q127 0 248 -27q48 -9 39 -61l-13 -63q-4 -25 -21 -35.5t-38 -5.5q-125 22 -213 22q-134 0 -214 -86.5t-83 -236.5h373q41 0 35 -39l-13 -60q-6 -37 -49 -37h-346v-180h315 q41 0 35 -37l-12 -59q-6 -39 -49 -39h-289q3 -150 83 -237t214 -87q100 0 213 23q23 6 39 -4t20 -35l13 -61q5 -25 -6.5 -43.5t-36.5 -24.5q-137 -25 -244 -25q-214 0 -349 132t-138 362h-119q-43 0 -43 41z" />
<glyph unicode="&#x2122;" horiz-adv-x="1574" d="M170 1303v38q0 41 43 41h408q42 0 36 -41l-4 -36q-1 -20 -14 -31.5t-33 -11.5h-121v-451q0 -43 -43 -43h-53q-43 0 -43 43v451h-133q-43 0 -43 41zM705 813l65 522q3 22 16 34.5t33 12.5h66q39 0 51 -39l115 -313l116 313q12 39 52 39h65q43 0 49 -47l66 -522 q3 -20 -7 -32.5t-30 -12.5h-51q-20 0 -31.5 12t-13.5 33l-39 330l-97 -250q-12 -39 -51 -39h-55q-39 0 -51 39l-96 250l-39 -328q-3 -47 -47 -47h-50q-20 0 -29.5 12t-6.5 33z" />
<glyph unicode="&#xe000;" horiz-adv-x="1054" d="M0 0v1055h1055v-1055h-1055z" />
</font>
</defs>
</svg>
