<?xml version="1.0" standalone="no"?>
<!DOCTYPE svg PUBLIC "-//W3C//DTD SVG 1.1//EN" "http://www.w3.org/Graphics/SVG/1.1/DTD/svg11.dtd" >
<svg xmlns="http://www.w3.org/2000/svg">
<metadata></metadata>
<defs>
<font id="mic_32_new_roundedmedium" horiz-adv-x="1302" >
<font-face units-per-em="2048" ascent="1556" descent="-492" />
<missing-glyph horiz-adv-x="471" />
<glyph unicode="&#xfb01;" horiz-adv-x="1228" d="M41 954v52q0 26 16.5 41.5t42.5 15.5h82v135q0 78 30 142t80 104t111.5 61t128.5 21q56 0 123 -13q68 -17 52 -83l-15 -66q-16 -64 -84 -51q-24 6 -61 6q-59 0 -93 -32t-34 -89v-135h182q29 0 42 -19t5 -47l-12 -43q-8 -32 -23 -44.5t-47 -12.5h-147v-825q0 -32 -20 -52 t-52 -20h-94q-32 0 -52 20t-20 52v825h-82q-26 0 -42.5 15.5t-16.5 41.5zM817 1362q0 59 43 98t101 39t100.5 -39t42.5 -98q0 -57 -42 -98t-101 -41t-101.5 41t-42.5 98zM842 72v919q0 32 19.5 52t51.5 20h97q32 0 51.5 -20t19.5 -52v-919q0 -32 -19.5 -52t-51.5 -20h-97 q-32 0 -51.5 20t-19.5 52z" />
<glyph unicode="&#xfb02;" horiz-adv-x="1228" d="M41 954v52q0 26 16.5 41.5t42.5 15.5h82v135q0 78 30 142t80 104t111.5 61t128.5 21q56 0 123 -13q68 -17 52 -83l-15 -66q-16 -64 -84 -51q-24 6 -61 6q-59 0 -93 -32t-34 -89v-135h182q29 0 42 -19t5 -47l-12 -43q-8 -32 -23 -44.5t-47 -12.5h-147v-825q0 -32 -20 -52 t-52 -20h-94q-32 0 -52 20t-20 52v825h-82q-26 0 -42.5 15.5t-16.5 41.5zM842 72v1341q0 33 17 55.5t50 26.5l90 18q37 5 59.5 -13.5t22.5 -53.5v-1374q0 -32 -19.5 -52t-51.5 -20h-97q-32 0 -51.5 20t-19.5 52z" />
<glyph unicode="&#xfb03;" horiz-adv-x="1923" d="M41 954v52q0 26 16.5 41.5t42.5 15.5h82v135q0 78 30 142t80 104t111.5 61t128.5 21q56 0 123 -13q68 -17 52 -83l-15 -66q-16 -64 -84 -51q-24 6 -61 6q-59 0 -93 -32t-34 -89v-135h457v135q0 78 30 142t80 104t111.5 61t128.5 21q56 0 123 -13q67 -17 51 -83l-15 -66 q-16 -64 -83 -51q-24 6 -62 6q-59 0 -93 -32t-34 -89v-135h182q29 0 42 -19t5 -47l-12 -43q-8 -32 -22.5 -44.5t-46.5 -12.5h-148v-825q0 -32 -20 -52t-52 -20h-94q-32 0 -51.5 20t-19.5 52v825h-457v-825q0 -32 -20 -52t-52 -20h-94q-32 0 -52 20t-20 52v825h-82 q-26 0 -42.5 15.5t-16.5 41.5zM1511 1362q0 59 43 98t101 39t100.5 -39t42.5 -98q0 -57 -42 -98t-101 -41t-101.5 41t-42.5 98zM1536 72v919q0 32 20 52t52 20h96q32 0 52 -20t20 -52v-919q0 -32 -20 -52t-52 -20h-96q-32 0 -52 20t-20 52z" />
<glyph unicode="&#xfb04;" horiz-adv-x="1923" d="M41 954v52q0 26 16.5 41.5t42.5 15.5h82v135q0 78 30 142t80 104t111.5 61t128.5 21q56 0 123 -13q68 -17 52 -83l-15 -66q-16 -64 -84 -51q-24 6 -61 6q-59 0 -93 -32t-34 -89v-135h457v135q0 78 30 142t80 104t111.5 61t128.5 21q56 0 123 -13q67 -17 51 -83l-15 -66 q-16 -64 -83 -51q-24 6 -62 6q-59 0 -93 -32t-34 -89v-135h182q29 0 42 -19t5 -47l-12 -43q-8 -32 -22.5 -44.5t-46.5 -12.5h-148v-825q0 -32 -20 -52t-52 -20h-94q-32 0 -51.5 20t-19.5 52v825h-457v-825q0 -32 -20 -52t-52 -20h-94q-32 0 -52 20t-20 52v825h-82 q-26 0 -42.5 15.5t-16.5 41.5zM1536 72v1339q0 33 17.5 55.5t50.5 28.5l90 16q37 6 59.5 -12t22.5 -53v-1374q0 -32 -20 -52t-52 -20h-96q-32 0 -52 20t-20 52z" />
<glyph horiz-adv-x="0" />
<glyph unicode="&#xd;" horiz-adv-x="2048" />
<glyph unicode=" "  horiz-adv-x="471" />
<glyph unicode="&#x09;" horiz-adv-x="471" />
<glyph unicode="&#xa0;" horiz-adv-x="471" />
<glyph unicode="!" horiz-adv-x="540" d="M125 119q0 61 43 102t102 41q60 0 103 -41t43 -102q0 -60 -43 -103t-103 -43q-59 0 -102 43t-43 103zM145 1292q0 70 70 82l111 19q33 6 52 -10.5t19 -49.5l-14 -819q0 -32 -20 -53t-52 -21h-80q-32 0 -52.5 20t-20.5 52z" />
<glyph unicode="&#x22;" horiz-adv-x="811" d="M141 1427q-2 32 17 52t51 20h63q33 0 52 -18.5t18 -50.5l-14 -357q-2 -33 -21 -53.5t-51 -20.5h-29q-32 0 -50.5 20.5t-20.5 53.5zM471 1427q-2 32 17 52t51 20h63q32 0 50.5 -18.5t17.5 -50.5l-13 -357q-2 -33 -21.5 -53.5t-51.5 -20.5h-27q-32 0 -52 21t-20 53z" />
<glyph unicode="#" horiz-adv-x="1175" d="M78 459v65q0 32 20 52t52 20h94l24 262h-71q-32 0 -52 20t-20 52v65q0 32 20 52t52 20h94l31 313q5 33 25 52.5t52 19.5h68q33 0 51 -20t14 -52l-30 -313h241l31 313q5 33 25.5 52.5t52.5 19.5h68q33 0 51 -20t14 -52l-31 -313h72q32 0 52 -20t20 -52v-65q0 -32 -20 -52 t-52 -20h-94l-25 -262h70q32 0 52 -20t20 -52v-65q0 -32 -20 -52t-52 -20h-92l-33 -315q-3 -32 -24.5 -52t-53.5 -20h-67q-32 0 -50.5 20t-15.5 52l33 315h-242l-33 -315q-3 -32 -24 -52t-53 -20h-68q-32 0 -50.5 20t-15.5 52l33 315h-71q-32 0 -52 20t-20 52zM455 596h241 l25 262h-242z" />
<glyph unicode="$" horiz-adv-x="1046" d="M78 117l16 76q7 31 31.5 43.5t54.5 3.5q174 -54 316 -54q91 0 148.5 50.5t57.5 136.5q0 59 -33.5 101.5t-87 69.5t-118 51.5t-129 55t-118 71t-87 110t-33.5 161.5q0 146 95 244t251 123v166q0 32 20 51.5t52 19.5h37q32 0 52 -19.5t20 -51.5v-160q107 -11 235 -53 q28 -9 39.5 -34.5t1.5 -55.5l-18 -64q-10 -30 -36 -42t-59 -1q-150 41 -233 41q-207 0 -207 -160q0 -54 33.5 -93.5t87 -64.5t118 -48t129 -54.5t118 -74t87 -115.5t33.5 -170q0 -160 -95.5 -261t-248.5 -130v-168q0 -32 -19.5 -52t-51.5 -20h-39q-32 0 -52 20t-20 52v157 q-151 9 -299 58q-62 18 -49 84z" />
<glyph unicode="%" horiz-adv-x="1820" d="M117 944v137q0 149 90.5 239.5t230.5 90.5t231 -90.5t91 -239.5v-137q0 -150 -90.5 -239t-231.5 -89t-231 89t-90 239zM299 948q0 -170 139 -170q67 0 105.5 41.5t38.5 128.5v129q0 86 -39 127t-105 41q-65 0 -102 -41t-37 -127v-129zM517.5 21.5q-11.5 21.5 2.5 52.5 l590 1249q28 61 90 61h49q33 0 45 -20t-2 -49l-592 -1262q-15 -30 -34 -41.5t-52 -11.5h-53q-32 0 -43.5 21.5zM1061 303v137q0 150 89.5 240t229.5 90q141 0 232.5 -90t91.5 -240v-137q0 -148 -92 -239t-232 -91t-229.5 90.5t-89.5 239.5zM1241 307q0 -86 37 -127t102 -41 q66 0 105 41t39 127v129q0 86 -39 128t-105 42q-63 0 -101 -42t-38 -128v-129z" />
<glyph unicode="&#x26;" horiz-adv-x="1167" d="M104 389q0 103 44.5 189t127.5 141q-153 103 -153 297q0 173 123.5 284t324.5 111q117 0 244 -43q32 -10 44 -33.5t1 -54.5l-22 -66q-24 -63 -95 -40q-80 26 -163 26q-105 0 -158 -51t-53 -133q0 -84 49.5 -140.5t146.5 -56.5h41q31 0 47.5 -19t16.5 -52v-54 q0 -33 -16.5 -52t-47.5 -19h-49q-96 0 -152.5 -69.5t-56.5 -164.5q0 -91 58 -148t157 -57q101 0 158 57t57 148v359q0 32 20 51.5t52 19.5h192q32 0 52 -19.5t20 -51.5v-54q0 -33 -17.5 -52t-49.5 -19h-39v-234q0 -179 -120 -297.5t-325 -118.5q-207 0 -333 119t-126 297z " />
<glyph unicode="'" horiz-adv-x="483" d="M141 1427q-2 32 17 52t51 20h63q33 0 52 -18.5t18 -50.5l-14 -357q-2 -33 -21 -53.5t-51 -20.5h-29q-32 0 -50.5 20.5t-20.5 53.5z" />
<glyph unicode="(" horiz-adv-x="671" d="M158 -31v1231q0 211 112.5 318t317.5 116q31 3 41 -14.5t10 -54.5v-64q0 -35 -10.5 -52.5t-40.5 -21.5q-101 -10 -150 -61t-49 -172v-1219q0 -120 49.5 -171t149.5 -62q30 -4 40.5 -21.5t10.5 -52.5v-63q0 -36 -11.5 -53.5t-41.5 -16.5q-205 9 -316.5 117t-111.5 317z " />
<glyph unicode=")" horiz-adv-x="669" d="M31 -332q0 35 11 52.5t42 21.5q100 11 148.5 62t48.5 171v1219q0 121 -48.5 172t-148.5 61q-31 4 -42 21.5t-11 52.5v64q0 36 10.5 54t40.5 15q206 -9 318 -116t112 -318v-1231q0 -209 -110.5 -317t-315.5 -117q-55 -3 -55 70v63z" />
<glyph unicode="*" horiz-adv-x="1015" d="M151.5 1229.5q-7.5 26.5 8.5 54.5l26 45q17 28 44 34t55 -11l135 -88l-6 163q-2 32 16.5 52t50.5 20h54q32 0 51 -20t16 -52l-8 -163l137 88q28 17 53.5 11t42.5 -34l27 -45q17 -28 9.5 -54.5t-36.5 -39.5l-145 -78l145 -74q29 -15 36.5 -40.5t-9.5 -53.5l-27 -47 q-17 -28 -42.5 -34t-53.5 11l-137 87l8 -162q3 -32 -16 -52t-51 -20h-54q-32 0 -50.5 20t-16.5 52l6 162l-135 -87q-28 -17 -55 -11t-42 34l-26 47q-17 28 -10 53.5t36 40.5l146 74l-146 78q-29 13 -36.5 39.5z" />
<glyph unicode="+" horiz-adv-x="1163" d="M125 539v59q0 32 20 52t52 20h284v282q0 32 20 52t52 20h59q32 0 52 -20t20 -52v-282h283q32 0 51.5 -20t19.5 -52v-59q0 -32 -19.5 -52t-51.5 -20h-283v-283q0 -32 -20 -51.5t-52 -19.5h-59q-32 0 -52 19.5t-20 51.5v283h-284q-32 0 -52 20t-20 52z" />
<glyph unicode="," horiz-adv-x="538" d="M106 -199l70 392q12 65 84 65h80q34 0 49 -23.5t4 -58.5l-112 -401q-10 -31 -32 -47.5t-54 -10.5l-43 9q-58 9 -46 75z" />
<glyph unicode="-" horiz-adv-x="1011" d="M158 528v60q0 32 19.5 51.5t51.5 19.5h555q32 0 52 -19.5t20 -51.5v-60q0 -32 -20 -51.5t-52 -19.5h-555q-32 0 -51.5 19.5t-19.5 51.5z" />
<glyph unicode="." horiz-adv-x="538" d="M125 121q0 61 43 102t102 41q58 0 101 -41.5t43 -101.5t-43 -104t-101 -44q-60 0 -102.5 44t-42.5 104z" />
<glyph unicode="/" horiz-adv-x="790" d="M115 -59l350 1489q6 32 28.5 50.5t59.5 18.5h68q31 0 46 -22t9 -54l-350 -1482q-17 -70 -88 -70h-68q-32 0 -47.5 19.5t-7.5 50.5z" />
<glyph unicode="0" horiz-adv-x="1212" d="M113 537v313q0 142 38.5 251t106.5 176t156 100.5t192 33.5t191.5 -33.5t156 -100.5t107.5 -176t39 -251v-313q0 -142 -39 -251.5t-107.5 -177t-156.5 -101.5t-191 -34t-191 34t-156.5 101.5t-107 177t-38.5 251.5zM352 537q0 -186 68 -271.5t186 -85.5t186 85.5 t68 271.5v313q0 185 -68.5 269.5t-185.5 84.5t-185.5 -84.5t-68.5 -269.5v-313z" />
<glyph unicode="1" horiz-adv-x="808" d="M90 1186v65q0 33 17.5 55.5t50.5 26.5l407 64q34 6 56 -11t22 -49v-1265q0 -32 -20 -52t-52 -20h-94q-32 0 -51.5 20t-19.5 52v1095l-240 -41q-34 -6 -55 11t-21 49z" />
<glyph unicode="2" horiz-adv-x="1075" d="M90 72v73q0 84 21.5 157.5t57.5 128.5t83 104t99 88t103.5 74.5t98.5 70t83 69.5t57.5 76.5t21.5 87.5q0 89 -54.5 146t-156.5 57q-114 0 -244 -53q-25 -12 -53 -6t-39 33l-29 63q-13 31 -2 57.5t41 38.5q160 74 334 74q196 0 322.5 -112.5t126.5 -294.5 q0 -80 -34 -151.5t-88 -126t-119 -105.5t-130.5 -98.5t-119.5 -95t-88 -106t-34 -120.5h539q32 0 51.5 -20t19.5 -52v-57q0 -32 -19.5 -52t-51.5 -20h-725q-32 0 -52 20t-20 52z" />
<glyph unicode="3" horiz-adv-x="1044" d="M74 111l18 61q19 65 90 43q144 -35 238 -35q123 0 201.5 66t78.5 178q0 95 -59 154t-188 59h-93q-70 0 -81 61l-15 70q-7 35 1.5 57t35.5 47l303 306h-442q-67 0 -76 63l-10 72q-5 31 11 51t48 20h656q33 0 54.5 -17t24.5 -48l7 -70q6 -65 -39 -110l-312 -312 q174 -3 296 -114.5t122 -288.5q0 -103 -42.5 -189.5t-114 -143t-165.5 -87.5t-198 -31q-138 0 -303 47q-32 10 -45 35t-2 56z" />
<glyph unicode="4" horiz-adv-x="1144" d="M100 426q-8 57 11 115l237 780q18 63 86 63h78q34 0 49.5 -23t5.5 -61l-237 -806h313v364q0 70 66 82l90 14q36 6 55.5 -10t19.5 -49v-401h123q32 0 52 -20t20 -52v-60q0 -32 -20 -51.5t-52 -19.5h-123v-217q0 -33 -17.5 -54t-49.5 -24l-96 -8q-32 -3 -50 14.5t-18 50.5 v238h-448q-32 0 -56 21t-28 55z" />
<glyph unicode="5" horiz-adv-x="1058" d="M78 106l14 66q7 30 32 43t58 4q153 -39 267 -39q109 0 189.5 69.5t80.5 199.5q0 229 -289 229h-219q-32 0 -51.5 20t-18.5 52l21 565q1 32 21.5 50.5t52.5 18.5h616q32 0 47 -18.5t8 -50.5l-16 -76q-11 -61 -76 -61h-436l-12 -304h88q238 0 374 -106t136 -317 q0 -94 -30 -174t-80 -135t-115.5 -94t-137.5 -57t-145 -18q-159 0 -328 47q-31 8 -44.5 30.5t-6.5 55.5z" />
<glyph unicode="6" horiz-adv-x="1150" d="M113 438v457q0 107 32 199.5t92.5 163.5t155.5 112t213 41t262 -37q32 -9 44 -34.5t3 -59.5l-14 -57q-7 -31 -33.5 -43.5t-58.5 -3.5q-110 28 -203 28q-115 0 -184.5 -80t-69.5 -206v-60q120 82 260 82q198 0 322.5 -129t124.5 -356q0 -150 -66 -261.5t-172.5 -166 t-236.5 -54.5q-129 0 -234.5 53t-171 160.5t-65.5 251.5zM352 436q0 -108 60.5 -182t169.5 -74q111 0 171 78t60 197q0 136 -57 216.5t-174 80.5q-127 0 -230 -82v-234z" />
<glyph unicode="7" horiz-adv-x="1032" d="M47 1319q-3 34 14.5 49.5t51.5 15.5h782q33 0 53.5 -19.5t20.5 -51.5v-64q0 -61 -47 -123q-78 -101 -131.5 -196.5t-97.5 -220.5t-66.5 -283t-24.5 -356q0 -32 -20.5 -51t-53.5 -19h-104q-32 0 -51 21.5t-19 54.5q10 356 95 618.5t256 483.5h-574q-70 0 -76 65z" />
<glyph unicode="8" horiz-adv-x="1175" d="M102 365q0 65 19 119t56 95.5t78 71.5t97 60q-97 61 -152 138.5t-55 190.5q0 154 120 262.5t321 108.5q116 0 217.5 -45t165 -131t63.5 -195q0 -104 -55.5 -174.5t-157.5 -130.5q56 -30 98 -62.5t78.5 -76.5t56 -102.5t19.5 -128.5q0 -91 -43.5 -167t-113.5 -124 t-155.5 -74.5t-172.5 -26.5q-89 0 -174.5 26.5t-155 74.5t-112 124t-42.5 167zM348 367q0 -81 68.5 -134t169.5 -53q99 0 170 53t71 134q0 35 -15.5 66t-36.5 53t-60.5 46t-70.5 39t-83 37q-67 -33 -109.5 -63t-73 -76t-30.5 -102zM389 1042q0 -71 55.5 -116.5t163.5 -91.5 q87 44 133.5 91.5t46.5 116.5q0 75 -56 118.5t-146 43.5q-87 0 -142 -44t-55 -118z" />
<glyph unicode="9" horiz-adv-x="1140" d="M82 930q0 113 38 205.5t103.5 152t151 91.5t182.5 32q129 0 234.5 -53t171 -160.5t65.5 -251.5v-457q0 -107 -32 -199.5t-92.5 -163.5t-155.5 -112t-213 -41q-124 0 -259 37q-32 8 -47 32t-6 58l19 68q7 29 30.5 40t55.5 3q109 -31 207 -31q116 0 184.5 80t68.5 207v59 q-120 -82 -260 -82q-196 0 -321 129.5t-125 356.5zM328 930q0 -136 57 -216.5t174 -80.5q126 0 229 82v233q0 108 -60 182t-169 74q-111 0 -171 -77.5t-60 -196.5z" />
<glyph unicode=":" horiz-adv-x="538" d="M125 121q0 61 42 102t103 41q58 0 101 -41.5t43 -101.5t-43 -104t-101 -44q-60 0 -102.5 44t-42.5 104zM125 780q0 61 42.5 102.5t102.5 41.5q58 0 101 -42t43 -102t-42.5 -103.5t-101.5 -43.5q-60 0 -102.5 43.5t-42.5 103.5z" />
<glyph unicode=";" horiz-adv-x="552" d="M106 -199l70 392q12 65 84 65h80q34 0 49 -23.5t4 -58.5l-112 -401q-10 -31 -32 -47.5t-54 -10.5l-43 9q-58 9 -46 75zM133 780q0 61 43.5 102.5t102.5 41.5t102 -41.5t43 -102.5q0 -60 -43 -103.5t-102 -43.5q-60 0 -103 43.5t-43 103.5z" />
<glyph unicode="&#x3c;" horiz-adv-x="1081" d="M159 574.5q0 28.5 25 50.5l584 487q25 20 54.5 18.5t49.5 -24.5l39 -49q21 -26 16.5 -52t-28.5 -49l-457 -383l461 -385q23 -20 25.5 -46.5t-17.5 -49.5l-43 -53q-44 -50 -94 -6l-590 491q-25 22 -25 50.5z" />
<glyph unicode="=" horiz-adv-x="1161" d="M125 330v57q0 32 20 52t52 20h768q32 0 51.5 -20t19.5 -52v-57q0 -32 -19.5 -52t-51.5 -20h-768q-32 0 -52 20t-20 52zM125 756v59q0 32 20 52t52 20h768q32 0 51.5 -20t19.5 -52v-59q0 -32 -19.5 -52t-51.5 -20h-768q-32 0 -52 20t-20 52z" />
<glyph unicode="&#x3e;" horiz-adv-x="1081" d="M152.5 141.5q2.5 26.5 27.5 46.5l459 385l-455 383q-25 22 -29.5 49t15.5 52l39 49q22 23 50.5 24.5t53.5 -18.5l584 -487q25 -22 25 -50.5t-25 -50.5l-590 -491q-24 -21 -48.5 -19.5t-45.5 25.5l-43 53q-20 23 -17.5 49.5z" />
<glyph unicode="?" horiz-adv-x="917" d="M117 1287q8 26 37 44q126 80 272 80q104 0 190.5 -39.5t141.5 -121t55 -189.5q0 -61 -26.5 -120.5t-64 -107t-75 -92t-64 -92.5t-26.5 -92v-76q0 -32 -21 -49t-55 -12l-88 18q-63 9 -63 74v49q0 59 26 118t63 107t74 93.5t63 93t26 88.5q0 66 -43 105.5t-115 39.5 q-83 0 -168 -47q-69 -37 -100 19l-31 53q-16 30 -8 56zM297 119q0 62 43.5 102.5t103.5 40.5q58 0 101 -41.5t43 -101.5t-42.5 -103t-101.5 -43q-60 0 -103.5 43t-43.5 103z" />
<glyph unicode="@" horiz-adv-x="1812" d="M123 385q0 186 61 353.5t170.5 295.5t275.5 203.5t363 75.5q207 0 366 -96.5t244 -266t85 -385.5q0 -71 -7 -129h-430l-16 -133q-17 -130 -125.5 -216.5t-255.5 -86.5q-139 0 -227 76t-88 196q0 148 105.5 228t273.5 80h145l6 38q8 66 -22.5 113t-102.5 47 q-75 0 -178 -22q-31 -8 -54.5 3t-27.5 42l-6 37q-9 65 53 84q133 34 234 34q151 0 239.5 -94.5t69.5 -243.5l-6 -38h243q0 248 -149.5 407.5t-392.5 159.5q-150 0 -277.5 -61t-213 -163.5t-133.5 -238.5t-48 -285q0 -261 151.5 -424t407.5 -163q197 0 395 116q26 17 51 13 t35 -27l23 -45q26 -50 -29 -86q-220 -137 -487 -137q-166 0 -303 58t-228 158t-140.5 234.5t-49.5 288.5zM750 295q0 -52 32.5 -84.5t91.5 -32.5q63 0 105.5 37.5t48.5 87.5l16 133h-145q-69 0 -109 -36t-40 -105z" />
<glyph unicode="A" horiz-adv-x="1243" d="M74 76l385 1239q9 32 34 50.5t58 18.5h141q33 0 58.5 -18.5t35.5 -50.5l383 -1237q4 -13 4 -24q0 -18 -9 -32q-14 -22 -46 -22h-110q-69 0 -84 63l-86 291h-432l-84 -288q-18 -66 -84 -66h-113q-32 0 -46 22q-9 13 -9 30q0 11 4 24zM463 557h317l-102 344 q-30 103 -55 229q-28 -127 -58 -229z" />
<glyph unicode="B" horiz-adv-x="1179" d="M158 72v1241q0 32 19.5 51.5t51.5 19.5h365q210 0 333.5 -104.5t123.5 -271.5q0 -189 -179 -281q112 -41 171 -123.5t59 -191.5q0 -81 -34 -154.5t-96.5 -131t-159.5 -92t-214 -34.5h-369q-32 0 -51.5 20t-19.5 52zM403 213h193q120 0 187 55t67 144q0 90 -59.5 143 t-178.5 53h-209v-395zM403 813h170q106 0 166 48.5t60 131.5q0 81 -53 129.5t-158 48.5h-185v-358z" />
<glyph unicode="C" horiz-adv-x="1159" d="M121 537v311q0 139 41 247.5t115.5 177t173.5 103.5t219 35q163 0 329 -45q32 -7 46 -31q9 -15 9 -34q0 -11 -3 -23l-15 -68q-7 -31 -32.5 -44t-57.5 -5q-3 1 -24 5.5t-26.5 5.5t-25.5 5.5t-29.5 6l-28.5 4.5t-32.5 4t-32.5 3t-37.5 2.5t-37.5 0.5q-145 0 -225 -89 t-80 -280v-274q0 -369 305 -369q121 0 274 35q34 9 58.5 -3t31.5 -44l15 -65q3 -11 3 -21q0 -21 -12 -39q-17 -26 -53 -35q-164 -41 -319 -41q-120 0 -219 35.5t-173 104t-115.5 177t-41.5 247.5z" />
<glyph unicode="D" horiz-adv-x="1290" d="M158 72v1151q0 34 19.5 60.5t51.5 37.5q262 90 435 90q104 0 195 -34t161 -98t110.5 -163t40.5 -221v-391q0 -247 -133 -375.5t-374 -128.5h-435q-32 0 -51.5 20t-19.5 52zM403 213h261q136 0 198 70.5t62 236.5v354q0 159 -70 241.5t-190 82.5q-125 0 -261 -47v-938z " />
<glyph unicode="E" horiz-adv-x="1083" d="M158 72v1241q0 32 19.5 51.5t51.5 19.5h650q32 0 51.5 -19.5t19.5 -51.5v-70q0 -32 -19.5 -52t-51.5 -20h-476v-370h392q33 0 50.5 -17t16.5 -49l-6 -76q-3 -63 -74 -63h-379v-383h494q32 0 52 -20t20 -52v-69q0 -32 -20 -52t-52 -20h-668q-32 0 -51.5 20t-19.5 52z" />
<glyph unicode="F" horiz-adv-x="1056" d="M158 72v1241q0 32 19.5 51.5t51.5 19.5h648q32 0 51.5 -19.5t19.5 -51.5v-70q0 -32 -19.5 -52t-51.5 -20h-474v-370h375q32 0 51 -20t17 -52l-6 -63q-1 -32 -22 -51t-54 -19h-361v-524q0 -32 -19.5 -52t-51.5 -20h-103q-32 0 -51.5 20t-19.5 52z" />
<glyph unicode="G" horiz-adv-x="1251" d="M121 537v311q0 139 41 247.5t115.5 177t173.5 103.5t219 35q156 0 352 -55q33 -9 47 -33t6 -55l-18 -64q-7 -31 -33 -45.5t-57 -5.5q-165 43 -295 43q-305 0 -305 -365v-274q0 -191 80 -280t225 -89q100 0 221 27v358h-76q-31 0 -50 18t-19 50v43q0 32 19 51t50 19h238 q32 0 51.5 -20t19.5 -52v-555q0 -33 -19.5 -59t-51.5 -35q-202 -60 -385 -60q-120 0 -219 35.5t-173 104t-115.5 177t-41.5 247.5z" />
<glyph unicode="H" horiz-adv-x="1306" d="M158 72v1241q0 32 19.5 51.5t51.5 19.5h103q32 0 51.5 -19.5t19.5 -51.5v-504h500v504q0 32 20 51.5t52 19.5h104q32 0 52 -19.5t20 -51.5v-1241q0 -32 -20 -52t-52 -20h-104q-32 0 -52 20t-20 52v528h-500v-528q0 -32 -19.5 -52t-51.5 -20h-103q-32 0 -51.5 20t-19.5 52 z" />
<glyph unicode="I" horiz-adv-x="561" d="M158 72v1241q0 32 19.5 51.5t51.5 19.5h103q32 0 51.5 -19.5t19.5 -51.5v-1241q0 -32 -19.5 -52t-51.5 -20h-103q-32 0 -51.5 20t-19.5 52z" />
<glyph unicode="J" horiz-adv-x="983" d="M66 113l18 65q9 31 32.5 41.5t55.5 1.5q125 -35 217 -35q110 0 160.5 74.5t50.5 204.5v852q0 32 20 51q17 16 44 16h6l112 -8q30 -1 47 -20.5t17 -52.5v-844q0 -225 -118 -355.5t-331 -130.5q-149 0 -284 47q-31 9 -44 35q-7 15 -7 31q0 13 4 27z" />
<glyph unicode="K" horiz-adv-x="1228" d="M158 72v1241q0 32 19.5 51.5t51.5 19.5h103q32 0 51.5 -19.5t19.5 -51.5v-529l390 545q40 55 104 55h117q36 0 49 -30t-8 -56l-383 -526l452 -682q12 -17 12 -35q0 -13 -6 -25q-14 -30 -51 -30h-127q-59 0 -98 59l-332 510l-119 -166v-331q0 -32 -19.5 -52t-51.5 -20 h-103q-32 0 -51.5 20t-19.5 52z" />
<glyph unicode="L" horiz-adv-x="1042" d="M158 72v1241q0 32 19.5 51.5t51.5 19.5h103q32 0 51.5 -19.5t19.5 -51.5v-1100h502q33 0 52 -18t18 -50l-6 -73q-1 -32 -22.5 -52t-53.5 -20h-664q-32 0 -51.5 20t-19.5 52z" />
<glyph unicode="M" horiz-adv-x="1683" d="M94 76l139 1233q3 34 25.5 54.5t54.5 20.5h150q64 0 88 -71l237 -645q29 -75 54 -179q16 77 51 179l237 645q28 71 89 71h151q32 0 54.5 -21.5t25.5 -53.5l139 -1233v-10q0 -26 -14 -44q-17 -22 -49 -22h-103q-71 0 -77 76l-76 745q-13 132 -15 234q-49 -179 -69 -232 l-187 -508q-11 -31 -34.5 -49t-55.5 -18h-135q-32 0 -55.5 18t-34.5 49l-186 508q-34 91 -72 232q-3 -143 -12 -234l-76 -747q-4 -36 -25.5 -55t-54.5 -19h-100q-32 0 -50 21q-15 17 -15 43q0 6 1 12z" />
<glyph unicode="N" horiz-adv-x="1292" d="M158 72v1241q0 32 19.5 51.5t51.5 19.5h68q58 0 98 -65l500 -834q-6 114 -6 205v623q0 32 20 51.5t52 19.5h104q32 0 52 -19.5t20 -51.5v-1241q0 -32 -20 -52t-52 -20h-72q-60 0 -100 66l-498 825q8 -104 8 -211v-608q0 -32 -19.5 -52t-51.5 -20h-103q-32 0 -51.5 20 t-19.5 52z" />
<glyph unicode="O" d="M121 537v307q0 138 41.5 247.5t114 178.5t168 105t206.5 36t206.5 -36t168.5 -105t114.5 -178.5t41.5 -247.5v-307q0 -138 -41.5 -247t-114.5 -177.5t-168.5 -104t-206.5 -35.5t-206.5 35.5t-168 104t-114 177.5t-41.5 247zM367 555q0 -192 76 -280.5t208 -88.5 q131 0 207 89t76 280v274q0 189 -76.5 279t-206.5 90q-132 0 -208 -90t-76 -279v-274z" />
<glyph unicode="P" horiz-adv-x="1134" d="M158 72v1241q0 32 19.5 51.5t51.5 19.5h406q129 0 230 -60t153.5 -158t52.5 -214q0 -177 -121 -301.5t-315 -124.5h-232v-454q0 -32 -19.5 -52t-51.5 -20h-103q-32 0 -51.5 20t-19.5 52zM403 735h224q90 0 141 59.5t51 157.5t-51.5 158.5t-140.5 60.5h-224v-436z" />
<glyph unicode="Q" d="M121 537v307q0 138 41.5 247.5t114 178.5t168 105t206.5 36t206.5 -36t168.5 -105t114.5 -178.5t41.5 -247.5v-307q0 -195 -80 -326.5t-217 -192.5l76 -200q8 -23 8 -42q0 -41 -37 -65l-60 -35q-18 -12 -37 -12q-10 0 -21 4q-30 9 -42 43l-98 262h-23q-111 0 -206.5 35.5 t-168 104t-114 177.5t-41.5 247zM367 555q0 -192 76 -280.5t208 -88.5q131 0 208 89t77 280v274q0 189 -77 279t-208 90q-132 0 -208 -90t-76 -279v-274z" />
<glyph unicode="R" horiz-adv-x="1157" d="M158 72v1241q0 32 19.5 51.5t51.5 19.5h406q129 0 230 -60t153.5 -158t52.5 -214q0 -130 -69.5 -234t-190.5 -149l225 -479q10 -20 10 -36t-8 -28q-16 -26 -53 -26h-117q-65 0 -94 66l-209 471h-162v-465q0 -32 -19.5 -52t-51.5 -20h-103q-32 0 -51.5 20t-19.5 52z M403 735h222q89 0 142.5 60t53.5 157t-53.5 158t-142.5 61h-222v-436z" />
<glyph unicode="S" horiz-adv-x="1052" d="M98 125l15 68q7 32 31 44t57 1q182 -52 307 -52q91 0 149 50.5t58 136.5q0 46 -20.5 84t-55 65t-80 50.5t-95 46.5t-99 48t-95 58.5t-80 75t-55 101t-20.5 132.5q0 170 127 273.5t321 103.5q148 0 311 -55q30 -10 41.5 -35.5t2.5 -56.5l-21 -64q-9 -31 -32.5 -43 t-55.5 -2q-138 43 -246 43q-96 0 -144 -43t-48 -117q0 -43 20.5 -77.5t55 -59.5t80 -47.5t95 -45t99 -47.5t95 -60t80 -78t55 -106t20.5 -140q0 -97 -38 -175.5t-102.5 -127.5t-147 -75t-175.5 -26q-183 0 -365 60q-48 15 -48 64q0 13 3 28z" />
<glyph unicode="T" horiz-adv-x="1071" d="M57 1243v70q0 32 20 51.5t52 19.5h811q32 0 52 -19.5t20 -51.5v-70q0 -32 -20 -52t-52 -20h-281v-1099q0 -32 -19.5 -52t-51.5 -20h-105q-32 0 -51.5 20t-19.5 52v1099h-283q-32 0 -52 20t-20 52z" />
<glyph unicode="U" d="M147 455v858q0 32 20 51.5t52 19.5h103q32 0 51.5 -19.5t19.5 -51.5v-840q0 -130 71 -208.5t187 -78.5q115 0 186.5 78.5t71.5 208.5v840q0 32 20 51.5t52 19.5h102q32 0 52 -19.5t20 -51.5v-858q0 -211 -146.5 -346.5t-357.5 -135.5t-357.5 135.5t-146.5 346.5z" />
<glyph unicode="V" horiz-adv-x="1243" d="M76 1305q-4 14 -4 26q0 17 8 31q13 22 47 22h111q32 0 54.5 -20t31.5 -55l241 -826q27 -95 58 -239q24 124 55 239l242 826q22 75 86 75h110q34 0 48 -22q7 -12 8 -28q0 -13 -5 -29l-381 -1235q-11 -33 -34.5 -51.5t-55.5 -18.5h-149q-32 0 -55.5 19.5t-32.5 50.5z" />
<glyph unicode="W" horiz-adv-x="1714" d="M92 1305q-2 11 -2 20q0 25 12 39q16 20 48 20h110q33 0 54.5 -20t25.5 -57l109 -740q10 -72 22 -268q39 189 64 266l165 533q19 67 93 67h127q73 0 94 -69l166 -531q28 -99 63 -262q12 182 23 264l108 740q4 36 25.5 56.5t54.5 20.5h111q31 0 47 -20q11 -15 12 -38 q0 -9 -2 -19l-209 -1237q-6 -32 -29 -51t-55 -19h-137q-32 0 -56.5 19t-33.5 51l-201 653q-27 90 -45 188q-21 -115 -43 -188l-201 -653q-9 -32 -33.5 -51t-56.5 -19h-137q-32 0 -55 20t-29 52z" />
<glyph unicode="X" horiz-adv-x="1204" d="M86 26q-6 11 -5 23q0 16 9 33l369 643l-324 578q-18 32 -5 56.5t46 24.5h123q64 0 98 -61l205 -371l213 371q34 61 98 61h113q35 0 48.5 -25t-5.5 -59l-321 -569l366 -647q11 -17 11 -33q0 -11 -6 -23q-14 -28 -46 -28h-129q-67 0 -98 63l-244 439l-248 -436 q-39 -66 -102 -66h-119q-33 0 -47 26z" />
<glyph unicode="Y" horiz-adv-x="1167" d="M78 1361q13 23 45 23h119q65 0 94 -67l248 -537l247 537q29 67 95 67h118q34 0 48 -22q6 -11 6 -24q0 -14 -8 -31l-383 -779v-456q0 -32 -20 -52t-52 -20h-103q-32 0 -51.5 20t-19.5 52v456l-383 779q-7 16 -7 29q0 14 7 25z" />
<glyph unicode="Z" horiz-adv-x="1140" d="M96 72v49q0 43 33 104l578 946h-527q-32 0 -51.5 20t-19.5 52v70q0 32 19.5 51.5t51.5 19.5h764q32 0 52 -19.5t20 -51.5v-49q0 -44 -35 -105l-580 -946h586q32 0 50 -20q15 -16 15 -41q0 -5 -1 -11l-7 -67q-5 -33 -26 -53.5t-53 -20.5h-797q-32 0 -52 20t-20 52z" />
<glyph unicode="[" horiz-adv-x="585" d="M158 -393v1958q0 32 19.5 51.5t51.5 19.5h250q32 0 52 -19.5t20 -51.5v-54q0 -32 -20 -51.5t-52 -19.5h-92v-1708h92q32 0 52 -20t20 -52v-53q0 -32 -20 -52t-52 -20h-250q-32 0 -51.5 20t-19.5 52z" />
<glyph unicode="\" horiz-adv-x="792" d="M117 1423q-8 31 7.5 53.5t47.5 22.5h72q66 0 82 -69l350 -1483q8 -31 -7.5 -53.5t-47.5 -22.5h-74q-31 0 -52.5 19t-29.5 51z" />
<glyph unicode="]" horiz-adv-x="585" d="M35 -340q0 32 19.5 52t51.5 20h93v1708h-93q-32 0 -51.5 19.5t-19.5 51.5v54q0 32 19.5 51.5t51.5 19.5h250q32 0 52 -19.5t20 -51.5v-1958q0 -32 -20 -52t-52 -20h-250q-32 0 -51.5 20t-19.5 52v53z" />
<glyph unicode="^" horiz-adv-x="1259" d="M178.5 884q-6.5 25 11.5 54l295 502q35 59 99 59h94q62 0 96 -57l297 -504q38 -65 -29 -92l-71 -33q-29 -14 -56.5 -5.5t-42.5 36.5l-241 459l-244 -459q-32 -60 -96 -33l-74 35q-32 13 -38.5 38z" />
<glyph unicode="_" horiz-adv-x="1024" d="M0 -240q0 32 20 52t52 20h880q32 0 52 -20t20 -52v-59q0 -32 -20 -52t-52 -20h-880q-32 0 -52 20t-20 52v59z" />
<glyph unicode="`" horiz-adv-x="817" d="M184 1405l23 57q23 58 86 31l303 -133q28 -11 39.5 -32.5t1.5 -47.5l-19 -41q-20 -53 -86 -29l-307 113q-64 23 -41 82z" />
<glyph unicode="a" horiz-adv-x="1005" d="M86 328q0 159 108.5 243t292.5 84h168v39q0 91 -43.5 140t-124.5 49q-82 0 -219 -31q-32 -9 -55 5t-31 46l-14 51q-9 33 5.5 58.5t45.5 34.5q147 43 268 43q185 0 297.5 -107.5t112.5 -288.5v-366q0 -150 -119.5 -252.5t-285.5 -102.5q-172 0 -289 102t-117 253zM330 332 q0 -62 42.5 -107t119.5 -45q73 0 118 44.5t45 103.5v151h-170q-81 0 -118 -41t-37 -106z" />
<glyph unicode="b" horiz-adv-x="1085" d="M111 418v999q0 68 69 80l88 16q7 1 13 1q28 0 46 -15q23 -18 23 -51v-420q98 62 213 62q82 0 155.5 -28t132 -81.5t92.5 -140.5t34 -197v-225q0 -137 -60.5 -240t-158 -154t-215.5 -51t-215 51t-157 154t-60 240zM350 428q0 -121 53.5 -184.5t139.5 -63.5t139 63.5 t53 184.5v205q0 130 -53.5 190t-140.5 60q-84 0 -191 -56v-399z" />
<glyph unicode="c" horiz-adv-x="970" d="M111 438v187q0 119 33.5 209.5t95 145.5t143.5 82.5t184 27.5q106 0 238 -31q54 -15 54 -63q0 -12 -3 -25l-14 -60q-9 -33 -32 -46t-54 -7q-110 25 -178 25q-113 0 -170.5 -62t-57.5 -200v-177q0 -140 57.5 -202t170.5 -62q82 0 176 23q16 4 28 4q45 0 58 -49l16 -68 q3 -11 3 -22q0 -18 -8 -32q-13 -24 -46 -32q-139 -31 -238 -31q-102 0 -184 27.5t-143.5 82.5t-95 145.5t-33.5 209.5z" />
<glyph unicode="d" horiz-adv-x="1083" d="M111 418v225q0 110 34 197t92 140.5t131.5 81.5t155.5 28q111 0 209 -62v399q0 32 20 52t52 20h98q32 0 52 -20t20 -52v-1009q0 -137 -60.5 -240t-157.5 -154t-214 -51q-118 0 -215 51t-157 154t-60 240zM348 428q0 -121 54.5 -184.5t140.5 -63.5q85 0 137.5 63.5 t52.5 184.5v399q-104 56 -188 56q-89 0 -143 -60t-54 -190v-205z" />
<glyph unicode="e" horiz-adv-x="1052" d="M111 424v225q0 139 57 240.5t151 151t211 49.5q178 0 300 -113t122 -289v-153q0 -32 -19.5 -52t-51.5 -20h-533v-39q0 -122 56 -183t161 -61q98 0 219 31q33 8 56 -4.5t30 -42.5l15 -62q7 -34 -6.5 -58.5t-44.5 -33.5q-136 -37 -269 -37q-208 0 -331 117.5t-123 333.5z M348 639h365v49q0 85 -50.5 140t-132.5 55q-81 0 -131.5 -56t-50.5 -153v-35z" />
<glyph unicode="f" horiz-adv-x="694" d="M41 954v52q0 26 16.5 41.5t42.5 15.5h82v135q0 78 30 142t80 104t111.5 61t128.5 21q56 0 123 -13q55 -14 55 -60q0 -10 -3 -23l-15 -66q-13 -53 -63 -53q-10 0 -21 2q-24 6 -61 6q-59 0 -93 -32t-34 -89v-135h182q29 0 42 -19t5 -47l-12 -43q-8 -32 -23 -44.5t-47 -12.5 h-147v-825q0 -32 -20 -52t-52 -20h-94q-32 0 -52 20t-20 52v825h-82q-26 0 -42.5 15.5t-16.5 41.5z" />
<glyph unicode="g" horiz-adv-x="1003" d="M74 -295l18 57q15 45 55 45q17 0 39 -8q52 -18 80.5 -26.5t88.5 -19.5t116 -11q106 0 163.5 30t57.5 81q0 27 -28 45.5t-72 29t-98 19.5t-108 24t-98 37t-72 62t-28 96q0 72 66 131q-75 48 -116.5 127.5t-41.5 179.5v109q0 168 109.5 272.5t279.5 104.5q82 0 152 -25 l254 18q33 2 48 -13q12 -11 12 -33q0 -6 -1 -13l-4 -45q-1 -28 -14.5 -39.5t-42.5 -13.5l-72 -4q60 -96 60 -209v-109q0 -166 -109.5 -270.5t-280.5 -104.5q-37 0 -84 7q-14 -18 -14 -33q0 -18 30.5 -30.5t78.5 -22t106.5 -20.5t117.5 -30.5t107 -47t78.5 -75.5t30.5 -110 q0 -149 -123 -237.5t-340 -88.5q-178 0 -362 74q-45 18 -45 58q0 15 6 32zM332 604q0 -78 37.5 -125t117.5 -47t117 47t37 125v109q0 78 -37.5 124t-118.5 46q-79 0 -116 -46.5t-37 -123.5v-109z" />
<glyph unicode="h" horiz-adv-x="1130" d="M147 72v1355q0 32 20 52t52 20h96q32 0 52 -20t20 -52v-399q102 62 213 62q83 0 152.5 -24t124 -73.5t85.5 -133t31 -193.5v-594q0 -32 -19.5 -52t-51.5 -20h-97q-32 0 -51.5 20t-19.5 52v579q0 127 -45.5 179.5t-130.5 52.5q-87 0 -191 -56v-755q0 -32 -20 -52t-52 -20 h-96q-32 0 -52 20t-20 52z" />
<glyph unicode="i" horiz-adv-x="534" d="M123 1362q0 59 42.5 98t100.5 39t101 -39t43 -98q0 -57 -42.5 -98t-101.5 -41t-101 41t-42 98zM147 72v919q0 32 20 52t52 20h96q32 0 52 -20t20 -52v-919q0 -32 -20 -52t-52 -20h-96q-32 0 -52 20t-20 52z" />
<glyph unicode="j" horiz-adv-x="534" d="M123 1362q0 59 42 98t101 39q58 0 101 -39t43 -98q0 -57 -43.5 -98t-100.5 -41q-59 0 -101 41t-42 98zM147 -383v1374q0 32 20 52t52 20h96q32 0 52 -20t20 -52v-1335q0 -72 -65 -80l-107 -20q-6 -1 -12 -1q-24 0 -38 13q-18 16 -18 49z" />
<glyph unicode="k" horiz-adv-x="1003" d="M147 72v1355q0 32 20 52t52 20h96q32 0 52 -20t20 -52v-790l143 49q35 13 55 42t33 79l50 190q18 66 86 66h90q34 0 48.5 -22.5t6.5 -57.5l-61 -227q-24 -93 -54.5 -145t-89.5 -81l230 -440q11 -21 11 -38q0 -14 -7 -26q-15 -26 -56 -26h-94q-71 0 -104 68l-189 383 l-98 -37v-342q0 -32 -20 -52t-52 -20h-96q-32 0 -52 20t-20 52z" />
<glyph unicode="l" horiz-adv-x="534" d="M147 72v1341q0 33 17.5 55.5t50.5 26.5l90 18q8 1 15 1q26 0 44 -14q22 -18 23 -54v-1374q0 -32 -20 -52t-52 -20h-96q-32 0 -52 20t-20 52z" />
<glyph unicode="m" horiz-adv-x="1640" d="M137 72v590q0 139 55.5 237.5t145 144.5t201.5 46q92 0 164 -44.5t116 -123.5q45 80 117.5 124t165.5 44q175 0 288 -111t113 -317v-590q0 -32 -19.5 -52t-51.5 -20h-97q-32 0 -51.5 20t-19.5 52v569q0 119 -41.5 180.5t-120.5 61.5q-78 0 -120 -71t-42 -206v-534 q0 -32 -20 -52t-52 -20h-96q-32 0 -52 20t-20 52v534q0 134 -42 205.5t-119 71.5q-79 0 -120.5 -61.5t-41.5 -180.5v-569q0 -32 -20 -52t-52 -20h-96q-32 0 -52 20t-20 52z" />
<glyph unicode="n" horiz-adv-x="1118" d="M137 72v579q0 207 120.5 323t303.5 116q181 0 300.5 -116t119.5 -323v-579q0 -32 -20 -52t-52 -20h-96q-32 0 -52 20t-20 52v569q0 118 -48 180t-132 62q-85 0 -135.5 -62.5t-50.5 -179.5v-569q0 -32 -20 -52t-52 -20h-94q-32 0 -52 20t-20 52z" />
<glyph unicode="o" horiz-adv-x="1103" d="M111 440v185q0 220 122 342.5t318 122.5q198 0 320 -122.5t122 -344.5v-183q0 -220 -122.5 -343.5t-319.5 -123.5q-196 0 -318 123.5t-122 343.5zM348 451q0 -271 203 -271q205 0 205 271v161q0 271 -205 271q-203 0 -203 -271v-161z" />
<glyph unicode="p" horiz-adv-x="1085" d="M111 -360v1005q0 137 60 240t157 154t215 51t215.5 -51t158 -154t60.5 -240v-225q0 -110 -34 -197t-92.5 -140.5t-132 -81.5t-155.5 -28q-115 0 -213 62v-395q0 -32 -19.5 -52t-51.5 -20h-97q-32 0 -51.5 20t-19.5 52zM350 236q107 -56 191 -56q87 0 140.5 60t53.5 190 v205q0 121 -53 184.5t-139 63.5t-139.5 -63.5t-53.5 -184.5v-399z" />
<glyph unicode="q" horiz-adv-x="1085" d="M111 420v225q0 137 60 240t157 154t215 51t215.5 -51t158 -154t60.5 -240v-991q0 -74 -62 -82l-106 -18q-9 -2 -18 -2q-22 0 -37 12q-19 17 -19 51v420q-102 -62 -211 -62q-82 0 -155.5 28t-131.5 81.5t-92 140.5t-34 197zM350 430q0 -130 53 -190t142 -60q86 0 190 56 v399q0 122 -52.5 185t-139.5 63q-86 0 -139.5 -63.5t-53.5 -184.5v-205z" />
<glyph unicode="r" horiz-adv-x="745" d="M137 72v614q0 180 119 292t299 112q45 0 92 -9q34 -5 55 -28q14 -16 14 -39q0 -11 -3 -23l-13 -57q-6 -31 -28.5 -46.5t-59.5 -8.5q-28 4 -55 4q-83 0 -132.5 -54.5t-49.5 -142.5v-614q0 -32 -20 -52t-52 -20h-94q-32 0 -52 20t-20 52z" />
<glyph unicode="s" horiz-adv-x="874" d="M88 100l14 64q7 30 31 42t57 3q118 -29 205 -29q69 0 113.5 31.5t44.5 79.5q0 40 -25 69.5t-65 50t-88.5 40t-97.5 45.5t-89 60.5t-65 91.5t-25 132q0 136 102 223t273 87q111 0 213 -29q29 -8 44.5 -32.5t6.5 -55.5l-16 -64q-14 -53 -60 -53q-13 0 -28 4q-85 23 -160 23 q-67 0 -98 -28.5t-31 -74.5q0 -37 25 -64.5t65 -46.5t88.5 -37.5t96.5 -45t88 -61.5t65 -94t25 -136q0 -132 -105 -227t-297 -95q-130 0 -254 37q-31 10 -47 33q-10 15 -9 34q0 11 3 23z" />
<glyph unicode="t" horiz-adv-x="663" d="M39 1004q-3 10 -3 18q0 14 8 24q12 16 38 17h117v223q0 33 18.5 55.5t52.5 26.5l84 14q10 2 19 2q25 0 43 -12q24 -16 24 -49v-260h131q26 0 42 -15.5t16 -41.5v-52q0 -26 -16 -41.5t-42 -15.5h-131v-825q0 -32 -19.5 -52t-51.5 -20h-99q-32 0 -51.5 20t-19.5 52v825h-80 q-52 0 -66 53z" />
<glyph unicode="u" horiz-adv-x="1118" d="M137 412v579q0 32 20 52t52 20h94q32 0 52 -20t20 -52v-569q0 -117 49.5 -179.5t134.5 -62.5q84 0 133 62.5t49 179.5v569q0 32 20 52t52 20h96q32 0 52 -20t20 -52v-579q0 -139 -58.5 -240t-152.5 -150t-211 -49q-119 0 -213 49t-151.5 150t-57.5 240z" />
<glyph unicode="v" horiz-adv-x="1017" d="M61 977q-5 17 -5 31q0 19 10 32q16 23 51 23h96q68 0 86 -66l139 -450q33 -127 70 -293q64 264 72 293l139 450q15 66 86 66h96q37 -1 53 -23q8 -12 8 -29q0 -15 -6 -34l-288 -901q-11 -34 -36 -55t-57 -21h-133q-32 0 -56.5 20t-35.5 54z" />
<glyph unicode="w" horiz-adv-x="1611" d="M96 991v6q0 28 17 46q19 20 51 20h98q32 0 51.5 -19.5t22.5 -52.5l43 -614q6 -88 46 -140.5t110 -52.5q69 0 111 55.5t42 141.5v539q0 32 20 51.5t52 19.5h90q32 0 52 -19.5t20 -51.5v-539q0 -86 41 -141.5t110 -55.5q70 0 111 52.5t49 140.5l43 620q6 66 74 66h98 q32 0 50 -20q15 -17 15 -43v-9l-47 -631q-12 -181 -117.5 -284t-271.5 -103q-89 0 -158.5 38.5t-113.5 107.5q-96 -146 -275 -146q-164 0 -269.5 104.5t-117.5 282.5z" />
<glyph unicode="x" horiz-adv-x="1015" d="M78 25q-5 9 -5 20q0 18 13 39l283 463l-260 434q-19 29 -7 55.5t45 26.5h117q64 0 94 -59l150 -250l158 254q31 55 96 55h100q34 0 47.5 -26t-4.5 -58l-258 -426l285 -467q11 -17 11 -34q1 -12 -5 -24q-12 -28 -47 -28h-115q-61 0 -98 59l-170 287l-176 -289 q-37 -57 -99 -57h-108q-35 0 -47 25z" />
<glyph unicode="y" horiz-adv-x="1024" d="M61 987q-1 7 -1 14q0 24 14 41q17 21 49 21h100q32 0 53 -18t25 -50l84 -598q14 -96 51 -143t107 -47h75l97 778q4 37 26.5 57.5t55.5 20.5h96q33 0 50 -19q14 -14 14 -40q0 -6 -1 -13l-178 -1353q-9 -70 -80 -70h-94q-33 0 -50 18.5t-13 51.5l49 362h-55 q-332 0 -388 377z" />
<glyph unicode="z" horiz-adv-x="983" d="M104 72v55q0 43 39 102l430 633h-380q-32 0 -52 20t-20 52v57q0 32 20 52t52 20h593q32 0 52 -20t20 -52v-55q0 -47 -37 -100l-418 -635h410q65 0 65 -60q0 -7 -1 -14l-7 -53q-6 -74 -77 -74h-617q-32 0 -52 20t-20 52z" />
<glyph unicode="{" horiz-adv-x="843" d="M96 573v23q0 27 13 44t34 25.5t46.5 15.5t51 20.5t46.5 35t34 64t13 102.5v326q0 104 32 182t91 125t134 71.5t169 28.5q57 3 57 -69v-64q0 -70 -57 -73q-100 -8 -148.5 -52t-48.5 -155v-320q0 -113 -39 -189.5t-129 -129.5q168 -99 168 -318v-313q0 -109 50 -153.5 t147 -51.5q57 -5 57 -76v-61q0 -73 -55 -70q-95 4 -170.5 28.5t-134.5 72t-91 125.5t-32 182v317q0 60 -13 102.5t-34 64t-46.5 35t-51 20.5t-46.5 15.5t-34 25.5t-13 44z" />
<glyph unicode="|" horiz-adv-x="532" d="M152 -338v1765q0 32 19.5 52t51.5 20h86q32 0 52 -20t20 -52v-1765q0 -32 -20 -52t-52 -20h-86q-32 0 -51.5 20t-19.5 52z" />
<glyph unicode="}" horiz-adv-x="841" d="M25 -328q0 71 57 76q97 7 147 51.5t50 153.5v313q0 219 167 318q-90 53 -128.5 129.5t-38.5 189.5v320q0 111 -48 154t-147 53q-59 3 -59 73v64q0 72 57 69q94 -4 169 -28.5t134 -71.5t91 -125t32 -182v-326q0 -60 13 -102.5t34.5 -64t47 -35t51 -20.5t47 -15.5 t34.5 -25.5t13 -44v-23q0 -27 -13 -44t-34.5 -25.5t-47 -15.5t-51 -20.5t-47 -35t-34.5 -64t-13 -102.5v-317q0 -104 -32 -182t-90.5 -125.5t-134 -72t-169.5 -28.5q-57 -3 -57 70v61z" />
<glyph unicode="~" horiz-adv-x="1206" d="M186 627q116 147 250 147q53 0 105.5 -25.5t86.5 -55.5t73.5 -55.5t70.5 -25.5q21 0 41 9t29.5 16.5t27.5 24.5q44 53 95 6l47 -41q48 -45 6 -97q-116 -143 -246 -143q-55 0 -108 25t-86.5 55t-73 55t-70.5 25q-51 0 -102 -51q-41 -47 -90 -4l-45 40q-50 44 -11 95z" />
<glyph unicode="&#xa1;" horiz-adv-x="540" d="M125 1063q0 60 42.5 103.5t102.5 43.5q59 0 102.5 -43t43.5 -104q0 -60 -43.5 -100.5t-102.5 -40.5q-60 0 -102.5 40.5t-42.5 100.5zM143 -150l15 820q0 32 19.5 52.5t51.5 20.5h80q33 0 53.5 -19.5t20.5 -51.5l12 -781q0 -72 -69 -81l-111 -21q-34 -4 -53 12.5t-19 48.5 z" />
<glyph unicode="&#xa2;" horiz-adv-x="991" d="M113 438v187q0 206 96.5 320t265.5 138v162q0 32 20 52t52 20h39q32 0 51.5 -20t19.5 -52v-162q59 -4 148 -24q33 -9 47 -32t6 -56l-14 -60q-8 -31 -31.5 -45.5t-54.5 -7.5q-110 25 -176 25q-114 0 -172 -62t-58 -200v-177q0 -140 58 -202t172 -62q60 0 178 23 q68 18 84 -47l14 -60q8 -33 -5 -58t-42 -32q-81 -21 -154 -26v-162q0 -32 -19.5 -52t-51.5 -20h-39q-32 0 -52 20t-20 52v162q-168 23 -265 137.5t-97 320.5z" />
<glyph unicode="&#xa3;" horiz-adv-x="1017" d="M121 618v33q0 27 15.5 43.5t41.5 16.5h55q-4 17 -15 57.5t-16 62t-11.5 54.5t-9.5 62.5t-3 58.5q0 130 58 223t153.5 137.5t216.5 44.5q128 0 260 -47q31 -10 43.5 -36.5t1.5 -57.5l-22 -60q-10 -28 -37 -37.5t-57 1.5q-89 26 -172 26q-197 0 -197 -211q0 -28 2.5 -55.5 t9 -60t11 -51.5t15 -58.5t13.5 -52.5h287q26 0 41.5 -16.5t15.5 -43.5v-33q0 -26 -15.5 -41.5t-41.5 -15.5h-258q4 -50 4 -76q0 -81 -38 -158t-89 -132h471q32 0 52 -20t20 -52v-51q0 -32 -20 -52t-52 -20h-655q-32 0 -52 20t-20 52v104q137 173 137 309q0 26 -4 76h-82 q-26 0 -41.5 15.5t-15.5 41.5z" />
<glyph unicode="&#xa4;" horiz-adv-x="1193" d="M165 277q0 28 23 51l76 75q-41 77 -41 170q0 91 41 168l-76 76q-23 23 -23 51.5t23 51.5l64 61q23 23 51 23t51 -23l74 -76q77 41 170 41q91 0 168 -41l76 76q23 23 51 23t51 -23l62 -61q23 -23 23 -51.5t-23 -51.5l-76 -74q43 -81 43 -170q0 -86 -41 -170l74 -75 q23 -23 23 -51.5t-23 -51.5l-62 -59q-23 -23 -51 -23t-51 23l-74 74q-84 -41 -170 -41q-96 0 -170 41l-74 -74q-23 -23 -51 -23t-51 23l-64 61q-23 22 -23 50zM428 573q0 -71 50 -120.5t120 -49.5t120 49.5t50 120.5t-50 120.5t-120 49.5t-120 -49.5t-50 -120.5z" />
<glyph unicode="&#xa5;" horiz-adv-x="1087" d="M46 1360.5q15 23.5 48 23.5h103q67 0 92 -65l256 -569l254 567q26 67 92 67h104q34 0 48 -24.5t-1 -56.5l-315 -654h139q26 0 43 -16.5t17 -42.5v-33q0 -26 -16.5 -41.5t-43.5 -15.5h-198v-144h198q26 0 43 -16.5t17 -42.5v-31q0 -26 -17 -42.5t-43 -16.5h-198v-135 q0 -32 -20 -52t-52 -20h-100q-32 0 -52 20t-20 52v135h-201q-26 0 -41.5 16.5t-15.5 42.5v31q0 26 15.5 42.5t41.5 16.5h201v144h-201q-26 0 -41.5 15.5t-15.5 41.5v33q0 26 15.5 42.5t41.5 16.5h139l-315 654q-16 34 -1 57.5z" />
<glyph unicode="&#xa6;" horiz-adv-x="532" d="M152 227q0 32 19.5 52t51.5 20h86q32 0 52 -20t20 -52v-565q0 -32 -20 -52t-52 -20h-86q-32 0 -51.5 20t-19.5 52v565zM152 854v573q0 32 19.5 52t51.5 20h86q32 0 52 -20t20 -52v-573q0 -32 -20 -52t-52 -20h-86q-32 0 -51.5 20t-19.5 52z" />
<glyph unicode="&#xa7;" horiz-adv-x="1146" d="M139 -137l17 78q6 28 30.5 39t51.5 2q150 -41 256 -41q85 0 136.5 36.5t51.5 112.5q0 52 -29 91.5t-75 65t-102 49.5t-112 54t-102 69.5t-75 104.5t-29 150q0 152 108 246q-26 67 -26 147q0 155 115 249.5t290 94.5q147 0 291 -51q61 -19 43 -84l-23 -76 q-7 -26 -29.5 -37.5t-47.5 -3.5q-123 39 -215 39q-82 0 -125 -33t-43 -96q0 -45 29 -81t75 -61.5t101.5 -51t111 -58.5t101.5 -74.5t75 -108t29 -151.5q0 -153 -107 -252q25 -70 25 -141q0 -88 -36.5 -158.5t-98 -114.5t-138.5 -67.5t-161 -23.5q-149 0 -314 53 q-24 8 -38.5 33t-10.5 51zM414 678q0 -40 20 -71t57 -54.5t76 -42t90.5 -45t87.5 -51.5q19 34 19 67q0 45 -19.5 79.5t-56.5 59t-74.5 42t-90.5 41.5t-87 45q-22 -28 -22 -70z" />
<glyph unicode="&#xa8;" horiz-adv-x="931" d="M154 1352q0 50 36 86.5t84 36.5q49 0 84 -36t35 -87q0 -50 -34.5 -84.5t-84.5 -34.5q-48 0 -84 35t-36 84zM539 1352q0 51 35 87t83 36q51 0 86 -36t35 -87q0 -49 -35.5 -84t-85.5 -35q-48 0 -83 35t-35 84z" />
<glyph unicode="&#xa9;" horiz-adv-x="1533" d="M121 659q0 143 44.5 268t126 218t204 147t270.5 54q198 0 347.5 -93t225.5 -247.5t76 -346.5t-76 -346.5t-225.5 -247t-347.5 -92.5q-148 0 -270.5 53.5t-204 146.5t-126 218t-44.5 268zM272 659q0 -155 58 -277.5t171 -194.5t265 -72q230 0 363 153t133 391 q0 156 -57.5 278.5t-171 194.5t-267.5 72q-152 0 -265 -72t-171 -195t-58 -278zM465 582v155q0 135 84 214t211 79q92 0 162 -18q53 -16 41 -62l-9 -30q-11 -45 -67 -33q-70 12 -125 12q-71 0 -107.5 -45t-36.5 -131v-129q0 -83 36.5 -128.5t107.5 -45.5q67 0 133 16 q49 9 57 -30l11 -35q11 -49 -41 -62q-65 -20 -162 -20q-127 0 -211 79t-84 214z" />
<glyph unicode="&#xaa;" horiz-adv-x="757" d="M88 854q0 112 78.5 170.5t210.5 58.5h102v29q0 111 -102 111q-63 0 -150 -21q-57 -14 -71 35l-13 49q-7 25 4.5 43.5t34.5 24.5q99 30 195 30q129 0 210 -77t81 -201v-252q0 -108 -85.5 -182t-203.5 -74q-124 0 -207.5 73.5t-83.5 182.5zM279 856q0 -43 28 -68.5 t72 -25.5q45 0 72.5 28t27.5 64v96h-94q-106 0 -106 -94z" />
<glyph unicode="&#xab;" horiz-adv-x="1081" d="M145 574q0 28 19 51l225 293q15 21 39 23.5t45 -13.5l68 -54q46 -34 8 -81l-166 -218l168 -221q17 -22 14.5 -43.5t-22.5 -36.5l-70 -53q-21 -15 -45.5 -11.5t-42.5 26.5l-221 288q-19 22 -19 50zM536 574q0 28 17 51l225 293q34 43 86 10l68 -54q44 -33 8 -81l-166 -218 l168 -221q34 -50 -10 -80l-68 -53q-23 -15 -47 -11.5t-41 26.5l-223 288q-17 22 -17 50z" />
<glyph unicode="&#xac;" horiz-adv-x="1161" d="M125 528v60q0 32 20 51.5t52 19.5h768q32 0 51.5 -19.5t19.5 -51.5v-404q0 -32 -19.5 -51.5t-51.5 -19.5h-58q-32 0 -51.5 19.5t-19.5 51.5v273h-639q-32 0 -52 19.5t-20 51.5z" />
<glyph unicode="&#xad;" horiz-adv-x="331" />
<glyph unicode="&#xae;" horiz-adv-x="1533" d="M121 659q0 143 44.5 268t126 218t204 147t270.5 54q198 0 347.5 -93t225.5 -247.5t76 -346.5t-76 -346.5t-225.5 -247t-347.5 -92.5q-148 0 -270.5 53.5t-204 146.5t-126 218t-44.5 268zM272 659q0 -155 58 -277.5t171 -194.5t265 -72q230 0 363 153t133 391 q0 156 -57.5 278.5t-171 194.5t-267.5 72q-152 0 -265 -72t-171 -195t-58 -278zM530 356v607q0 26 16 41.5t42 15.5h194q109 0 173.5 -66.5t64.5 -165.5q0 -66 -28 -120.5t-87 -83.5l109 -224q12 -23 1.5 -40t-36.5 -17h-51q-49 0 -70 47l-94 207h-80v-201q0 -26 -16 -39.5 t-43 -13.5h-37q-27 0 -42.5 13.5t-15.5 39.5zM684 688h90q44 0 69 28t25 72t-24.5 72.5t-71.5 28.5h-88v-201z" />
<glyph unicode="&#xaf;" horiz-adv-x="854" d="M168 1331v49q0 26 15.5 42t41.5 16h404q26 0 42.5 -16t16.5 -42v-49q0 -26 -16.5 -42.5t-42.5 -16.5h-404q-26 0 -41.5 16.5t-15.5 42.5z" />
<glyph unicode="&#xb0;" horiz-adv-x="768" d="M125 1264q0 103 76.5 179.5t181.5 76.5q104 0 182 -78t78 -182q0 -106 -77.5 -182.5t-182.5 -76.5q-107 0 -182.5 76.5t-75.5 186.5zM281 1262q0 -43 30.5 -74t73.5 -31q41 0 70.5 31t29.5 74q0 41 -29.5 70.5t-72.5 29.5q-41 0 -71.5 -29.5t-30.5 -70.5z" />
<glyph unicode="&#xb1;" horiz-adv-x="1142" d="M125 -49q0 32 20 52t52 20h749q32 0 52 -20t20 -52v-55q0 -32 -20 -52t-52 -20h-749q-32 0 -52 20t-20 52v55zM125 528v60q0 32 20 51.5t52 19.5h274v250q0 32 20 52t52 20h59q32 0 52 -20t20 -52v-250h272q32 0 52 -19.5t20 -51.5v-60q0 -32 -20 -51.5t-52 -19.5h-272 v-252q0 -32 -20 -52t-52 -20h-59q-32 0 -52 20t-20 52v252h-274q-32 0 -52 19.5t-20 51.5z" />
<glyph unicode="&#xb4;" horiz-adv-x="817" d="M182 1280q-10 26 0.5 47t38.5 33l301 131q66 27 90 -31l21 -53q11 -29 0 -51t-41 -33l-307 -113q-64 -24 -86 29z" />
<glyph unicode="&#xb5;" horiz-adv-x="1128" d="M147 -360v1351q0 32 20 52t52 20h94q32 0 52 -20t20 -52v-588q0 -109 50.5 -166t133.5 -57q84 0 133.5 62.5t49.5 179.5v569q0 32 19.5 52t51.5 20h97q32 0 51.5 -20t19.5 -52v-579q0 -139 -58.5 -240t-152.5 -150t-211 -49q-105 0 -184 43v-376q0 -32 -20 -52t-52 -20 h-94q-32 0 -52 20t-20 52z" />
<glyph unicode="&#xb6;" horiz-adv-x="1271" d="M104 979q0 167 111.5 286t280.5 119h581q32 0 52 -19.5t20 -51.5v-1485q0 -32 -20 -52t-52 -20h-86q-32 0 -51.5 20t-19.5 52v1337h-158v-1337q0 -32 -20 -52t-52 -20h-86q-32 0 -52 20t-20 52v745h-53q-102 0 -189 55.5t-136.5 149t-49.5 201.5z" />
<glyph unicode="&#xb7;" horiz-adv-x="577" d="M160 573q0 55 38 93.5t91 38.5q54 0 92.5 -38.5t38.5 -93.5q0 -54 -38.5 -90.5t-92.5 -36.5q-52 0 -90.5 37t-38.5 90z" />
<glyph unicode="&#xb8;" horiz-adv-x="626" d="M76 -352l8 61q3 21 20 32t43 7q32 -4 58 -4q47 0 66.5 21.5t19.5 64.5v170h186v-193q0 -64 -22.5 -112t-60.5 -74.5t-81.5 -39.5t-91.5 -13q-50 0 -104 8q-47 13 -41 72z" />
<glyph unicode="&#xba;" horiz-adv-x="808" d="M88 928v129q0 152 88 239.5t227 87.5q140 0 229 -88t89 -241v-127q0 -153 -89 -241.5t-229 -88.5q-139 0 -227 88.5t-88 241.5zM276 934q0 -172 127 -172t127 172v115q0 174 -127 174t-127 -174v-115z" />
<glyph unicode="&#xbb;" horiz-adv-x="1081" d="M139 356l168 219l-166 218q-39 48 6 81l70 54q21 16 45 13.5t39 -23.5l225 -293q19 -23 19 -51t-19 -50l-221 -288q-18 -23 -42.5 -26.5t-45.5 11.5l-67 53q-46 34 -11 82zM515.5 311q-2.5 22 14.5 45l168 219l-168 218q-36 48 9 81l69 54q49 34 84 -10l226 -293 q17 -23 17 -51t-17 -50l-224 -288q-17 -23 -41 -26.5t-45 11.5l-69 53q-21 15 -23.5 37z" />
<glyph unicode="&#xbf;" horiz-adv-x="917" d="M90 121q0 62 26.5 121.5t64 107t75 92t64 92t26.5 91.5v77q0 32 21 49t55 11l88 -17q63 -12 63 -73v-51q0 -58 -26 -117t-62.5 -107t-73.5 -93t-63 -93t-26 -90q0 -66 42.5 -106t114.5 -40q78 0 168 50q27 16 56 12.5t45 -31.5l30 -53q16 -30 8.5 -56t-36.5 -44 q-126 -80 -273 -80q-104 0 -190.5 39t-141.5 120t-55 189zM315 1063q0 60 42.5 103.5t101.5 43.5q60 0 103.5 -43t43.5 -104q0 -60 -43.5 -100.5t-103.5 -40.5q-58 0 -101 40.5t-43 100.5z" />
<glyph unicode="&#xc0;" horiz-adv-x="1243" d="M74 76l385 1239q9 32 34 50.5t58 18.5h141q33 0 58.5 -18.5t35.5 -50.5l383 -1237q9 -33 -5 -55.5t-46 -22.5h-110q-69 0 -84 63l-86 291h-432l-84 -288q-18 -66 -84 -66h-113q-32 0 -46 21.5t-5 54.5zM395 1696l23 57q23 58 86 31l303 -133q28 -11 39.5 -32.5t1.5 -47.5 l-19 -41q-20 -53 -86 -29l-307 113q-64 23 -41 82zM463 557h317l-102 344q-30 103 -55 229q-28 -127 -58 -229z" />
<glyph unicode="&#xc1;" horiz-adv-x="1243" d="M74 76l385 1239q9 32 34 50.5t58 18.5h141q33 0 58.5 -18.5t35.5 -50.5l383 -1237q9 -33 -5 -55.5t-46 -22.5h-110q-69 0 -84 63l-86 291h-432l-84 -288q-18 -66 -84 -66h-113q-32 0 -46 21.5t-5 54.5zM395 1571q-10 26 0.5 47t38.5 33l301 131q66 27 90 -31l21 -53 q11 -29 0 -51t-41 -33l-307 -113q-64 -24 -86 29zM463 557h317l-102 344q-30 103 -55 229q-28 -127 -58 -229z" />
<glyph unicode="&#xc2;" horiz-adv-x="1243" d="M74 76l385 1239q9 32 34 50.5t58 18.5h141q33 0 58.5 -18.5t35.5 -50.5l383 -1237q9 -33 -5 -55.5t-46 -22.5h-110q-69 0 -84 63l-86 291h-432l-84 -288q-18 -66 -84 -66h-113q-32 0 -46 21.5t-5 54.5zM349 1625.5q5 20.5 28 33.5l194 113q49 28 101 0l194 -113 q48 -28 19 -76l-31 -49q-14 -22 -35.5 -26.5t-44.5 8.5l-151 98l-154 -98q-22 -14 -43.5 -9.5t-34.5 25.5l-33 51q-14 22 -9 42.5zM463 557h317l-102 344q-30 103 -55 229q-28 -127 -58 -229z" />
<glyph unicode="&#xc3;" horiz-adv-x="1243" d="M74 76l385 1239q9 32 34 50.5t58 18.5h141q33 0 58.5 -18.5t35.5 -50.5l383 -1237q9 -33 -5 -55.5t-46 -22.5h-110q-69 0 -84 63l-86 291h-432l-84 -288q-18 -66 -84 -66h-113q-32 0 -46 21.5t-5 54.5zM342 1696q70 82 164 82q34 0 68 -15t57.5 -33.5t52.5 -33.5t53 -15 q27 0 56 21q44 34 77 -4l25 -27q33 -39 2 -84q-12 -17 -29.5 -32.5t-53.5 -31.5t-77 -16q-34 0 -68.5 15t-57.5 32.5t-52 32.5t-53 15q-33 0 -66 -25q-35 -30 -69 10l-23 25q-35 41 -6 84zM463 557h317l-102 344q-30 103 -55 229q-28 -127 -58 -229z" />
<glyph unicode="&#xc4;" horiz-adv-x="1243" d="M74 76l385 1239q9 32 34 50.5t58 18.5h141q33 0 58.5 -18.5t35.5 -50.5l383 -1237q9 -33 -5 -55.5t-46 -22.5h-110q-69 0 -84 63l-86 291h-432l-84 -288q-18 -66 -84 -66h-113q-32 0 -46 21.5t-5 54.5zM309 1642q0 50 36.5 86.5t84.5 36.5q49 0 84 -36t35 -87 q0 -49 -34.5 -83.5t-84.5 -34.5q-48 0 -84.5 34.5t-36.5 83.5zM463 557h317l-102 344q-30 103 -55 229q-28 -127 -58 -229zM694 1642q0 51 35.5 87t83.5 36q51 0 86 -36t35 -87q0 -49 -35.5 -83.5t-85.5 -34.5q-48 0 -83.5 34.5t-35.5 83.5z" />
<glyph unicode="&#xc5;" horiz-adv-x="1243" d="M74 76l385 1239q9 32 34 50.5t58 18.5h141q33 0 58.5 -18.5t35.5 -50.5l383 -1237q9 -33 -5 -55.5t-46 -22.5h-110q-69 0 -84 63l-86 291h-432l-84 -288q-18 -66 -84 -66h-113q-32 0 -46 21.5t-5 54.5zM424 1675q0 80 58 138.5t141 58.5q79 0 137.5 -58.5t58.5 -138.5 q0 -81 -58 -139.5t-138 -58.5q-83 0 -141 58t-58 140zM463 557h317l-102 344q-30 103 -55 229q-28 -127 -58 -229zM557 1675q0 -27 19.5 -46t46.5 -19t46 19t19 46q0 28 -18.5 47t-46.5 19t-47 -19t-19 -47z" />
<glyph unicode="&#xc6;" horiz-adv-x="1857" d="M94 26.5q-13 26.5 4 57.5l721 1235q18 28 48.5 46.5t62.5 18.5h678q34 0 53.5 -18.5t21.5 -50.5l5 -76q3 -33 -15 -50.5t-51 -17.5h-465l31 -370h409q73 0 64 -70l-10 -69q-8 -66 -80 -66h-369l27 -383h475q72 0 78 -68l4 -77q3 -32 -15 -50t-51 -18h-641 q-32 0 -52.5 19.5t-25.5 52.5l-20 282h-459l-166 -295q-30 -59 -98 -59h-117q-34 0 -47 26.5zM637 557h330l-39 514z" />
<glyph unicode="&#xc7;" horiz-adv-x="1159" d="M121 537v311q0 139 41 247.5t115.5 177t173.5 103.5t219 35q163 0 329 -45q32 -7 46 -31t6 -57l-15 -68q-7 -31 -32.5 -44t-57.5 -5q-3 1 -24 5.5t-26.5 5.5t-25.5 5.5t-29.5 6l-28.5 4.5t-32.5 4t-32.5 3t-37.5 2.5t-37.5 0.5q-145 0 -225 -89t-80 -280v-274 q0 -369 305 -369q121 0 274 35q34 9 58.5 -3t31.5 -44l15 -65q8 -34 -9 -60t-53 -35q-105 -27 -205 -34v-173q0 -64 -22.5 -112t-60.5 -74.5t-81.5 -39.5t-91.5 -13q-50 0 -104 8q-47 13 -41 72l8 61q3 21 20.5 32t43.5 7q32 -4 57 -4q47 0 66.5 21.5t19.5 64.5v147 q-218 19 -347.5 162.5t-129.5 397.5z" />
<glyph unicode="&#xc8;" horiz-adv-x="1083" d="M158 72v1241q0 32 19.5 51.5t51.5 19.5h650q32 0 51.5 -19.5t19.5 -51.5v-70q0 -32 -19.5 -52t-51.5 -20h-476v-370h392q33 0 50.5 -17t16.5 -49l-6 -76q-3 -63 -74 -63h-379v-383h494q32 0 52 -20t20 -52v-69q0 -32 -20 -52t-52 -20h-668q-32 0 -51.5 20t-19.5 52z M340 1696l22 57q23 59 87 31l303 -133q28 -11 39.5 -32.5t1.5 -47.5l-19 -41q-20 -53 -86 -29l-307 113q-64 23 -41 82z" />
<glyph unicode="&#xc9;" horiz-adv-x="1083" d="M158 72v1241q0 32 19.5 51.5t51.5 19.5h650q32 0 51.5 -19.5t19.5 -51.5v-70q0 -32 -19.5 -52t-51.5 -20h-476v-370h392q33 0 50.5 -17t16.5 -49l-6 -76q-3 -63 -74 -63h-379v-383h494q32 0 52 -20t20 -52v-69q0 -32 -20 -52t-52 -20h-668q-32 0 -51.5 20t-19.5 52z M315 1571q-10 26 0.5 47t38.5 33l301 131q66 27 90 -31l21 -53q11 -29 0 -51t-41 -33l-307 -113q-64 -24 -86 29z" />
<glyph unicode="&#xca;" horiz-adv-x="1083" d="M158 72v1241q0 32 19.5 51.5t51.5 19.5h650q32 0 51.5 -19.5t19.5 -51.5v-70q0 -32 -19.5 -52t-51.5 -20h-476v-370h392q33 0 50.5 -17t16.5 -49l-6 -76q-3 -63 -74 -63h-379v-383h494q32 0 52 -20t20 -52v-69q0 -32 -20 -52t-52 -20h-668q-32 0 -51.5 20t-19.5 52z M291 1583q-30 48 18 76l195 113q48 28 100 0l195 -113q47 -28 18 -76l-31 -49q-29 -47 -79 -18l-152 98l-154 -98q-22 -14 -43 -9.5t-34 25.5z" />
<glyph unicode="&#xcb;" horiz-adv-x="1083" d="M158 72v1241q0 32 19.5 51.5t51.5 19.5h650q32 0 51.5 -19.5t19.5 -51.5v-70q0 -32 -19.5 -52t-51.5 -20h-476v-370h392q33 0 50.5 -17t16.5 -49l-6 -76q-3 -63 -74 -63h-379v-383h494q32 0 52 -20t20 -52v-69q0 -32 -20 -52t-52 -20h-668q-32 0 -51.5 20t-19.5 52z M248 1642q0 50 36.5 86.5t84.5 36.5q49 0 83.5 -36t34.5 -87q0 -50 -34.5 -84t-83.5 -34q-48 0 -84.5 34.5t-36.5 83.5zM633 1642q0 51 35.5 87t83.5 36q51 0 85.5 -36t34.5 -87q0 -49 -35 -83.5t-85 -34.5q-48 0 -83.5 34.5t-35.5 83.5z" />
<glyph unicode="&#xcc;" horiz-adv-x="561" d="M53 1696l23 57q23 58 86 31l303 -133q28 -11 39.5 -32.5t1.5 -47.5l-19 -41q-20 -53 -86 -29l-307 113q-64 23 -41 82zM158 72v1241q0 32 19.5 51.5t51.5 19.5h103q32 0 51.5 -19.5t19.5 -51.5v-1241q0 -32 -19.5 -52t-51.5 -20h-103q-32 0 -51.5 20t-19.5 52z" />
<glyph unicode="&#xcd;" horiz-adv-x="561" d="M53 1571q-10 26 0.5 47t38.5 33l301 131q66 27 90 -31l21 -53q11 -29 0 -51t-41 -33l-307 -113q-64 -24 -86 29zM158 72v1241q0 32 19.5 51.5t51.5 19.5h103q32 0 51.5 -19.5t19.5 -51.5v-1241q0 -32 -19.5 -52t-51.5 -20h-103q-32 0 -51.5 20t-19.5 52z" />
<glyph unicode="&#xce;" horiz-adv-x="561" d="M5 1625.5q5 20.5 28 33.5l194 113q49 28 101 0l194 -113q48 -28 19 -76l-31 -49q-14 -22 -35.5 -26.5t-44.5 8.5l-151 98l-154 -98q-22 -14 -43.5 -9.5t-34.5 25.5l-33 51q-14 22 -9 42.5zM158 72v1241q0 32 19.5 51.5t51.5 19.5h103q32 0 51.5 -19.5t19.5 -51.5v-1241 q0 -32 -19.5 -52t-51.5 -20h-103q-32 0 -51.5 20t-19.5 52z" />
<glyph unicode="&#xcf;" horiz-adv-x="561" d="M-33 1642q0 50 36.5 86.5t84.5 36.5q49 0 84 -36t35 -87q0 -49 -34.5 -83.5t-84.5 -34.5q-48 0 -84.5 34.5t-36.5 83.5zM158 72v1241q0 32 19.5 51.5t51.5 19.5h103q32 0 51.5 -19.5t19.5 -51.5v-1241q0 -32 -19.5 -52t-51.5 -20h-103q-32 0 -51.5 20t-19.5 52zM352 1642 q0 51 35.5 87t83.5 36q51 0 86 -36t35 -87q0 -49 -35.5 -83.5t-85.5 -34.5q-48 0 -83.5 34.5t-35.5 83.5z" />
<glyph unicode="&#xd0;" horiz-adv-x="1290" d="M29 670v49q0 26 15.5 41.5t41.5 15.5h72v447q0 34 19.5 60.5t51.5 37.5q262 90 435 90q104 0 195 -34t161 -98t110.5 -163t40.5 -221v-391q0 -247 -133 -375.5t-374 -128.5h-435q-32 0 -51.5 20t-19.5 52v538h-72q-26 0 -41.5 16.5t-15.5 43.5zM403 213h261 q136 0 198 70.5t62 236.5v354q0 159 -70 241.5t-190 82.5q-125 0 -261 -47v-375h203q27 0 43.5 -15.5t16.5 -41.5v-49q0 -26 -17 -43t-43 -17h-203v-397z" />
<glyph unicode="&#xd1;" horiz-adv-x="1292" d="M158 72v1241q0 32 19.5 51.5t51.5 19.5h68q58 0 98 -65l500 -834q-6 114 -6 205v623q0 32 20 51.5t52 19.5h104q32 0 52 -19.5t20 -51.5v-1241q0 -32 -20 -52t-52 -20h-72q-60 0 -100 66l-498 825q8 -104 8 -211v-608q0 -32 -19.5 -52t-51.5 -20h-103q-32 0 -51.5 20 t-19.5 52zM367 1696q70 82 163 82q34 0 68 -15t57.5 -33.5t53 -33.5t53.5 -15q26 0 55 21q45 35 78 -4l25 -27q33 -39 2 -84q-12 -17 -29.5 -32.5t-53.5 -31.5t-77 -16q-34 0 -68.5 15t-58 32.5t-52.5 32.5t-53 15q-32 0 -65 -25q-35 -31 -70 10l-22 25q-35 41 -6 84z" />
<glyph unicode="&#xd2;" d="M121 537v307q0 138 41.5 247.5t114 178.5t168 105t206.5 36t206.5 -36t168.5 -105t114.5 -178.5t41.5 -247.5v-307q0 -138 -41.5 -247t-114.5 -177.5t-168.5 -104t-206.5 -35.5t-206.5 35.5t-168 104t-114 177.5t-41.5 247zM367 555q0 -192 76 -280.5t208 -88.5 q131 0 207 89t76 280v274q0 189 -76.5 279t-206.5 90q-132 0 -208 -90t-76 -279v-274zM424 1696l22 57q23 58 86 31l304 -133q28 -11 39.5 -32.5t1.5 -47.5l-19 -41q-20 -53 -86 -29l-307 113q-64 23 -41 82z" />
<glyph unicode="&#xd3;" d="M121 537v307q0 138 41.5 247.5t114 178.5t168 105t206.5 36t206.5 -36t168.5 -105t114.5 -178.5t41.5 -247.5v-307q0 -138 -41.5 -247t-114.5 -177.5t-168.5 -104t-206.5 -35.5t-206.5 35.5t-168 104t-114 177.5t-41.5 247zM367 555q0 -192 76 -280.5t208 -88.5 q131 0 207 89t76 280v274q0 189 -76.5 279t-206.5 90q-132 0 -208 -90t-76 -279v-274zM416 1571q-10 26 0.5 47t38.5 33l301 131q66 27 90 -31l20 -53q11 -29 0 -51t-41 -33l-307 -113q-64 -24 -86 29z" />
<glyph unicode="&#xd4;" d="M121 537v307q0 138 41.5 247.5t114 178.5t168 105t206.5 36t206.5 -36t168.5 -105t114.5 -178.5t41.5 -247.5v-307q0 -138 -41.5 -247t-114.5 -177.5t-168.5 -104t-206.5 -35.5t-206.5 35.5t-168 104t-114 177.5t-41.5 247zM367 555q0 -192 76 -280.5t208 -88.5 q131 0 207 89t76 280v274q0 189 -76.5 279t-206.5 90q-132 0 -208 -90t-76 -279v-274zM385 1583q-30 48 18 76l195 113q48 28 100 0l195 -113q47 -28 18 -76l-30 -49q-14 -22 -35.5 -26.5t-44.5 8.5l-152 98l-153 -98q-22 -14 -43.5 -9.5t-34.5 25.5z" />
<glyph unicode="&#xd5;" d="M121 537v307q0 138 41.5 247.5t114 178.5t168 105t206.5 36t206.5 -36t168.5 -105t114.5 -178.5t41.5 -247.5v-307q0 -138 -41.5 -247t-114.5 -177.5t-168.5 -104t-206.5 -35.5t-206.5 35.5t-168 104t-114 177.5t-41.5 247zM367 555q0 -192 76 -280.5t208 -88.5 q131 0 207 89t76 280v274q0 189 -76.5 279t-206.5 90q-132 0 -208 -90t-76 -279v-274zM371 1696q70 82 164 82q34 0 68 -15t57.5 -33.5t52.5 -33.5t53 -15q26 0 55 21q45 35 78 -4l25 -27q33 -39 2 -84q-12 -17 -29.5 -32.5t-53.5 -31.5t-77 -16q-34 0 -68.5 15t-57.5 32.5 t-52 32.5t-53 15q-33 0 -66 -25q-35 -31 -70 10l-22 25q-35 41 -6 84z" />
<glyph unicode="&#xd6;" d="M121 537v307q0 138 41.5 247.5t114 178.5t168 105t206.5 36t206.5 -36t168.5 -105t114.5 -178.5t41.5 -247.5v-307q0 -138 -41.5 -247t-114.5 -177.5t-168.5 -104t-206.5 -35.5t-206.5 35.5t-168 104t-114 177.5t-41.5 247zM338 1642q0 50 36.5 86.5t84.5 36.5 q49 0 84 -36t35 -87q0 -49 -34.5 -83.5t-84.5 -34.5q-48 0 -84.5 34.5t-36.5 83.5zM367 555q0 -192 76 -280.5t208 -88.5q131 0 207 89t76 280v274q0 189 -76.5 279t-206.5 90q-132 0 -208 -90t-76 -279v-274zM723 1642q0 51 35.5 87t83.5 36q51 0 86 -36t35 -87 q0 -49 -35.5 -83.5t-85.5 -34.5q-48 0 -83.5 34.5t-35.5 83.5z" />
<glyph unicode="&#xd7;" horiz-adv-x="1038" d="M153 309q0 28 23 51l201 201l-199 201q-23 23 -23 51t23 51l39 39q23 23 51 23t51 -23l201 -201l201 201q23 23 51 23t51 -23l39 -39q23 -23 23 -51t-23 -51l-200 -201l200 -201q23 -23 23 -51t-23 -51l-39 -41q-23 -23 -51 -23t-51 23l-201 199l-201 -201 q-23 -23 -51 -23t-51 23l-41 43q-23 23 -23 51z" />
<glyph unicode="&#xd8;" d="M121 537v307q0 138 41.5 247.5t114 178.5t168 105t206.5 36q121 0 230 -45l47 94q10 25 31.5 32t46.5 -5l49 -23q45 -23 22 -73l-57 -117q162 -152 162 -430v-307q0 -138 -41.5 -247t-114.5 -177.5t-168.5 -104t-206.5 -35.5q-129 0 -241 50l-48 -99q-23 -53 -75 -28 l-47 24q-49 24 -25 78l57 119q-151 148 -151 420zM367 555q0 -107 26 -190l391 802q-60 31 -133 31q-132 0 -208 -90t-76 -279v-274zM506 219q62 -33 145 -33q131 0 207 89t76 280v274q0 114 -33 201z" />
<glyph unicode="&#xd9;" d="M147 455v858q0 32 20 51.5t52 19.5h103q32 0 51.5 -19.5t19.5 -51.5v-840q0 -130 71 -208.5t187 -78.5q115 0 186.5 78.5t71.5 208.5v840q0 32 20 51.5t52 19.5h102q32 0 52 -19.5t20 -51.5v-858q0 -211 -146.5 -346.5t-357.5 -135.5t-357.5 135.5t-146.5 346.5z M424 1696l22 57q23 58 86 31l304 -133q28 -11 39.5 -32.5t1.5 -47.5l-19 -41q-20 -53 -86 -29l-307 113q-64 23 -41 82z" />
<glyph unicode="&#xda;" d="M147 455v858q0 32 20 51.5t52 19.5h103q32 0 51.5 -19.5t19.5 -51.5v-840q0 -130 71 -208.5t187 -78.5q115 0 186.5 78.5t71.5 208.5v840q0 32 20 51.5t52 19.5h102q32 0 52 -19.5t20 -51.5v-858q0 -211 -146.5 -346.5t-357.5 -135.5t-357.5 135.5t-146.5 346.5z M422 1571q-10 26 0.5 47t38.5 33l301 131q66 27 90 -31l20 -53q11 -29 0 -51t-41 -33l-307 -113q-64 -24 -86 29z" />
<glyph unicode="&#xdb;" d="M147 455v858q0 32 20 51.5t52 19.5h103q32 0 51.5 -19.5t19.5 -51.5v-840q0 -130 71 -208.5t187 -78.5q115 0 186.5 78.5t71.5 208.5v840q0 32 20 51.5t52 19.5h102q32 0 52 -19.5t20 -51.5v-858q0 -211 -146.5 -346.5t-357.5 -135.5t-357.5 135.5t-146.5 346.5z M385 1583q-30 48 18 76l195 113q48 28 100 0l195 -113q47 -28 18 -76l-30 -49q-14 -22 -35.5 -26.5t-44.5 8.5l-152 98l-153 -98q-22 -14 -43.5 -9.5t-34.5 25.5z" />
<glyph unicode="&#xdc;" d="M147 455v858q0 32 20 51.5t52 19.5h103q32 0 51.5 -19.5t19.5 -51.5v-840q0 -130 71 -208.5t187 -78.5q115 0 186.5 78.5t71.5 208.5v840q0 32 20 51.5t52 19.5h102q32 0 52 -19.5t20 -51.5v-858q0 -211 -146.5 -346.5t-357.5 -135.5t-357.5 135.5t-146.5 346.5z M338 1642q0 50 36.5 86.5t84.5 36.5q49 0 84 -36t35 -87q0 -49 -34.5 -83.5t-84.5 -34.5q-48 0 -84.5 34.5t-36.5 83.5zM723 1642q0 51 35.5 87t83.5 36q51 0 86 -36t35 -87q0 -49 -35.5 -83.5t-85.5 -34.5q-48 0 -83.5 34.5t-35.5 83.5z" />
<glyph unicode="&#xdd;" horiz-adv-x="1167" d="M77.5 1361q13.5 23 45.5 23h119q65 0 94 -67l248 -537l247 537q29 67 95 67h118q34 0 47.5 -22.5t-1.5 -54.5l-383 -779v-456q0 -32 -20 -52t-52 -20h-103q-32 0 -51.5 20t-19.5 52v456l-383 779q-14 31 -0.5 54zM356 1571q-10 26 0.5 47t38.5 33l301 131q66 27 90 -31 l21 -53q11 -29 0 -51t-41 -33l-307 -113q-64 -24 -86 29z" />
<glyph unicode="&#xde;" horiz-adv-x="1134" d="M158 72v1241q0 32 19.5 51.5t51.5 19.5h103q32 0 51.5 -19.5t19.5 -51.5v-199h232q129 0 230 -60t153.5 -158t52.5 -214q0 -115 -52.5 -212t-153.5 -156.5t-230 -59.5h-232v-182q0 -32 -19.5 -52t-51.5 -20h-103q-32 0 -51.5 20t-19.5 52zM403 465h224q90 0 141 59.5 t51 157.5t-51 157.5t-141 59.5h-224v-434z" />
<glyph unicode="&#xdf;" horiz-adv-x="1267" d="M41 956v50q0 26 16.5 41.5t42.5 15.5h80v111q0 165 101.5 258.5t263.5 93.5q170 0 277.5 -87t107.5 -257q0 -58 -19.5 -110t-48 -89t-56.5 -70.5t-47.5 -68.5t-19.5 -70q0 -37 25 -64t64.5 -45.5t88 -36.5t96.5 -43.5t87.5 -60.5t64.5 -93.5t25 -135.5q0 -62 -25 -119 t-72.5 -102.5t-124.5 -73t-173 -27.5q-126 0 -254 39q-30 9 -42.5 33t-4.5 55l14 62q6 30 30 43t54 4q123 -29 203 -29q69 0 114 32t45 79q0 40 -24 69.5t-62.5 49t-85 38.5t-93 44.5t-85 59.5t-62.5 90.5t-24 131.5q0 62 18.5 114.5t45.5 88t54 66.5t45.5 65t18.5 68 q0 68 -39.5 105.5t-103.5 37.5q-62 0 -99.5 -40t-37.5 -124v-1083q0 -32 -20 -52t-52 -20h-96q-32 0 -52 20t-20 52v825h-80q-26 0 -42.5 16.5t-16.5 42.5z" />
<glyph unicode="&#xe0;" horiz-adv-x="1005" d="M86 328q0 159 108.5 243t292.5 84h168v39q0 91 -43.5 140t-124.5 49q-82 0 -219 -31q-32 -9 -55 5t-31 46l-14 51q-9 33 5.5 58.5t45.5 34.5q147 43 268 43q185 0 297.5 -107.5t112.5 -288.5v-366q0 -150 -119.5 -252.5t-285.5 -102.5q-172 0 -289 102t-117 253z M262 1405l23 57q23 58 86 31l303 -133q28 -11 39.5 -32.5t1.5 -47.5l-19 -41q-20 -53 -86 -29l-307 113q-64 23 -41 82zM330 332q0 -62 42.5 -107t119.5 -45q73 0 118 44.5t45 103.5v151h-170q-81 0 -118 -41t-37 -106z" />
<glyph unicode="&#xe1;" horiz-adv-x="1005" d="M86 328q0 159 108.5 243t292.5 84h168v39q0 91 -43.5 140t-124.5 49q-82 0 -219 -31q-32 -9 -55 5t-31 46l-14 51q-9 33 5.5 58.5t45.5 34.5q147 43 268 43q185 0 297.5 -107.5t112.5 -288.5v-366q0 -150 -119.5 -252.5t-285.5 -102.5q-172 0 -289 102t-117 253z M242 1280q-10 26 0.5 47t38.5 33l301 131q66 27 90 -31l20 -53q11 -29 0 -51t-41 -33l-307 -113q-64 -24 -86 29zM330 332q0 -62 42.5 -107t119.5 -45q73 0 118 44.5t45 103.5v151h-170q-81 0 -118 -41t-37 -106z" />
<glyph unicode="&#xe2;" horiz-adv-x="1005" d="M86 328q0 159 108.5 243t292.5 84h168v39q0 91 -43.5 140t-124.5 49q-82 0 -219 -31q-32 -9 -55 5t-31 46l-14 51q-9 33 5.5 58.5t45.5 34.5q147 43 268 43q185 0 297.5 -107.5t112.5 -288.5v-366q0 -150 -119.5 -252.5t-285.5 -102.5q-172 0 -289 102t-117 253z M212 1334.5q5 20.5 28 33.5l194 113q49 28 101 0l194 -113q48 -28 19 -76l-31 -49q-14 -22 -35.5 -26.5t-44.5 8.5l-152 98l-153 -98q-22 -14 -43.5 -9.5t-34.5 25.5l-33 51q-14 22 -9 42.5zM330 332q0 -62 42.5 -107t119.5 -45q73 0 118 44.5t45 103.5v151h-170 q-81 0 -118 -41t-37 -106z" />
<glyph unicode="&#xe3;" horiz-adv-x="1005" d="M86 328q0 159 108.5 243t292.5 84h168v39q0 91 -43.5 140t-124.5 49q-82 0 -219 -31q-32 -9 -55 5t-31 46l-14 51q-9 33 5.5 58.5t45.5 34.5q147 43 268 43q185 0 297.5 -107.5t112.5 -288.5v-366q0 -150 -119.5 -252.5t-285.5 -102.5q-172 0 -289 102t-117 253z M211 1405q70 82 164 82q42 0 84.5 -24t79.5 -48t67 -24q28 0 56 20q44 34 77 -4l25 -27q33 -39 2 -84q-12 -17 -29.5 -32.5t-53.5 -31t-77 -15.5q-34 0 -68.5 14.5t-57.5 32.5t-52 32.5t-53 14.5q-33 0 -66 -25q-35 -30 -69 10l-23 25q-35 41 -6 84zM330 332 q0 -62 42.5 -107t119.5 -45q73 0 118 44.5t45 103.5v151h-170q-81 0 -118 -41t-37 -106z" />
<glyph unicode="&#xe4;" horiz-adv-x="1005" d="M86 328q0 159 108.5 243t292.5 84h168v39q0 91 -43.5 140t-124.5 49q-82 0 -219 -31q-32 -9 -55 5t-31 46l-14 51q-9 33 5.5 58.5t45.5 34.5q147 43 268 43q185 0 297.5 -107.5t112.5 -288.5v-366q0 -150 -119.5 -252.5t-285.5 -102.5q-172 0 -289 102t-117 253z M176 1352q0 50 36.5 86.5t84.5 36.5q49 0 84 -36t35 -87q0 -50 -35 -84.5t-84 -34.5q-48 0 -84.5 35t-36.5 84zM330 332q0 -62 42.5 -107t119.5 -45q73 0 118 44.5t45 103.5v151h-170q-81 0 -118 -41t-37 -106zM561 1352q0 51 35.5 87t83.5 36q51 0 86 -36t35 -87 q0 -49 -35.5 -84t-85.5 -35q-48 0 -83.5 35t-35.5 84z" />
<glyph unicode="&#xe5;" horiz-adv-x="1005" d="M86 328q0 159 108.5 243t292.5 84h168v39q0 91 -43.5 140t-124.5 49q-82 0 -219 -31q-32 -9 -55 5t-31 46l-14 51q-9 33 5.5 58.5t45.5 34.5q147 43 268 43q185 0 297.5 -107.5t112.5 -288.5v-366q0 -150 -119.5 -252.5t-285.5 -102.5q-172 0 -289 102t-117 253z M297 1384q0 80 58 138.5t141 58.5q79 0 137.5 -58.5t58.5 -138.5q0 -81 -58 -139.5t-138 -58.5q-83 0 -141 58t-58 140zM330 332q0 -62 42.5 -107t119.5 -45q73 0 118 44.5t45 103.5v151h-170q-81 0 -118 -41t-37 -106zM430 1384q0 -26 19 -45.5t47 -19.5q27 0 46 19t19 46 q0 28 -18.5 47t-46.5 19t-47 -19t-19 -47z" />
<glyph unicode="&#xe6;" horiz-adv-x="1595" d="M86 328q0 159 108.5 243t292.5 84h168v39q0 91 -43.5 140t-124.5 49q-87 0 -219 -31q-32 -9 -55 5t-31 46l-14 53q-9 30 6 56.5t45 34.5q154 43 268 43q187 0 293 -115q112 115 293 115q178 0 300 -113t122 -289v-153q0 -32 -20 -52t-52 -20h-532v-39q0 -122 56 -183 t161 -61q94 0 221 31q32 9 54 -3.5t30 -43.5l14 -60q7 -35 -6.5 -60t-44.5 -34q-136 -37 -268 -37q-206 0 -326 117q-112 -117 -290 -117q-172 0 -289 102t-117 253zM330 332q0 -62 42.5 -107t119.5 -45q119 0 186 84q-21 71 -21 160v55h-172q-81 0 -118 -41t-37 -106z M891 639h364v49q0 85 -50 140t-132 55q-81 0 -131.5 -56t-50.5 -153v-35z" />
<glyph unicode="&#xe7;" horiz-adv-x="970" d="M111 438v187q0 119 33.5 209.5t95 145.5t143.5 82.5t184 27.5q106 0 238 -31q67 -18 51 -88l-14 -60q-9 -33 -32 -46t-54 -7q-110 25 -178 25q-113 0 -170.5 -62t-57.5 -200v-177q0 -140 57.5 -202t170.5 -62q82 0 176 23q70 18 86 -45l16 -68q8 -30 -5 -53.5t-46 -32.5 q-96 -21 -150 -27v-170q0 -64 -22.5 -112t-60.5 -74.5t-81.5 -39.5t-91.5 -13q-50 0 -104 8q-47 13 -41 72l8 61q3 21 20.5 32t43.5 7q32 -4 57 -4q47 0 66.5 21.5t19.5 64.5v150q-168 24 -263 138t-95 320z" />
<glyph unicode="&#xe8;" horiz-adv-x="1052" d="M111 424v225q0 139 57 240.5t151 151t211 49.5q178 0 300 -113t122 -289v-153q0 -32 -19.5 -52t-51.5 -20h-533v-39q0 -122 56 -183t161 -61q98 0 219 31q33 8 56 -4.5t30 -42.5l15 -62q7 -34 -6.5 -58.5t-44.5 -33.5q-136 -37 -269 -37q-208 0 -331 117.5t-123 333.5z M301 1405l23 57q23 58 86 31l303 -133q28 -11 39.5 -32.5t1.5 -47.5l-19 -41q-20 -53 -86 -29l-307 113q-64 23 -41 82zM348 639h365v49q0 85 -50.5 140t-132.5 55q-81 0 -131.5 -56t-50.5 -153v-35z" />
<glyph unicode="&#xe9;" horiz-adv-x="1052" d="M111 424v225q0 139 57 240.5t151 151t211 49.5q178 0 300 -113t122 -289v-153q0 -32 -19.5 -52t-51.5 -20h-533v-39q0 -122 56 -183t161 -61q98 0 219 31q33 8 56 -4.5t30 -42.5l15 -62q7 -34 -6.5 -58.5t-44.5 -33.5q-136 -37 -269 -37q-208 0 -331 117.5t-123 333.5z M287 1280q-10 26 0.5 47t38.5 33l301 131q66 27 90 -31l20 -53q11 -29 0 -51t-41 -33l-307 -113q-64 -24 -86 29zM348 639h365v49q0 85 -50.5 140t-132.5 55q-81 0 -131.5 -56t-50.5 -153v-35z" />
<glyph unicode="&#xea;" horiz-adv-x="1052" d="M111 424v225q0 139 57 240.5t151 151t211 49.5q178 0 300 -113t122 -289v-153q0 -32 -19.5 -52t-51.5 -20h-533v-39q0 -122 56 -183t161 -61q98 0 219 31q33 8 56 -4.5t30 -42.5l15 -62q7 -34 -6.5 -58.5t-44.5 -33.5q-136 -37 -269 -37q-208 0 -331 117.5t-123 333.5z M255 1334.5q5 20.5 28 33.5l194 113q49 28 101 0l194 -113q48 -28 19 -76l-31 -49q-14 -22 -35.5 -26.5t-44.5 8.5l-152 98l-153 -98q-22 -14 -43.5 -9.5t-34.5 25.5l-33 51q-14 22 -9 42.5zM348 639h365v49q0 85 -50.5 140t-132.5 55q-81 0 -131.5 -56t-50.5 -153v-35z" />
<glyph unicode="&#xeb;" horiz-adv-x="1052" d="M111 424v225q0 139 57 240.5t151 151t211 49.5q178 0 300 -113t122 -289v-153q0 -32 -19.5 -52t-51.5 -20h-533v-39q0 -122 56 -183t161 -61q98 0 219 31q33 8 56 -4.5t30 -42.5l15 -62q7 -34 -6.5 -58.5t-44.5 -33.5q-136 -37 -269 -37q-208 0 -331 117.5t-123 333.5z M213 1352q0 50 36.5 86.5t84.5 36.5q49 0 84 -36t35 -87q0 -50 -34.5 -84.5t-84.5 -34.5q-48 0 -84.5 35t-36.5 84zM348 639h365v49q0 85 -50.5 140t-132.5 55q-81 0 -131.5 -56t-50.5 -153v-35zM598 1352q0 51 35.5 87t83.5 36q51 0 86 -36t35 -87q0 -49 -35.5 -84 t-85.5 -35q-48 0 -83.5 35t-35.5 84z" />
<glyph unicode="&#xec;" horiz-adv-x="534" d="M41 1405l22 57q23 59 87 31l303 -133q28 -11 39.5 -32.5t1.5 -47.5l-19 -41q-20 -53 -86 -29l-307 113q-64 23 -41 82zM147 72v919q0 32 20 52t52 20h96q32 0 52 -20t20 -52v-919q0 -32 -20 -52t-52 -20h-96q-32 0 -52 20t-20 52z" />
<glyph unicode="&#xed;" horiz-adv-x="534" d="M43 1280q-10 26 0.5 47t38.5 33l301 131q66 27 90 -31l21 -53q11 -29 0 -51t-41 -33l-308 -113q-64 -24 -86 29zM147 72v919q0 32 20 52t52 20h96q32 0 52 -20t20 -52v-919q0 -32 -20 -52t-52 -20h-96q-32 0 -52 20t-20 52z" />
<glyph unicode="&#xee;" horiz-adv-x="534" d="M2 1292q-30 48 18 76l195 113q48 28 100 0l195 -113q47 -28 18 -76l-30 -49q-14 -22 -35.5 -26.5t-44.5 8.5l-152 98l-153 -98q-22 -14 -43.5 -9.5t-34.5 25.5zM147 72v919q0 32 20 52t52 20h96q32 0 52 -20t20 -52v-919q0 -32 -20 -52t-52 -20h-96q-32 0 -52 20t-20 52z " />
<glyph unicode="&#xef;" horiz-adv-x="534" d="M-45 1352q0 50 36.5 86.5t84.5 36.5q49 0 84 -36t35 -87q0 -50 -34.5 -84.5t-84.5 -34.5q-48 0 -84.5 35t-36.5 84zM147 72v919q0 32 20 52t52 20h96q32 0 52 -20t20 -52v-919q0 -32 -20 -52t-52 -20h-96q-32 0 -52 20t-20 52zM340 1352q0 51 35.5 87t83.5 36 q51 0 86 -36t35 -87q0 -49 -35.5 -84t-85.5 -35q-48 0 -83.5 35t-35.5 84z" />
<glyph unicode="&#xf0;" horiz-adv-x="1103" d="M111 426v141q0 112 34.5 200.5t94 142.5t135 82t160.5 28q140 0 231 -59v94q0 217 -145 254l-48 -135q-8 -25 -26 -34.5t-43 -2.5l-43 16q-27 7 -36.5 27.5t-0.5 48.5l31 86q-48 -6 -127 -23q-33 -8 -57 6t-31 48l-9 38q-9 33 6 58t46 33q146 38 237 41l41 116 q9 25 28.5 35.5t43.5 1.5l47 -16q24 -8 33 -27t0 -45l-29 -82q146 -35 227.5 -145.5t81.5 -298.5v-629q0 -108 -35 -195t-95.5 -142.5t-140 -85.5t-171.5 -30q-91 0 -170 30t-139.5 85.5t-95.5 142.5t-35 195zM348 436q0 -130 56 -193t147 -63t148 63.5t57 192.5v324 q-94 53 -203 53q-91 0 -148 -61t-57 -195v-121z" />
<glyph unicode="&#xf1;" horiz-adv-x="1118" d="M137 72v579q0 207 120.5 323t303.5 116q181 0 300.5 -116t119.5 -323v-579q0 -32 -20 -52t-52 -20h-96q-32 0 -52 20t-20 52v569q0 118 -48 180t-132 62q-85 0 -135.5 -62.5t-50.5 -179.5v-569q0 -32 -20 -52t-52 -20h-94q-32 0 -52 20t-20 52zM281 1405q70 82 163 82 q42 0 84.5 -24t80 -48t67.5 -24q27 0 55 20q45 35 78 -4l25 -27q33 -39 2 -84q-12 -17 -29.5 -32.5t-53.5 -31t-77 -15.5q-43 0 -85.5 23.5t-79.5 47t-67 23.5q-32 0 -65 -25q-35 -31 -70 10l-22 25q-35 41 -6 84z" />
<glyph unicode="&#xf2;" horiz-adv-x="1103" d="M111 440v185q0 220 122 342.5t318 122.5q198 0 320 -122.5t122 -344.5v-183q0 -220 -122.5 -343.5t-319.5 -123.5q-196 0 -318 123.5t-122 343.5zM326 1405l22 57q23 58 86 31l303 -133q28 -11 39.5 -32.5t1.5 -47.5l-18 -41q-20 -53 -86 -29l-307 113q-64 23 -41 82z M348 451q0 -271 203 -271q205 0 205 271v161q0 271 -205 271q-203 0 -203 -271v-161z" />
<glyph unicode="&#xf3;" horiz-adv-x="1103" d="M111 440v185q0 220 122 342.5t318 122.5q198 0 320 -122.5t122 -344.5v-183q0 -220 -122.5 -343.5t-319.5 -123.5q-196 0 -318 123.5t-122 343.5zM326 1280q-10 26 0.5 47t38.5 33l301 131q66 27 90 -31l20 -53q11 -29 0 -51t-41 -33l-307 -113q-64 -24 -86 29zM348 451 q0 -271 203 -271q205 0 205 271v161q0 271 -205 271q-203 0 -203 -271v-161z" />
<glyph unicode="&#xf4;" horiz-adv-x="1103" d="M111 440v185q0 220 122 342.5t318 122.5q198 0 320 -122.5t122 -344.5v-183q0 -220 -122.5 -343.5t-319.5 -123.5q-196 0 -318 123.5t-122 343.5zM289 1292q-30 48 18 76l195 113q48 28 100 0l195 -113q47 -28 18 -76l-31 -49q-29 -47 -79 -18l-152 98l-154 -98 q-22 -14 -43 -9.5t-34 25.5zM348 451q0 -271 203 -271q205 0 205 271v161q0 271 -205 271q-203 0 -203 -271v-161z" />
<glyph unicode="&#xf5;" horiz-adv-x="1103" d="M111 440v185q0 220 122 342.5t318 122.5q198 0 320 -122.5t122 -344.5v-183q0 -220 -122.5 -343.5t-319.5 -123.5q-196 0 -318 123.5t-122 343.5zM272 1405q70 82 164 82q42 0 84.5 -24t80 -48t67.5 -24q27 0 55 20q45 35 78 -4l24 -27q33 -39 2 -84q-57 -79 -159 -79 q-43 0 -85.5 23.5t-79.5 47t-67 23.5q-32 0 -65 -25q-35 -31 -70 10l-22 25q-36 42 -7 84zM348 451q0 -271 203 -271q205 0 205 271v161q0 271 -205 271q-203 0 -203 -271v-161z" />
<glyph unicode="&#xf6;" horiz-adv-x="1103" d="M111 440v185q0 220 122 342.5t318 122.5q198 0 320 -122.5t122 -344.5v-183q0 -220 -122.5 -343.5t-319.5 -123.5q-196 0 -318 123.5t-122 343.5zM240 1352q0 50 36 86.5t84 36.5q49 0 84 -36t35 -87q0 -50 -34.5 -84.5t-84.5 -34.5q-48 0 -84 35t-36 84zM348 451 q0 -271 203 -271q205 0 205 271v161q0 271 -205 271q-203 0 -203 -271v-161zM625 1352q0 51 35 87t83 36q51 0 86 -36t35 -87q0 -49 -35.5 -84t-85.5 -35q-48 0 -83 35t-35 84z" />
<glyph unicode="&#xf8;" horiz-adv-x="1103" d="M111 440v185q0 220 122 342.5t318 122.5q88 0 170 -29l47 96q12 23 32.5 30.5t43.5 -3.5l43 -23q45 -22 22 -74l-53 -108q137 -124 137 -356v-183q0 -220 -122.5 -343.5t-319.5 -123.5q-87 0 -172 29l-43 -90q-11 -23 -29.5 -31.5t-42.5 2.5l-45 25q-49 21 -22 76l49 100 q-135 125 -135 356zM348 451q0 -75 14 -127l267 546q-37 13 -78 13q-203 0 -203 -271v-161zM473 193q37 -13 78 -13q205 0 205 271v161q0 66 -17 129z" />
<glyph unicode="&#xf9;" horiz-adv-x="1118" d="M137 412v579q0 32 20 52t52 20h94q32 0 52 -20t20 -52v-569q0 -117 49.5 -179.5t134.5 -62.5q84 0 133 62.5t49 179.5v569q0 32 20 52t52 20h96q32 0 52 -20t20 -52v-579q0 -139 -58.5 -240t-152.5 -150t-211 -49q-119 0 -213 49t-151.5 150t-57.5 240zM334 1405l22 57 q23 58 86 31l303 -133q28 -11 39.5 -32.5t1.5 -47.5l-18 -41q-20 -53 -86 -29l-307 113q-64 23 -41 82z" />
<glyph unicode="&#xfa;" horiz-adv-x="1118" d="M137 412v579q0 32 20 52t52 20h94q32 0 52 -20t20 -52v-569q0 -117 49.5 -179.5t134.5 -62.5q84 0 133 62.5t49 179.5v569q0 32 20 52t52 20h96q32 0 52 -20t20 -52v-579q0 -139 -58.5 -240t-152.5 -150t-211 -49q-119 0 -213 49t-151.5 150t-57.5 240zM313 1280 q-10 26 0.5 47t38.5 33l301 131q66 27 90 -31l21 -53q11 -29 0 -51t-41 -33l-307 -113q-64 -24 -86 29z" />
<glyph unicode="&#xfb;" horiz-adv-x="1118" d="M137 412v579q0 32 20 52t52 20h94q32 0 52 -20t20 -52v-569q0 -117 49.5 -179.5t134.5 -62.5q84 0 133 62.5t49 179.5v569q0 32 20 52t52 20h96q32 0 52 -20t20 -52v-579q0 -139 -58.5 -240t-152.5 -150t-211 -49q-119 0 -213 49t-151.5 150t-57.5 240zM295 1292 q-30 48 18 76l195 113q48 28 100 0l195 -113q47 -28 18 -76l-30 -49q-14 -22 -35.5 -26.5t-44.5 8.5l-152 98l-153 -98q-22 -14 -43.5 -9.5t-34.5 25.5z" />
<glyph unicode="&#xfc;" horiz-adv-x="1118" d="M137 412v579q0 32 20 52t52 20h94q32 0 52 -20t20 -52v-569q0 -117 49.5 -179.5t134.5 -62.5q84 0 133 62.5t49 179.5v569q0 32 20 52t52 20h96q32 0 52 -20t20 -52v-579q0 -139 -58.5 -240t-152.5 -150t-211 -49q-119 0 -213 49t-151.5 150t-57.5 240zM246 1352 q0 50 36.5 86.5t84.5 36.5q49 0 83.5 -36t34.5 -87q0 -50 -34.5 -84.5t-83.5 -34.5q-48 0 -84.5 35t-36.5 84zM631 1352q0 51 35.5 87t83.5 36q51 0 85.5 -36t34.5 -87q0 -49 -35 -84t-85 -35q-48 0 -83.5 35t-35.5 84z" />
<glyph unicode="&#xfd;" horiz-adv-x="1024" d="M61 987q-5 33 12.5 54.5t49.5 21.5h100q32 0 53 -18t25 -50l84 -598q14 -96 51 -143t107 -47h75l97 778q4 37 26.5 57.5t55.5 20.5h96q33 0 50 -18.5t13 -53.5l-178 -1353q-9 -70 -80 -70h-94q-33 0 -50 18.5t-13 51.5l49 362h-55q-332 0 -388 377zM281 1280 q-22 54 38 80l302 131q66 27 90 -31l20 -53q11 -29 0 -51t-41 -33l-307 -113q-64 -24 -86 29z" />
<glyph unicode="&#xfe;" horiz-adv-x="1122" d="M147 -358v1785q0 32 20 52t52 20h96q32 0 52 -20t20 -52v-387q86 50 193 50q118 0 215.5 -51t158 -154t60.5 -240v-225q0 -110 -34 -197t-92.5 -140.5t-132 -81.5t-155.5 -28q-115 0 -213 62v-393q0 -32 -20 -52t-52 -20h-96q-32 0 -52 20t-20 52zM387 236 q107 -56 191 -56q87 0 140.5 60t53.5 190v205q0 121 -53 184.5t-139 63.5q-83 0 -138 -59t-55 -171v-417z" />
<glyph unicode="&#xff;" horiz-adv-x="1024" d="M61 987q-5 33 12.5 54.5t49.5 21.5h100q32 0 53 -18t25 -50l84 -598q14 -96 51 -143t107 -47h75l97 778q4 37 26.5 57.5t55.5 20.5h96q33 0 50 -18.5t13 -53.5l-178 -1353q-9 -70 -80 -70h-94q-33 0 -50 18.5t-13 51.5l49 362h-55q-332 0 -388 377zM207 1352 q0 50 36.5 86.5t84.5 36.5q49 0 83.5 -36t34.5 -87q0 -50 -34.5 -84.5t-83.5 -34.5q-48 0 -84.5 35t-36.5 84zM592 1352q0 51 35.5 87t83.5 36q51 0 85.5 -36t34.5 -87q0 -49 -35 -84t-85 -35q-48 0 -83.5 35t-35.5 84z" />
<glyph unicode="&#x152;" horiz-adv-x="1837" d="M121 537v307q0 138 41.5 247.5t114 178.5t168 105t206.5 36q82 0 178 -27h803q32 0 52 -19.5t20 -51.5v-70q0 -32 -20 -52t-52 -20h-534q84 -133 84 -327v-43h366q33 0 51 -17t17 -49l-6 -76q-3 -63 -74 -63h-354v-59q0 -191 -84 -324h553q32 0 51.5 -20t19.5 -52v-69 q0 -32 -19.5 -52t-51.5 -20h-820q-96 -27 -180 -27q-111 0 -206.5 35.5t-168 104t-114 177.5t-41.5 247zM367 555q0 -192 76 -280.5t208 -88.5q131 0 207 89t76 280v274q0 189 -76.5 279t-206.5 90q-132 0 -208 -90t-76 -279v-274z" />
<glyph unicode="&#x153;" horiz-adv-x="1697" d="M111 440v185q0 220 122 342.5t318 122.5q199 0 317 -127q118 127 308 127q178 0 299.5 -113t121.5 -289v-153q0 -32 -19.5 -52t-51.5 -20h-533v-39q0 -122 56 -183t161 -61q99 0 220 31q33 8 56 -4.5t30 -42.5l14 -62q7 -34 -6.5 -58.5t-44.5 -33.5q-136 -37 -269 -37 q-221 0 -338 129q-117 -129 -321 -129q-196 0 -318 123.5t-122 343.5zM348 451q0 -271 203 -271q205 0 205 271v182q-9 250 -205 250q-203 0 -203 -271v-161zM993 639h365v49q0 85 -50 140t-132 55q-81 0 -132 -56t-51 -153v-35z" />
<glyph unicode="&#x178;" horiz-adv-x="1167" d="M77.5 1361q13.5 23 45.5 23h119q65 0 94 -67l248 -537l247 537q29 67 95 67h118q34 0 47.5 -22.5t-1.5 -54.5l-383 -779v-456q0 -32 -20 -52t-52 -20h-103q-32 0 -51.5 20t-19.5 52v456l-383 779q-14 31 -0.5 54zM270 1642q0 50 36.5 86.5t84.5 36.5q49 0 84 -36t35 -87 q0 -49 -34.5 -83.5t-84.5 -34.5q-48 0 -84.5 34.5t-36.5 83.5zM655 1642q0 51 35.5 87t83.5 36q51 0 86 -36t35 -87q0 -49 -35.5 -83.5t-85.5 -34.5q-48 0 -83.5 34.5t-35.5 83.5z" />
<glyph unicode="&#x2c6;" horiz-adv-x="970" d="M214 1334.5q5 20.5 28 33.5l194 113q49 28 101 0l194 -113q48 -28 19 -76l-31 -49q-14 -22 -35.5 -26.5t-44.5 8.5l-152 98l-153 -98q-22 -14 -43.5 -9.5t-34.5 25.5l-33 51q-14 22 -9 42.5z" />
<glyph unicode="&#x2dc;" horiz-adv-x="927" d="M186 1405q70 82 164 82q42 0 84.5 -24t80 -48t67.5 -24q27 0 55 20q45 35 78 -4l24 -27q33 -39 2 -84q-57 -79 -159 -79q-43 0 -85.5 23.5t-79.5 47t-67 23.5q-32 0 -65 -25q-35 -31 -70 10l-22 25q-36 42 -7 84z" />
<glyph unicode="&#x2000;" horiz-adv-x="936" />
<glyph unicode="&#x2001;" horiz-adv-x="1872" />
<glyph unicode="&#x2002;" horiz-adv-x="936" />
<glyph unicode="&#x2003;" horiz-adv-x="1872" />
<glyph unicode="&#x2004;" horiz-adv-x="624" />
<glyph unicode="&#x2005;" horiz-adv-x="468" />
<glyph unicode="&#x2006;" horiz-adv-x="312" />
<glyph unicode="&#x2007;" horiz-adv-x="312" />
<glyph unicode="&#x2008;" horiz-adv-x="234" />
<glyph unicode="&#x2009;" horiz-adv-x="374" />
<glyph unicode="&#x200a;" horiz-adv-x="104" />
<glyph unicode="&#x2010;" horiz-adv-x="1011" d="M158 528v60q0 32 19.5 51.5t51.5 19.5h555q32 0 52 -19.5t20 -51.5v-60q0 -32 -20 -51.5t-52 -19.5h-555q-32 0 -51.5 19.5t-19.5 51.5z" />
<glyph unicode="&#x2011;" horiz-adv-x="1011" d="M158 528v60q0 32 19.5 51.5t51.5 19.5h555q32 0 52 -19.5t20 -51.5v-60q0 -32 -20 -51.5t-52 -19.5h-555q-32 0 -51.5 19.5t-19.5 51.5z" />
<glyph unicode="&#x2012;" horiz-adv-x="1011" d="M158 528v60q0 32 19.5 51.5t51.5 19.5h555q32 0 52 -19.5t20 -51.5v-60q0 -32 -20 -51.5t-52 -19.5h-555q-32 0 -51.5 19.5t-19.5 51.5z" />
<glyph unicode="&#x2013;" horiz-adv-x="1024" d="M0 530v60q0 32 20 52t52 20h880q32 0 52 -20t20 -52v-60q0 -32 -20 -51.5t-52 -19.5h-880q-32 0 -52 19.5t-20 51.5z" />
<glyph unicode="&#x2014;" horiz-adv-x="2048" d="M0 530v60q0 32 20 52t52 20h1904q32 0 52 -20t20 -52v-60q0 -32 -20 -51.5t-52 -19.5h-1904q-32 0 -52 19.5t-20 51.5z" />
<glyph unicode="&#x2018;" horiz-adv-x="526" d="M158 1085l104 365q6 26 26 39.5t48 9.5l43 -8q56 -9 47 -70l-61 -344q-9 -59 -68 -59h-92q-31 0 -43.5 18t-3.5 49z" />
<glyph unicode="&#x2019;" horiz-adv-x="528" d="M150 1094l61 346q4 29 22.5 44t45.5 15h92q30 0 43.5 -19t5.5 -50l-105 -365q-8 -25 -28 -38t-47 -9l-43 6q-56 10 -47 70z" />
<glyph unicode="&#x201a;" horiz-adv-x="538" d="M127 -147l61 344q9 61 68 61h92q30 0 43 -19.5t4 -50.5l-104 -364q-6 -25 -26.5 -38t-47.5 -9l-43 6q-56 9 -47 70z" />
<glyph unicode="&#x201c;" horiz-adv-x="870" d="M147 1085l105 365q8 27 28.5 40t47.5 9l43 -8q55 -10 47 -70l-62 -344q-9 -59 -67 -59h-94q-29 0 -42 18t-6 49zM489 1085l105 365q6 26 26 39.5t48 9.5l43 -8q56 -9 47 -70l-62 -344q-9 -59 -67 -59h-92q-31 0 -44 18t-4 49z" />
<glyph unicode="&#x201d;" horiz-adv-x="870" d="M139 1094l62 346q9 59 67 59h94q29 0 42.5 -19t5.5 -50l-105 -365q-8 -25 -28.5 -38t-47.5 -9l-43 6q-56 10 -47 70zM481 1094l60 346q12 59 69 59h92q31 0 44 -19t4 -50l-105 -365q-17 -56 -76 -47l-41 6q-59 10 -47 70z" />
<glyph unicode="&#x201e;" horiz-adv-x="868" d="M127 -147l61 344q9 61 68 61h92q30 0 43 -19.5t4 -50.5l-104 -364q-6 -25 -26.5 -38t-47.5 -9l-43 6q-56 9 -47 70zM455 -147l61 344q9 61 68 61h94q29 0 42 -19.5t5 -50.5l-104 -364q-8 -25 -28.5 -38t-47.5 -9l-43 6q-56 10 -47 70z" />
<glyph unicode="&#x2022;" horiz-adv-x="966" d="M259 651q32 92 120 135q87 43 181 12t136 -120q43 -88 11.5 -181.5t-119.5 -136.5q-89 -43 -182 -10.5t-136 121.5q-43 88 -11 180z" />
<glyph unicode="&#x2026;" horiz-adv-x="1660" d="M125 121q0 61 43 102t104 41q58 0 101 -41.5t43 -101.5t-43 -104t-101 -44q-61 0 -104 44t-43 104zM686 121q0 61 43 102t102 41t101.5 -41t42.5 -102q0 -60 -42 -104t-102 -44t-102.5 44t-42.5 104zM1245 121q0 61 43.5 102t104.5 41q58 0 100.5 -41.5t42.5 -101.5 t-42.5 -104t-100.5 -44q-60 0 -104 44t-44 104z" />
<glyph unicode="&#x202f;" horiz-adv-x="374" />
<glyph unicode="&#x2039;" horiz-adv-x="688" d="M133 574q0 28 19 51l225 293q15 21 39 23.5t45 -13.5l67 -54q21 -16 24 -36.5t-15 -44.5l-166 -218l168 -221q17 -22 14.5 -43.5t-23.5 -36.5l-69 -53q-21 -15 -45.5 -11.5t-42.5 26.5l-221 288q-19 22 -19 50z" />
<glyph unicode="&#x203a;" horiz-adv-x="690" d="M150 354l167 221l-165 218q-36 48 8 81l67 54q52 33 86 -10l226 -293q17 -23 17 -51t-17 -50l-224 -288q-17 -23 -41 -26.5t-47 11.5l-67 53q-44 30 -10 80z" />
<glyph unicode="&#x205f;" horiz-adv-x="468" />
<glyph unicode="&#x20ac;" horiz-adv-x="1099" d="M76 520v47q0 51 55 51h92v148h-92q-55 0 -55 53v49q0 50 55 50h92q6 228 149 360.5t359 132.5q119 0 246 -25q70 -16 55 -83l-14 -72q-7 -32 -31 -45.5t-55 -7.5q-92 20 -199 20q-117 0 -187.5 -75t-76.5 -205h340q26 0 38.5 -12t8.5 -34l-12 -61q-9 -45 -62 -45h-313 v-148h287q24 0 35.5 -12.5t7.5 -34.5l-13 -59q-9 -45 -63 -45h-254q6 -132 76.5 -206.5t187.5 -74.5q102 0 199 21q71 13 86 -53l12 -66q7 -34 -9 -59t-48 -31q-123 -25 -242 -25q-216 0 -359 133t-149 361h-92q-55 0 -55 53z" />
<glyph unicode="&#x2122;" horiz-adv-x="1583" d="M158 1294v35q0 55 53 55h401q26 0 40 -15.5t12 -41.5l-5 -33q-6 -55 -59 -55h-106v-420q0 -26 -15 -40.5t-41 -14.5h-55q-55 0 -55 55v420h-117q-53 0 -53 55zM707 825l65 498q3 28 20.5 44.5t43.5 16.5h63q47 0 66 -55l98 -274l96 274q19 55 66 55h63q27 0 44 -16 t20 -45l65 -500q6 -59 -47 -59h-61q-49 0 -56 57l-28 260l-70 -186q-18 -49 -65 -49h-56q-47 0 -65 49l-70 186l-29 -258q-6 -59 -57 -59h-55q-27 0 -40.5 16t-10.5 45z" />
<glyph unicode="&#xe000;" horiz-adv-x="1064" d="M0 0v1065h1065v-1065h-1065z" />
</font>
</defs>
</svg>
